<svg xmlns="http://www.w3.org/2000/svg" xmlns:xlink="http://www.w3.org/1999/xlink" xmlns:lucid="lucid" width="1882" height="738"><g transform="translate(-159 57)" lucid:page-tab-id="0_0"><path d="M1600 5.67a6 6 0 0 1 6-6h388a6 6 0 0 1 6 6v148a6 6 0 0 1-6 6h-388a6 6 0 0 1-6-6z" stroke="#d916a8" stroke-width="2" fill="#ffd6f5"/><path d="M1600 40.67h400" stroke="#d916a8" stroke-width="2" fill="none"/><use xlink:href="#a" transform="matrix(1,0,0,1,1608,7.6666666666667425) translate(181.53548177083334 20.517903645833336)"/><path d="M800 5.67a6 6 0 0 1 6-6h674.67a6 6 0 0 1 6 6v628a6 6 0 0 1-6 6H806a6 6 0 0 1-6-6z" stroke="#54c45e" stroke-width="2" fill="#c3f7c8"/><path d="M800 40.67h686.67" stroke="#54c45e" stroke-width="2" fill="none"/><use xlink:href="#b" transform="matrix(1,0,0,1,808,7.6666666666667425) translate(287.6780598958333 20.517903645833336)"/><use xlink:href="#c" transform="matrix(1,0,0,1,808,7.6666666666667425) translate(327.19498697916663 20.517903645833336)"/><use xlink:href="#d" transform="matrix(1,0,0,1,812,48.67252604166674) translate(0 287.0149739583333)"/><use xlink:href="#e" transform="matrix(1,0,0,1,812,48.67252604166674) translate(0 312.0208333333333)"/><path d="M200 366a6 6 0 0 1 6-6h468a6 6 0 0 1 6 6v268a6 6 0 0 1-6 6H206a6 6 0 0 1-6-6z" stroke="#fe7070" stroke-width="2" fill="#ffd9d9"/><path d="M200 401h480" stroke="#fe7070" stroke-width="2" fill="none"/><use xlink:href="#f" transform="matrix(1,0,0,1,208,368) translate(159.57080078125 20.517903645833336)"/><use xlink:href="#c" transform="matrix(1,0,0,1,208,368) translate(248.30224609375 20.517903645833336)"/><path d="M200 5.67a6 6 0 0 1 6-6h468a6 6 0 0 1 6 6v306a6 6 0 0 1-6 6H206a6 6 0 0 1-6-6z" stroke="#6db1ff" stroke-width="2" fill="#edf5ff"/><path d="M200 40.67h480" stroke="#6db1ff" stroke-width="2" fill="none"/><use xlink:href="#g" transform="matrix(1,0,0,1,208,7.6666666666667425) translate(153.63720703125 20.517903645833336)"/><use xlink:href="#h" transform="matrix(1,0,0,1,208,7.6666666666667425) translate(254.23583984375 20.517903645833336)"/><path d="M320 61.67a6 6 0 0 1 6-6h228a6 6 0 0 1 6 6v228a6 6 0 0 1-6 6H326a6 6 0 0 1-6-6z" fill-opacity="0"/><path d="M338.2 55.67h8.16m8.14 0h8.14m8.15 0h8.13m8.14 0h8.14m8.16 0h8.14m8.14 0h8.15m8.13 0h8.14m8.14 0h8.16m8.14 0h8.14m8.15 0h8.13m8.14 0h8.14m8.16 0h8.14m8.14 0h8.15m8.13 0H554a6 6 0 0 1 6 6v4.07m0 8.14v8.14m0 8.15v8.14m0 8.15v8.14m0 8.14v8.14m0 8.14v8.15m0 8.14v8.15m0 8.15v8.14m0 8.14v8.14m0 8.15v8.14m0 8.15v8.15m0 8.14v8.14m0 8.14v8.15m0 8.14v8.15m0 8.15v4.07a6 6 0 0 1-6 6h-4.07m-8.14 0h-8.16m-8.14 0h-8.14m-8.15 0h-8.13m-8.14 0h-8.14m-8.16 0h-8.14m-8.14 0h-8.15m-8.13 0h-8.14m-8.14 0h-8.16m-8.14 0h-8.14m-8.15 0h-8.13m-8.14 0h-8.14m-8.16 0h-8.14m-8.14 0h-8.15m-8.13 0H326a6 6 0 0 1-6-6v-4.07m0-8.15v-8.14m0-8.13v-8.15m0-8.14v-8.14m0-8.15v-8.15m0-8.14v-8.13m0-8.15v-8.14m0-8.14v-8.15m0-8.15v-8.14m0-8.13v-8.15m0-8.14v-8.14m0-8.14v-8.15m0-8.14v-8.13m0-8.15v-8.14m0-8.14v-4.07a6 6 0 0 1 6-6h4.07" stroke="#000" stroke-width="2" fill="none"/><use xlink:href="#i" transform="matrix(1,0,0,1,325,60.66666666666674) translate(27.977430555555557 228.04937777777778)"/><use xlink:href="#j" transform="matrix(1,0,0,1,325,60.66666666666674) translate(127.16362847222221 228.04937777777778)"/><path d="M406.48 108.53c0 18.14-14.02 32.86-31.3 32.86-17.3 0-31.3-14.73-31.3-32.87 0-18.15 14-32.86 31.3-32.86 17.28 0 31.3 14.7 31.3 32.86zM469.08 228.53c0 18.15-14 32.86-31.3 32.86s-31.3-14.72-31.3-32.87 14-32.86 31.3-32.86 31.3 14.7 31.3 32.86zM542.6 108.53c0 18.14-14 32.86-31.3 32.86S480 126.66 480 108.52c0-18.15 14-32.86 31.3-32.86s31.3 14.7 31.3 32.86z" stroke="#000" stroke-width="2" fill-opacity="0"/><path d="M464.33 221.04l-.04-.07-.3-.56-.3-.63-.28-.73-.26-.84-.24-1-.2-1.18-.17-1.43-.08-1.75.04-2.17.23-2.74.5-3.5.95-4.5 1.58-5.7 2.43-7.02 3.3-7.95 3.97-8.02 4.1-7.12 3.76-5.7 3.24-4.27 2.7-3.13 1-1.03m26.8-.13l.03.07.3.56.3.64.27.73.26.85.24 1 .2 1.18.17 1.42.08 1.75-.04 2.17-.22 2.74-.5 3.5-.95 4.5-1.57 5.7-2.43 7-3.32 7.96-3.96 8.03-4.1 7.1-3.76 5.7-3.24 4.28-2.7 3.13-1 1.03M464.32 221.03l.28.44" stroke="#82755b" fill="none"/><path d="M501.5 143.07l-7.1 13.2-7.88-12.76z" stroke="#82755b" fill="#82755b"/><path d="M517.47 149.63l-.8.5-.28-.43.8-.5z" stroke="#82755b" stroke-width=".05" fill="#82755b"/><path d="M479.88 227.85l7.12-13.2 7.87 12.76z" stroke="#82755b" fill="#82755b"/><path d="M384.12 217.35l-.17-.22-2.32-3.43-2.67-4.56-2.96-5.87-3.02-7.06-2.72-7.7-2.13-7.44-1.42-6.5-.8-5.32-.36-4.2-.08-3.3.1-2.6.22-2.07.28-1.67.32-1.37.34-1.13.36-.95.36-.8.37-.7.38-.6.37-.54.1-.1m27.88 4.37l.17.2 2.32 3.45 2.67 4.56 2.95 5.86 3 7.07 2.74 7.7 2.1 7.45 1.43 6.5.8 5.33.38 4.2.1 3.3-.1 2.6-.23 2.07-.28 1.66-.33 1.38-.34 1.13-.36.96-.37.8-.36.7-.37.6-.37.54-.1.1" stroke="#82755b" fill="none"/><path d="M395.34 226.4l-14-5.35 5.8-7.22z" stroke="#82755b" fill="#82755b"/><path d="M369.3 149.13l-.32.38-.72-.6.33-.4z" stroke="#82755b" stroke-width=".05" fill="#82755b"/><path d="M385.3 144.52l14.02 5.34-5.8 7.22z" stroke="#82755b" fill="#82755b"/><path d="M412.03 221.7l-.33.4M411.7 100.08l.14-.3.45-.74.54-.77.66-.8.8-.82 1-.86 1.22-.92 1.53-.95 1.92-1 2.44-1.04 3.1-1.04 3.9-.97 4.76-.8 5.5-.5 5.83-.04 5.6.4 4.95.72 4.1.94 1.92.6m12.7 25.75l-.14.3-.45.75-.54.76-.66.8-.8.82-1 .86-1.23.9-1.52.97-1.93 1-2.44 1.03-3.1 1.04-3.9.97-4.75.8-5.48.47-5.83.05-5.63-.4-4.95-.73-4.1-.94-1.92-.6" stroke="#82755b" fill="none"/><path d="M412.13 100.28l-.23.46-.85-.42.23-.46z" stroke="#82755b" stroke-width=".05" fill="#82755b"/><path d="M473.7 99.58l-14.3-4.56 5.4-7.53z" stroke="#82755b" fill="#82755b"/><path d="M475.43 116.74l-.23.46-.85-.42.22-.46z" stroke="#82755b" stroke-width=".05" fill="#82755b"/><path d="M412.8 117.47l14.28 4.57-5.4 7.52z" stroke="#82755b" fill="#82755b"/><path d="M1062.22 160c22.1 0 40 17.9 40 40s-17.9 40-40 40H920c-22.1 0-40-17.9-40-40s17.9-40 40-40z" stroke="#000" stroke-width="2" fill-opacity="0"/><use xlink:href="#k" transform="matrix(1,0,0,1,885,165) translate(59.04448784722223 43.40277777777778)"/><use xlink:href="#l" transform="matrix(1,0,0,1,885,165) translate(95.87174479166667 43.40277777777778)"/><path d="M1600 246a6 6 0 0 1 6-6h388a6 6 0 0 1 6 6v388a6 6 0 0 1-6 6h-388a6 6 0 0 1-6-6z" stroke="#9391ff" stroke-width="2" fill="#dedeff"/><path d="M1600 281h400" stroke="#9391ff" stroke-width="2" fill="none"/><use xlink:href="#m" transform="matrix(1,0,0,1,1608,248) translate(157.52360026041666 20.517903645833336)"/><path d="M1877.78 310.67c22.1 0 40 17.9 40 40s-17.9 40-40 40h-160c-22.1 0-40-17.9-40-40s17.9-40 40-40z" stroke="#000" stroke-width="2" fill-opacity="0"/><use xlink:href="#n" transform="matrix(1,0,0,1,1682.7803415638987,315.6666666666665) translate(44.01475694444444 43.71527777777778)"/><use xlink:href="#o" transform="matrix(1,0,0,1,1682.7803415638987,315.6666666666665) translate(133.25086805555554 43.71527777777778)"/><path d="M1877.78 426.67c22.1 0 40 17.9 40 40s-17.9 40-40 40h-160c-22.1 0-40-17.9-40-40s17.9-40 40-40z" stroke="#000" stroke-width="2" fill-opacity="0"/><use xlink:href="#n" transform="matrix(1,0,0,1,1682.7803415638987,431.66666666666646) translate(44.01475694444444 43.71527777777778)"/><use xlink:href="#o" transform="matrix(1,0,0,1,1682.7803415638987,431.66666666666646) translate(133.25086805555554 43.71527777777778)"/><path d="M1877.78 542.67c22.1 0 40 17.9 40 40s-17.9 40-40 40h-160c-22.1 0-40-17.9-40-40s17.9-40 40-40z" stroke="#000" stroke-width="2" fill-opacity="0"/><use xlink:href="#n" transform="matrix(1,0,0,1,1682.7803415638987,547.6666666666667) translate(44.01475694444444 43.71527777777778)"/><use xlink:href="#o" transform="matrix(1,0,0,1,1682.7803415638987,547.6666666666667) translate(133.25086805555554 43.71527777777778)"/><path d="M209.95 432.67a6 6 0 0 1 6-6H659.6a6 6 0 0 1 6 6v168a6 6 0 0 1-6 6H215.96a6 6 0 0 1-6-6z" fill-opacity="0"/><path d="M227.84 426.67h7.92m7.92 0h7.92m7.93 0h7.92m7.92 0h7.92m7.92 0h7.92m7.92 0h7.92m7.93 0h7.93m7.92 0h7.92m7.93 0h7.92m7.92 0h7.92m7.93 0h7.9m7.93 0h7.92m7.92 0h7.93m7.92 0h7.92m7.92 0h7.93m7.9 0h7.93m7.92 0h7.93m7.92 0h7.92m7.92 0h7.93m7.92 0h7.9m7.93 0h7.92m7.93 0h7.92m7.92 0h7.92m7.93 0h7.92m7.9 0h7.93m7.93 0h7.92m7.92 0h7.92m7.92 0h3.97a6 6 0 0 1 6 6v3.8m0 7.65v7.64m0 7.63v7.63m0 7.64v7.63m0 7.64v7.64m0 7.63v7.65m0 7.63v7.64m0 7.64v7.63m0 7.63v7.64m0 7.63v7.64m0 7.64v7.63m0 7.65v3.82a6 6 0 0 1-6 6h-3.96m-7.92 0h-7.92m-7.92 0h-7.92m-7.93 0h-7.92m-7.9 0h-7.93m-7.93 0h-7.92m-7.92 0h-7.92m-7.93 0h-7.92m-7.92 0h-7.9m-7.93 0h-7.93m-7.92 0h-7.92m-7.92 0h-7.93m-7.92 0h-7.92m-7.9 0h-7.94m-7.92 0h-7.92m-7.92 0h-7.93m-7.92 0h-7.92m-7.92 0h-7.9m-7.94 0h-7.92m-7.92 0h-7.92m-7.93 0h-7.92m-7.92 0h-7.92m-7.92 0h-7.92m-7.92 0h-7.92m-7.93 0h-7.93m-7.92 0h-7.92m-7.92 0h-7.92m-7.92 0h-7.92m-7.93 0h-3.95a6 6 0 0 1-6-6v-3.82m0-7.64v-7.62m0-7.64v-7.64m0-7.63v-7.64m0-7.64v-7.64m0-7.64v-7.63m0-7.65v-7.64m0-7.62v-7.64m0-7.64v-7.63m0-7.64v-7.64m0-7.64v-7.64m0-7.63v-3.83a6 6 0 0 1 6-6h3.97" stroke="#000" stroke-width="2" fill="none"/><use xlink:href="#p" transform="matrix(1,0,0,1,214.9542546073767,431.66666666666646) translate(148.05967881944446 169.76777777777778)"/><use xlink:href="#j" transform="matrix(1,0,0,1,214.9542546073767,431.66666666666646) translate(223.08138020833334 169.76777777777778)"/><path d="M497.78 557.33c0 6.63-26.86 12-60 12s-60-5.37-60-12v-96c0-6.62 26.86-12 60-12s60 5.38 60 12z" stroke="#000" stroke-width="2" fill-opacity="0"/><path d="M497.78 461.33c0 6.63-26.86 12-60 12s-60-5.37-60-12" stroke="#000" stroke-width="2" fill="none"/><path d="M645.6 557.33c0 6.63-26.86 12-60 12-33.13 0-60-5.37-60-12v-96c0-6.62 26.87-12 60-12 33.14 0 60 5.38 60 12z" stroke="#000" stroke-width="2" fill-opacity="0"/><path d="M645.6 461.33c0 6.63-26.86 12-60 12-33.13 0-60-5.37-60-12" stroke="#000" stroke-width="2" fill="none"/><path d="M349.95 557.33c0 6.63-26.86 12-60 12-33.13 0-60-5.37-60-12v-96c0-6.62 26.87-12 60-12 33.14 0 60 5.38 60 12z" stroke="#000" stroke-width="2" fill-opacity="0"/><path d="M349.95 461.33c0 6.63-26.86 12-60 12-33.13 0-60-5.37-60-12" stroke="#000" stroke-width="2" fill="none"/><path d="M1382.22 426.67c22.1 0 40 17.9 40 40s-17.9 40-40 40H1240c-22.1 0-40-17.9-40-40s17.9-40 40-40z" stroke="#000" stroke-width="2" fill-opacity="0"/><use xlink:href="#n" transform="matrix(1,0,0,1,1205,431.6666666666665) translate(10.330295138888886 43.40277777777778)"/><use xlink:href="#q" transform="matrix(1,0,0,1,1205,431.6666666666665) translate(99.56640625 43.40277777777778)"/><path d="M1423.72 466.66l7.84-.17 7.67-.5 7.13-.74 6.7-.98 6.3-1.2 6.03-1.42 5.78-1.6 5.6-1.83 5.5-2.05 5.4-2.27 5.42-2.54 5.48-2.86 5.63-3.25 5.93-3.76 6.42-4.5 7.4-5.6 9.67-8.03 42.44-37.44 7.38-5.6 6.43-4.48 5.92-3.76 5.62-3.26 5.48-2.87 5.4-2.54 5.43-2.28 5.48-2.04 5.62-1.8 5.8-1.63 6-1.4 6.33-1.22 6.7-.98 6.76-.7" stroke="#3a414a" stroke-linejoin="round" fill="none"/><path d="M1423.75 467.13h-.56l.02-.45-.02-.5h.53z" stroke="#3a414a" stroke-width=".05" fill="#3a414a"/><path d="M1675.16 350.74l-14.06 5.23-.38-9.27z" stroke="#3a414a" fill="#3a414a"/><path d="M1423.72 466.67h236.68" stroke="#3a414a" stroke-linejoin="round" fill="none"/><path d="M1423.74 467.14h-.55l.02-.46-.02-.5h.54z" stroke="#3a414a" stroke-width=".05" fill="#3a414a"/><path d="M1675.16 466.67l-14.26 4.63v-9.27z" stroke="#3a414a" fill="#3a414a"/><path d="M1423.72 466.68l7.84.16 7.67.48 7.13.75 6.7.98 6.3 1.2 6.03 1.42 5.78 1.62 5.6 1.8 5.5 2.05 5.4 2.28 5.42 2.54 5.48 2.87 5.63 3.25 5.93 3.75 6.42 4.47 7.4 5.62 9.67 8.03 42.44 37.43 7.38 5.6 6.43 4.5 5.92 3.75 5.62 3.25 5.48 2.86 5.4 2.55 5.43 2.28 5.48 2.05 5.62 1.82 5.8 1.6 6 1.43 6.33 1.2 6.7 1 6.76.7" stroke="#3a414a" stroke-linejoin="round" fill="none"/><path d="M1423.75 466.2l-.02.95h-.54l.02-.47-.02-.5z" stroke="#3a414a" stroke-width=".05" fill="#3a414a"/><path d="M1675.16 582.6l-14.45 4.03.4-9.26z" stroke="#3a414a" fill="#3a414a"/><path d="M1402.22 79.67c22.1 0 40 17.9 40 40s-17.9 40-40 40H1260c-22.1 0-40-17.9-40-40s17.9-40 40-40z" stroke="#000" stroke-width="2" fill-opacity="0"/><use xlink:href="#r" transform="matrix(1,0,0,1,1225,84.66666666666674) translate(39.88216145833333 43.40277777777778)"/><use xlink:href="#s" transform="matrix(1,0,0,1,1225,84.66666666666674) translate(81.62478298611111 43.40277777777778)"/><path d="M1218.5 119.68l-2.13.04-2.47.16-2.37.26-2.25.34-2.18.43-2.1.52-2.06.6-2 .67-2 .75-1.95.85-1.97.96-1.96 1.06-2 1.2-2 1.33-2.1 1.5-2.17 1.73-2.3 1.98-2.46 2.33-2.74 2.8-3.18 3.57-4.1 5.02-21.92 29.1-3.18 3.56-2.74 2.82-2.47 2.33-2.28 2-2.17 1.7-2.1 1.52-2 1.34-2 1.2-1.96 1.05-1.97.97-1.96.85-1.98.76-1.93.65" stroke="#3a414a" stroke-linejoin="round" fill="none"/><path d="M1219 119.65l.02.5h-.53l-.03-.95h.56z" stroke="#3a414a" stroke-width=".05" fill="#3a414a"/><path d="M1104.82 199.76l13.44-6.66 1.35 9.17z" stroke="#3a414a" fill="#3a414a"/><path d="M1871.1 61.4c22.1 0 40 17.9 40 40 0 22.08-17.9 40-40 40h-142.2c-22.1 0-40-17.92-40-40 0-22.1 17.9-40 40-40z" stroke="#000" stroke-width="2" fill-opacity="0"/><use xlink:href="#t" transform="matrix(1,0,0,1,1693.890170781949,66.38666666666677) translate(39.14973958333334 43.40277777777778)"/><use xlink:href="#u" transform="matrix(1,0,0,1,1693.890170781949,66.38666666666677) translate(94.98741319444446 43.40277777777778)"/><path d="M1687.4 101.4l-40.2.77-28.52 1.77-25.83 2.73-80.42 10.44-28.53 1.78-24.3.47" stroke="#3a414a" stroke-linejoin="round" fill="none"/><path d="M1687.9 101.37v.5h-.52l-.02-.95h.56z" stroke="#3a414a" stroke-width=".05" fill="#3a414a"/><path d="M1444.84 119.64l14.17-4.92.2 9.27z" stroke="#3a414a" fill="#3a414a"/><path d="M878.5 200l-17.47-.37-15.72-.98-14-1.47-12.7-1.87-11.75-2.23-11.05-2.6-10.6-2.95-10.47-3.4-10.65-3.96-11.42-4.8-13.64-6.44-69.07-35.74-11.43-4.8-10.64-3.97-10.46-3.4-10.62-2.95-11.04-2.6-11.75-2.23-12.7-1.88-14-1.46-15.72-1-1.6-.02" stroke="#3a414a" stroke-linejoin="round" fill="none"/><path d="M879.03 199.53l-.03.46.02.48-.55-.02.02-.95z" stroke="#3a414a" stroke-width=".05" fill="#3a414a"/><path d="M545.23 108.56l14.35-4.34-.2 9.27z" stroke="#3a414a" fill="#3a414a"/><path d="M878.5 200l-24.8.52-23.45 1.47-22.24 2.33-21.67 3.2-22 4.2-24.18 5.7-35.37 9.97-58.96 17.42-15.16 3.57-12.03 2.3-10.53 1.55-9.7 1.03-9.26.58-9.04.2-9-.2-9.12-.57-9.37-1-9.78-1.45-10.36-1.97-11.13-2.62-12.13-3.4-13.45-4.37-10.45-3.9" stroke="#3a414a" stroke-linejoin="round" fill="none"/><path d="M879 200l.02.47-.53.02-.03-.96.56-.02z" stroke="#3a414a" stroke-width=".05" fill="#3a414a"/><path d="M471.6 229.13l14.95.98-3.43 8.62z" stroke="#3a414a" fill="#3a414a"/><path d="M1331.1 161.17l-.84 43.2-1.9 30.7-2.9 27.6-11.6 88.6-1.9 30.7-.53 27.32" stroke="#3a414a" stroke-linejoin="round" fill="none"/><path d="M1331.58 161.2l-.95-.03v-.5h.95z" stroke="#3a414a" stroke-width=".05" fill="#3a414a"/><path d="M1311.14 424.05l-4.36-14.35 9.27.18z" stroke="#3a414a" fill="#3a414a"/><path d="M1102.22 489.33c22.1 0 40 17.9 40 40s-17.9 40-40 40H960c-22.1 0-40-17.9-40-40s17.9-40 40-40z" stroke="#000" stroke-width="2" fill-opacity="0"/><use xlink:href="#v" transform="matrix(1,0,0,1,925,494.33333333333326) translate(40.58203125 43.40277777777778)"/><use xlink:href="#l" transform="matrix(1,0,0,1,925,494.33333333333326) translate(114.33420138888889 43.40277777777778)"/><path d="M1022.22 360c22.1 0 40 17.9 40 40s-17.9 40-40 40H880c-22.1 0-40-17.9-40-40s17.9-40 40-40z" stroke="#000" stroke-width="2" fill-opacity="0"/><use xlink:href="#v" transform="matrix(1,0,0,1,845,365) translate(41.829861111111114 43.40277777777778)"/><use xlink:href="#w" transform="matrix(1,0,0,1,845,365) translate(115.58203125 43.40277777777778)"/><path d="M1218.5 119.7h-.16l-.22.04-.22.04-.22.05-.23.07-.23.07-.23.1-.25.1-.25.1-.25.14-.27.16-.27.18-.28.2-.3.23-.33.27-.35.3-.36.36-.4.42-.43.5-.46.58-.5.7-.56.84-.62 1.03-.7 1.3-.82 1.62-.93 2.1-1.1 2.8-1.33 3.8-1.63 5.43-2.06 8.14-2.77 13.17-4.02 24.14-7.37 60.43-21.9 211.22-4.03 24.14-2.77 13.17-2.07 8.14-1.62 5.43-1.33 3.8-1.06 2.7" stroke="#3a414a" stroke-linejoin="round" fill="none"/><path d="M1219 119.65l.02.5h-.52l-.03-.95h.56z" stroke="#3a414a" stroke-width=".05" fill="#3a414a"/><path d="M1144.3 528.13l6.03-13.74 6.92 6.16z" stroke="#3a414a" fill="#3a414a"/><path d="M991.1 241.5l-.1 4.7-.3 4.68-.44 4.24-.58 3.9-.7 3.62-.82 3.43-.92 3.27-1.05 3.18-1.2 3.14-1.34 3.17-1.58 3.3-1.9 3.6-2.52 4.3-4.98 7.65-8.12 12.3-2.52 4.3-1.9 3.6-1.58 3.3-1.35 3.16-1.17 3.14-1.05 3.18-.92 3.27-.82 3.43-.7 3.63-.25 1.68" stroke="#3a414a" stroke-linejoin="round" fill="none"/><path d="M991.57 241.52l-.95-.02v-.5h.97z" stroke="#3a414a" stroke-width=".05" fill="#3a414a"/><path d="M951.23 357.4l-3.6-14.58 9.25.67z" stroke="#3a414a" fill="#3a414a"/><path d="M838.5 400l-18.9-.42-23.63-1.5-30.15-3.2-42.25-6.3-94.37-18.53-122.35-24.65-35.55-5.3-24.2-2.6-18.3-1.15-14.6-.32-12.03.25-10.18.63-8.76.93-7.64 1.12-6.75 1.28-6.03 1.4-5.42 1.53-4.92 1.6-4.5 1.67-4.14 1.74-3.82 1.8-3.55 1.85-3.32 1.9-3.1 2-2.94 2.02-2.75 2.1-2.62 2.17-2.5 2.25-2.37 2.32-2.26 2.42-2.17 2.5-2.08 2.62-2 2.75-1.9 2.88-1.85 3.04-1.77 3.2-1.7 3.4-1.6 3.64-1.54 3.9-1.47 4.18-1.36 4.5-1.26 4.93-1.13 5.36-1 5.9-.82 6.54-.3 3.63" stroke="#3a414a" stroke-linejoin="round" fill="none"/><path d="M839.03 399.53l-.03.46.02.48-.55-.02.02-.95z" stroke="#3a414a" stroke-width=".05" fill="#3a414a"/><path d="M290.02 446.72L286 432.27l9.26.4z" stroke="#3a414a" fill="#3a414a"/><path d="M838.5 400l-13.63-.3-20.48-1.33-122.23-12.64-13.16-.3-9.96.2-7.97.5-6.6.7-5.57.8-4.8.92-4.2 1-3.7 1.02-3.32 1.07-2.98 1.1-2.7 1.15-2.46 1.15-2.27 1.18-2.1 1.2-1.93 1.24-1.8 1.25-1.7 1.28-1.58 1.3-1.5 1.36-1.4 1.38-1.34 1.42-1.26 1.46-1.2 1.52-1.14 1.57-1.1 1.65-1.02 1.7-1 1.8-.92 1.87-.88 2-.84 2.1-.77 2.22-.74 2.4-.65 2.56-.53 2.54" stroke="#3a414a" stroke-linejoin="round" fill="none"/><path d="M839.03 399.53l-.03.46.02.48-.55-.02.02-.95z" stroke="#3a414a" stroke-width=".05" fill="#3a414a"/><path d="M585.75 446.72l-3.34-14.62 9.24.83z" stroke="#3a414a" fill="#3a414a"/><path d="M918.5 529.32l-98.66-1.85-70.7-4.46-151.2-11.8-82.78-1.56" stroke="#3a414a" stroke-linejoin="round" fill="none"/><path d="M919.03 528.86l-.03.46.02.5-.55-.02.02-.95z" stroke="#3a414a" stroke-width=".05" fill="#3a414a"/><path d="M500.4 509.36l14.35-4.36-.18 9.27z" stroke="#3a414a" fill="#3a414a"/><defs><path d="M750 21c-371 0-615-218-615-544v-967h305v942c0 174 123 299 310 299s309-125 309-299v-942h306v967c0 326-247 544-615 544" id="x"/><path d="M440-1490V0H135v-1490h305" id="y"/><g id="a"><use transform="matrix(0.010091145833333334,0,0,0.010091145833333334,0,0)" xlink:href="#x"/><use transform="matrix(0.010091145833333334,0,0,0.010091145833333334,15.126627604166668,0)" xlink:href="#y"/></g><path d="M49 0l509-1490h400L1480 0h-339l-115-346H497L386 0H49zm524-585h374c-75-213-124-402-192-666-66 268-110 453-182 666" id="z"/><path d="M135 0v-1490h581c339 0 533 210 533 503 0 295-197 500-540 500H440V0H135zm305-733h220c186 0 274-104 274-254s-88-251-275-251H440v505" id="A"/><g id="b"><use transform="matrix(0.010091145833333334,0,0,0.010091145833333334,0,0)" xlink:href="#z"/><use transform="matrix(0.010091145833333334,0,0,0.010091145833333334,15.429361979166668,0)" xlink:href="#A"/><use transform="matrix(0.010091145833333334,0,0,0.010091145833333334,28.8203125,0)" xlink:href="#y"/></g><path d="M135 0v-1490h305v1237h643V0H135" id="B"/><path d="M440 22C227 22 68-92 68-313c0-250 202-322 422-343 195-21 271-24 271-105 0-95-63-149-175-149-116 0-187 57-211 129l-275-46c57-194 237-305 487-305 240 0 474 108 474 379V0H777v-155h-10C713-51 605 22 440 22zm85-211c140 0 238-93 238-211v-121c-37 26-156 42-222 51-111 16-185 59-185 149 0 87 70 132 169 132" id="C"/><path d="M120 396l69-226c123 42 245 23 254-107l8-60L31-1118h319c87 288 199 559 259 872 72-308 185-583 277-872h315L726 132c-68 181-186 294-410 294-79 0-153-13-196-30" id="D"/><path d="M633 22C291 22 81-200 81-553c0-345 210-579 537-579 292 0 525 185 525 567v84H378c7 183 109 277 260 277 105 0 184-46 216-132l272 51C1071-99 893 22 633 22zM380-669h474c-15-146-94-237-233-237-143 0-229 99-241 237" id="E"/><path d="M128 0v-1118h290v195h12c54-169 184-238 367-200v268c-27-8-86-15-130-15-138 0-239 95-239 234V0H128" id="F"/><g id="c"><use transform="matrix(0.010091145833333334,0,0,0.010091145833333334,0,0)" xlink:href="#B"/><use transform="matrix(0.010091145833333334,0,0,0.010091145833333334,11.685546875,0)" xlink:href="#C"/><use transform="matrix(0.010091145833333334,0,0,0.010091145833333334,23.330729166666668,0)" xlink:href="#D"/><use transform="matrix(0.010091145833333334,0,0,0.010091145833333334,35.399739583333336,0)" xlink:href="#E"/><use transform="matrix(0.010091145833333334,0,0,0.010091145833333334,47.7109375,0)" xlink:href="#F"/></g><path d="M786 20C389 20 94-260 94-744c0-487 299-766 692-766 339 0 597 194 641 529h-309c-28-162-156-258-326-258-233 0-388 179-388 495 0 323 157 493 387 493 170 0 298-97 328-259h309c-34 277-266 530-642 530" id="G"/><path d="M628 22C291 22 81-210 81-554c0-346 210-578 547-578 265 0 455 142 497 372l-279 52c-25-116-99-188-215-188-160 0-244 139-244 341 0 200 84 341 244 341 116 0 193-74 217-195l279 51C1085-123 896 22 628 22" id="H"/><path d="M428-647V0H128v-1490h294v586c65-146 175-228 341-228 232 0 385 159 385 421V0H847v-659c0-139-76-222-202-222-128 0-217 86-217 234" id="I"/><path d="M128 0v-1118h300V0H128zm150-1264c-91 0-165-68-165-154 0-85 74-154 165-154 90 0 165 69 165 154 0 86-75 154-165 154" id="J"/><path d="M428-647V0H128v-1118h283l4 231c63-156 176-245 348-245 232 0 384 159 384 421V0H847v-659c0-139-76-222-202-222-128 0-217 86-217 234" id="K"/><path d="M625 442c-280 0-454-114-503-274l258-72c28 63 97 128 243 128 153 0 246-69 246-216v-206h-23C805-108 717-16 536-16 284-16 81-191 81-561c0-378 208-571 456-571 188 0 280 113 321 202h13v-188h295V-9c0 303-226 451-541 451zm5-686c153 0 240-119 240-319 0-198-86-329-240-329-158 0-241 137-241 329 0 195 85 319 241 319" id="L"/><g id="f"><use transform="matrix(0.010091145833333334,0,0,0.010091145833333334,0,0)" xlink:href="#G"/><use transform="matrix(0.010091145833333334,0,0,0.010091145833333334,15.2880859375,0)" xlink:href="#C"/><use transform="matrix(0.010091145833333334,0,0,0.010091145833333334,27.286458333333336,0)" xlink:href="#H"/><use transform="matrix(0.010091145833333334,0,0,0.010091145833333334,39.4462890625,0)" xlink:href="#I"/><use transform="matrix(0.010091145833333334,0,0,0.010091145833333334,52.3125,0)" xlink:href="#J"/><use transform="matrix(0.010091145833333334,0,0,0.010091145833333334,57.9130859375,0)" xlink:href="#K"/><use transform="matrix(0.010091145833333334,0,0,0.010091145833333334,70.779296875,0)" xlink:href="#L"/></g><path d="M659 0H135v-1490h529c448 0 721 280 721 744 0 466-273 746-726 746zM440-263h204c287 0 437-148 437-483 0-333-150-481-435-481H440v964" id="M"/><path d="M683-1118v229H474v562c0 71 29 104 102 104 23 0 73-7 95-13l43 225C647 9 580 16 520 16 296 16 174-96 174-301v-588H20v-229h154v-266h300v266h209" id="N"/><path d="M754 19C571 19 479-89 437-179h-14V0H128v-1490h300v560h9c41-89 129-202 319-202 248 0 453 193 453 575 0 372-197 576-455 576zm-92-241c156 0 240-139 240-336 0-196-83-334-240-334-154 0-241 131-241 334 0 202 88 336 241 336" id="O"/><path d="M572 22C302 22 117-98 78-306l279-48c29 105 101 156 224 156 114 0 185-48 185-115 0-118-228-130-337-155-215-49-322-150-322-317 0-215 187-347 470-347 265 0 424 116 466 298l-266 47c-24-76-87-130-196-130-98 0-174 46-174 113 0 56 38 95 144 117l201 40c216 44 320 143 320 302 0 220-207 367-500 367" id="P"/><g id="g"><use transform="matrix(0.010091145833333334,0,0,0.010091145833333334,0,0)" xlink:href="#M"/><use transform="matrix(0.010091145833333334,0,0,0.010091145833333334,14.9248046875,0)" xlink:href="#C"/><use transform="matrix(0.010091145833333334,0,0,0.010091145833333334,26.923177083333336,0)" xlink:href="#N"/><use transform="matrix(0.010091145833333334,0,0,0.010091145833333334,34.59244791666667,0)" xlink:href="#C"/><use transform="matrix(0.010091145833333334,0,0,0.010091145833333334,46.5908203125,0)" xlink:href="#O"/><use transform="matrix(0.010091145833333334,0,0,0.010091145833333334,59.8203125,0)" xlink:href="#C"/><use transform="matrix(0.010091145833333334,0,0,0.010091145833333334,71.81868489583334,0)" xlink:href="#P"/><use transform="matrix(0.010091145833333334,0,0,0.010091145833333334,83.39322916666667,0)" xlink:href="#E"/></g><g id="h"><use transform="matrix(0.010091145833333334,0,0,0.010091145833333334,0,0)" xlink:href="#B"/><use transform="matrix(0.010091145833333334,0,0,0.010091145833333334,11.685546875,0)" xlink:href="#C"/><use transform="matrix(0.010091145833333334,0,0,0.010091145833333334,23.330729166666668,0)" xlink:href="#D"/><use transform="matrix(0.010091145833333334,0,0,0.010091145833333334,35.399739583333336,0)" xlink:href="#E"/><use transform="matrix(0.010091145833333334,0,0,0.010091145833333334,47.7109375,0)" xlink:href="#F"/></g><path d="M657 26c-323 0-524-166-541-416h195c15 169 171 246 346 246 202 0 356-106 356-265 5-203-294-238-475-293-239-73-380-191-380-389 0-252 224-419 512-419 294 0 499 171 508 396H992c-17-145-151-228-328-228-193 0-321 102-321 242 0 156 175 211 284 241l149 41c160 44 422 134 422 412 0 244-197 432-541 432" id="Q"/><path d="M613 24c-304 0-509-231-509-576 0-350 205-580 509-580 216 0 392 114 453 309l-173 49c-33-115-133-197-280-197-223 0-326 196-326 419 0 220 103 415 326 415 150 0 252-85 285-206l172 49C1010-95 832 24 613 24" id="R"/><path d="M140 405l46-156c120 36 205 19 263-150l32-93L54-1118h197c107 313 237 620 324 950 87-331 219-637 326-950h196L606 167c-68 178-176 259-334 259-64 0-113-12-132-21" id="S"/><path d="M338-1490V0H158v-1490h180" id="T"/><path d="M471 26C259 26 90-98 90-318c0-256 228-303 435-329 202-27 287-16 287-108 0-139-79-219-234-219-161 0-248 86-283 164l-173-57c86-203 278-265 451-265 150 0 419 46 419 395V0H815v-152h-12C765-73 660 26 471 26zm31-159c199 0 310-134 310-271v-155c-30 35-226 55-295 64-131 17-246 59-246 186 0 116 97 176 231 176" id="U"/><path d="M645 0H180v-1490h484c435 0 692 280 692 742 0 466-257 748-711 748zM370-168h263c363 0 539-218 539-580 0-358-176-574-521-574H370v1154" id="V"/><path d="M180 0v-1490h528c311 0 458 177 458 395 0 191-114 278-244 313v14c139 9 302 137 302 371 0 225-148 397-499 397H180zm190-168h350c232 0 321-102 321-231 0-149-120-277-311-277H370v508zm0-668h328c160 0 286-101 286-255 0-129-87-231-280-231H370v486" id="W"/><g id="i"><use transform="matrix(0.010850694444444444,0,0,0.010850694444444444,0,0)" xlink:href="#Q"/><use transform="matrix(0.010850694444444444,0,0,0.010850694444444444,14.2578125,0)" xlink:href="#R"/><use transform="matrix(0.010850694444444444,0,0,0.010850694444444444,26.51909722222222,0)" xlink:href="#S"/><use transform="matrix(0.010850694444444444,0,0,0.010850694444444444,39.11675347222222,0)" xlink:href="#T"/><use transform="matrix(0.010850694444444444,0,0,0.010850694444444444,44.498697916666664,0)" xlink:href="#T"/><use transform="matrix(0.010850694444444444,0,0,0.010850694444444444,49.88064236111111,0)" xlink:href="#U"/><use transform="matrix(0.010850694444444444,0,0,0.010850694444444444,62.35894097222221,0)" xlink:href="#V"/><use transform="matrix(0.010850694444444444,0,0,0.010850694444444444,78.3962673611111,0)" xlink:href="#W"/></g><path d="M783 20c-382 0-661-292-661-764 0-473 279-766 661-766 302 0 548 182 601 489h-190c-42-204-217-313-411-313-268 0-476 208-476 590 0 381 209 588 476 588 195 0 369-110 411-313h190c-52 303-296 489-601 489" id="X"/><path d="M537 14c-226 0-379-139-379-422v-710h180v695c0 172 97 275 253 275 160 0 281-109 281-300v-670h181V0H879v-209C806-46 684 14 537 14" id="Y"/><path d="M538 24C308 24 148-78 108-271l171-41c32 123 123 178 257 178 156 0 256-77 256-169 0-77-54-128-164-154l-186-44c-203-48-300-148-300-305 0-192 176-326 414-326 230 0 351 112 402 269l-163 42c-31-80-94-158-238-158-133 0-233 69-233 162 0 83 57 129 188 160l169 40c203 48 298 149 298 302 0 196-179 339-441 339" id="Z"/><path d="M598-1118v154H368v674c0 100 37 144 132 144 23 0 62-6 92-12L629-6c-37 13-88 20-134 20-193 0-307-107-307-290v-688H20v-154h168v-266h180v266h230" id="aa"/><path d="M628 24c-324 0-524-230-524-574 0-343 198-582 503-582 237 0 487 146 487 559v75H286c9 234 145 362 343 362 132 0 231-58 273-172l174 48C1024-91 857 24 628 24zM287-650h624c-17-190-120-322-304-322-192 0-309 151-320 322" id="ab"/><path d="M158 0v-1118h174v172h12c41-113 157-188 290-188 26 0 70 2 91 3v181c-11-2-60-10-108-10-161 0-279 109-279 260V0H158" id="ac"/><g id="j"><use transform="matrix(0.010850694444444444,0,0,0.010850694444444444,0,0)" xlink:href="#X"/><use transform="matrix(0.010850694444444444,0,0,0.010850694444444444,16.23263888888889,0)" xlink:href="#T"/><use transform="matrix(0.010850694444444444,0,0,0.010850694444444444,21.614583333333336,0)" xlink:href="#Y"/><use transform="matrix(0.010850694444444444,0,0,0.010850694444444444,34.75477430555556,0)" xlink:href="#Z"/><use transform="matrix(0.010850694444444444,0,0,0.010850694444444444,46.484375,0)" xlink:href="#aa"/><use transform="matrix(0.010850694444444444,0,0,0.010850694444444444,53.5373263888889,0)" xlink:href="#ab"/><use transform="matrix(0.010850694444444444,0,0,0.010850694444444444,66.49305555555556,0)" xlink:href="#ac"/></g><g id="k"><use transform="matrix(0.010850694444444444,0,0,0.010850694444444444,0,0)" xlink:href="#V"/><use transform="matrix(0.010850694444444444,0,0,0.010850694444444444,16.03732638888889,0)" xlink:href="#W"/></g><path d="M180 0v-1490h901v168H370v510h643v168H370V0H180" id="ad"/><path d="M338-670V0H158v-1490h180v566c73-149 190-208 336-208 226 0 379 139 379 422V0H872v-695c0-172-96-275-252-275-161 0-282 109-282 300" id="ae"/><g id="l"><use transform="matrix(0.010850694444444444,0,0,0.010850694444444444,0,0)" xlink:href="#ad"/><use transform="matrix(0.010850694444444444,0,0,0.010850694444444444,12.239583333333332,0)" xlink:href="#ab"/><use transform="matrix(0.010850694444444444,0,0,0.010850694444444444,25.1953125,0)" xlink:href="#aa"/><use transform="matrix(0.010850694444444444,0,0,0.010850694444444444,32.248263888888886,0)" xlink:href="#R"/><use transform="matrix(0.010850694444444444,0,0,0.010850694444444444,44.943576388888886,0)" xlink:href="#ae"/></g><path d="M628 22C291 22 81-210 81-554c0-346 210-578 547-578 336 0 547 232 547 578 0 344-211 576-547 576zm0-236c160 0 242-146 242-341 0-197-82-341-242-341S387-753 387-555c0 195 81 341 241 341" id="af"/><g id="m"><use transform="matrix(0.010091145833333334,0,0,0.010091145833333334,0,0)" xlink:href="#z"/><use transform="matrix(0.010091145833333334,0,0,0.010091145833333334,15.429361979166668,0)" xlink:href="#F"/><use transform="matrix(0.010091145833333334,0,0,0.010091145833333334,23.996744791666668,0)" xlink:href="#F"/><use transform="matrix(0.010091145833333334,0,0,0.010091145833333334,31.908203125000004,0)" xlink:href="#af"/><use transform="matrix(0.010091145833333334,0,0,0.010091145833333334,44.209309895833336,0)" xlink:href="#D"/><use transform="matrix(0.010091145833333334,0,0,0.010091145833333334,56.2783203125,0)" xlink:href="#af"/></g><path d="M180 0v-1490h510c348 0 508 209 508 474 0 266-160 477-507 477H370V0H180zm190-706h312c236 0 327-133 327-310 0-176-91-307-329-307H370v617" id="ag"/><path d="M158 0v-1118h180V0H158zm91-1301c-68 0-125-53-125-119s57-119 125-119c69 0 126 53 126 119s-57 119-126 119" id="ah"/><path d="M158 418v-1536h174v179h20c37-59 106-193 324-193 279 0 474 222 474 576 0 356-194 580-473 580-213 0-288-135-325-197h-14v591H158zm492-555c209 0 317-186 317-421 0-232-105-413-317-413-206 0-314 166-314 413 0 249 111 421 314 421" id="ai"/><path d="M338-670V0H158v-1118h173l1 207c72-158 192-221 342-221 226 0 378 139 378 422V0H872v-695c0-172-96-275-252-275-161 0-282 109-282 300" id="aj"/><g id="n"><use transform="matrix(0.010850694444444444,0,0,0.010850694444444444,0,0)" xlink:href="#ag"/><use transform="matrix(0.010850694444444444,0,0,0.010850694444444444,14.192708333333332,0)" xlink:href="#ah"/><use transform="matrix(0.010850694444444444,0,0,0.010850694444444444,19.57465277777778,0)" xlink:href="#ai"/><use transform="matrix(0.010850694444444444,0,0,0.010850694444444444,33.181423611111114,0)" xlink:href="#ab"/><use transform="matrix(0.010850694444444444,0,0,0.010850694444444444,46.13715277777778,0)" xlink:href="#T"/><use transform="matrix(0.010850694444444444,0,0,0.010850694444444444,51.51909722222222,0)" xlink:href="#ah"/><use transform="matrix(0.010850694444444444,0,0,0.010850694444444444,56.901041666666664,0)" xlink:href="#aj"/><use transform="matrix(0.010850694444444444,0,0,0.010850694444444444,70.03038194444444,0)" xlink:href="#ab"/></g><path d="M613 24c-304 0-509-231-509-576 0-350 205-580 509-580 305 0 511 230 511 580 0 345-206 576-511 576zm0-161c226 0 329-195 329-415 0-222-103-419-329-419-223 0-326 196-326 419 0 220 103 415 326 415" id="ak"/><path d="M577 24c-279 0-473-224-473-580 0-354 195-576 474-576 218 0 287 134 324 193h14v-551h180V0H922v-173h-20C865-111 790 24 577 24zm27-161c203 0 314-172 314-421 0-247-108-413-314-413-212 0-317 181-317 413 0 235 108 421 317 421" id="al"/><g id="o"><use transform="matrix(0.010850694444444444,0,0,0.010850694444444444,0,0)" xlink:href="#ag"/><use transform="matrix(0.010850694444444444,0,0,0.010850694444444444,14.073350694444445,0)" xlink:href="#ak"/><use transform="matrix(0.010850694444444444,0,0,0.010850694444444444,27.39800347222222,0)" xlink:href="#al"/><use transform="matrix(0.010850694444444444,0,0,0.010850694444444444,41.00477430555556,0)" xlink:href="#Z"/></g><path d="M600 0L52-1490h200c166 485 304 806 458 1336 156-533 285-846 449-1336h202L819 0H600" id="am"/><path d="M158 0v-1490h180v865h22l478-493h223L593-638 1096 0H865L456-523 338-412V0H158" id="an"/><g id="p"><use transform="matrix(0.010850694444444444,0,0,0.010850694444444444,0,0)" xlink:href="#am"/><use transform="matrix(0.010850694444444444,0,0,0.010850694444444444,14.20355902777778,0)" xlink:href="#U"/><use transform="matrix(0.010850694444444444,0,0,0.010850694444444444,26.68185763888889,0)" xlink:href="#T"/><use transform="matrix(0.010850694444444444,0,0,0.010850694444444444,32.063802083333336,0)" xlink:href="#an"/><use transform="matrix(0.010850694444444444,0,0,0.010850694444444444,43.76085069444445,0)" xlink:href="#ab"/><use transform="matrix(0.010850694444444444,0,0,0.010850694444444444,56.28255208333333,0)" xlink:href="#S"/></g><path d="M789 20c-398 0-667-293-667-764 0-473 273-766 655-766 315 0 558 198 612 487h-196c-61-191-204-311-415-311-262 0-471 207-471 590 0 380 208 588 482 588 249 0 420-165 425-427H828v-166h572v163c0 370-256 606-611 606" id="ao"/><g id="q"><use transform="matrix(0.010850694444444444,0,0,0.010850694444444444,0,0)" xlink:href="#ao"/><use transform="matrix(0.010850694444444444,0,0,0.010850694444444444,16.57986111111111,0)" xlink:href="#ak"/><use transform="matrix(0.010850694444444444,0,0,0.010850694444444444,29.90451388888889,0)" xlink:href="#ac"/><use transform="matrix(0.010850694444444444,0,0,0.010850694444444444,37.90147569444444,0)" xlink:href="#ak"/><use transform="matrix(0.010850694444444444,0,0,0.010850694444444444,51.22612847222222,0)" xlink:href="#Y"/><use transform="matrix(0.010850694444444444,0,0,0.010850694444444444,64.36631944444444,0)" xlink:href="#aa"/><use transform="matrix(0.010850694444444444,0,0,0.010850694444444444,71.63628472222221,0)" xlink:href="#ah"/><use transform="matrix(0.010850694444444444,0,0,0.010850694444444444,77.01822916666666,0)" xlink:href="#aj"/><use transform="matrix(0.010850694444444444,0,0,0.010850694444444444,90.14756944444441,0)" xlink:href="#ab"/></g><path d="M52 0l541-1490h220L1361 0h-200l-149-416H398L254 0H52zm404-582h497c-103-290-145-390-251-756-108 377-145 460-246 756" id="ap"/><path d="M370-1490V0H180v-1490h190" id="aq"/><g id="r"><use transform="matrix(0.010850694444444444,0,0,0.010850694444444444,0,0)" xlink:href="#ap"/><use transform="matrix(0.010850694444444444,0,0,0.010850694444444444,15.33203125,0)" xlink:href="#ag"/><use transform="matrix(0.010850694444444444,0,0,0.010850694444444444,29.524739583333332,0)" xlink:href="#aq"/></g><path d="M409 0L70-1118h191c89 329 165 560 243 925 75-353 154-601 240-925h192c85 325 161 564 235 922 77-354 157-598 244-922h191L1267 0h-179c-86-307-176-590-250-913C763-588 675-308 588 0H409" id="ar"/><g id="s"><use transform="matrix(0.010850694444444444,0,0,0.010850694444444444,0,0)" xlink:href="#ao"/><use transform="matrix(0.010850694444444444,0,0,0.010850694444444444,16.57986111111111,0)" xlink:href="#U"/><use transform="matrix(0.010850694444444444,0,0,0.010850694444444444,29.05815972222222,0)" xlink:href="#aa"/><use transform="matrix(0.010850694444444444,0,0,0.010850694444444444,36.11111111111111,0)" xlink:href="#ab"/><use transform="matrix(0.010850694444444444,0,0,0.010850694444444444,48.66536458333333,0)" xlink:href="#ar"/><use transform="matrix(0.010850694444444444,0,0,0.010850694444444444,66.85112847222221,0)" xlink:href="#U"/><use transform="matrix(0.010850694444444444,0,0,0.010850694444444444,79.00390625,0)" xlink:href="#S"/></g><path d="M763 24c-353 0-583-224-583-531v-983h190v968c0 214 149 370 393 370 243 0 391-156 391-370v-968h190v983c0 307-230 531-581 531" id="as"/><g id="t"><use transform="matrix(0.010850694444444444,0,0,0.010850694444444444,0,0)" xlink:href="#as"/><use transform="matrix(0.010850694444444444,0,0,0.010850694444444444,16.536458333333332,0)" xlink:href="#Z"/><use transform="matrix(0.010850694444444444,0,0,0.010850694444444444,28.266059027777775,0)" xlink:href="#ab"/><use transform="matrix(0.010850694444444444,0,0,0.010850694444444444,41.22178819444444,0)" xlink:href="#ac"/></g><g id="u"><use transform="matrix(0.010850694444444444,0,0,0.010850694444444444,0,0)" xlink:href="#ap"/><use transform="matrix(0.010850694444444444,0,0,0.010850694444444444,15.33203125,0)" xlink:href="#R"/><use transform="matrix(0.010850694444444444,0,0,0.010850694444444444,28.02734375,0)" xlink:href="#aa"/><use transform="matrix(0.010850694444444444,0,0,0.010850694444444444,35.29730902777778,0)" xlink:href="#ah"/><use transform="matrix(0.010850694444444444,0,0,0.010850694444444444,40.67925347222222,0)" xlink:href="#ak"/><use transform="matrix(0.010850694444444444,0,0,0.010850694444444444,54.00390625,0)" xlink:href="#aj"/><use transform="matrix(0.010850694444444444,0,0,0.010850694444444444,67.13324652777777,0)" xlink:href="#Z"/></g><g id="v"><use transform="matrix(0.010850694444444444,0,0,0.010850694444444444,0,0)" xlink:href="#X"/><use transform="matrix(0.010850694444444444,0,0,0.010850694444444444,16.23263888888889,0)" xlink:href="#U"/><use transform="matrix(0.010850694444444444,0,0,0.010850694444444444,28.7109375,0)" xlink:href="#R"/><use transform="matrix(0.010850694444444444,0,0,0.010850694444444444,41.40625,0)" xlink:href="#ae"/><use transform="matrix(0.010850694444444444,0,0,0.010850694444444444,54.54644097222222,0)" xlink:href="#ab"/></g><g id="w"><use transform="matrix(0.010850694444444444,0,0,0.010850694444444444,0,0)" xlink:href="#Q"/><use transform="matrix(0.010850694444444444,0,0,0.010850694444444444,14.2578125,0)" xlink:href="#aa"/><use transform="matrix(0.010850694444444444,0,0,0.010850694444444444,21.31076388888889,0)" xlink:href="#ak"/><use transform="matrix(0.010850694444444444,0,0,0.010850694444444444,34.635416666666664,0)" xlink:href="#ac"/><use transform="matrix(0.010850694444444444,0,0,0.010850694444444444,42.632378472222214,0)" xlink:href="#ab"/></g></defs></g></svg>