<svg xmlns="http://www.w3.org/2000/svg" xmlns:xlink="http://www.w3.org/1999/xlink" xmlns:lucid="lucid" width="1624" height="861"><g transform="translate(2366 -511)" lucid:page-tab-id="0_0"><path d="M-1800 966.86a6 6 0 0 1 6-6h388a6 6 0 0 1 6 6v385a6 6 0 0 1-6 6h-388a6 6 0 0 1-6-6z" stroke="#9391ff" stroke-width="2" fill="#dedeff"/><path d="M-1800 1001.87h400" stroke="#9391ff" stroke-width="2" fill="none"/><use xlink:href="#a" transform="matrix(1,0,0,1,-1792,968.8600000000004) translate(157.52360026041666 20.517903645833336)"/><path d="M-1522.22 1028.86c22.1 0 40 17.9 40 40s-17.9 40-40 40h-160c-22.1 0-40-17.9-40-40s17.9-40 40-40z" stroke="#000" stroke-width="2" fill-opacity="0"/><use xlink:href="#b" transform="matrix(1,0,0,1,-1717.2196584361013,1033.8600000000001) translate(44.01475694444444 43.71527777777778)"/><use xlink:href="#c" transform="matrix(1,0,0,1,-1717.2196584361013,1033.8600000000001) translate(133.25086805555554 43.71527777777778)"/><path d="M-1522.22 1144.86c22.1 0 40 17.9 40 40s-17.9 40-40 40h-160c-22.1 0-40-17.9-40-40s17.9-40 40-40z" stroke="#000" stroke-width="2" fill-opacity="0"/><use xlink:href="#b" transform="matrix(1,0,0,1,-1717.2196584361013,1149.8600000000001) translate(44.01475694444444 43.71527777777778)"/><use xlink:href="#c" transform="matrix(1,0,0,1,-1717.2196584361013,1149.8600000000001) translate(133.25086805555554 43.71527777777778)"/><path d="M-1522.22 1260.86c22.1 0 40 17.9 40 40s-17.9 40-40 40h-160c-22.1 0-40-17.9-40-40s17.9-40 40-40z" stroke="#000" stroke-width="2" fill-opacity="0"/><use xlink:href="#b" transform="matrix(1,0,0,1,-1717.2196584361013,1265.8600000000004) translate(44.01475694444444 43.71527777777778)"/><use xlink:href="#c" transform="matrix(1,0,0,1,-1717.2196584361013,1265.8600000000004) translate(133.25086805555554 43.71527777777778)"/><path d="M-2320 966.86a6 6 0 0 1 6-6h388a6 6 0 0 1 6 6v228a6 6 0 0 1-6 6h-388a6 6 0 0 1-6-6z" stroke="#979ea8" stroke-width="2" fill="#ced4db"/><path d="M-2320 1001.87h400" stroke="#979ea8" stroke-width="2" fill="none"/><use xlink:href="#d" transform="matrix(1,0,0,1,-2312,968.8600000000004) translate(162.46321614583334 20.517903645833336)"/><path d="M-2174 1040.86c7.73 0 14 26.86 14 60s-6.27 60-14 60h-112c-7.73 0-14-26.86-14-60s6.27-60 14-60z" stroke="#000" stroke-width="2" fill-opacity="0"/><path d="M-2174 1160.86c-7.73 0-14-26.86-14-60s6.27-60 14-60" stroke="#000" stroke-width="2" fill="none"/><use xlink:href="#e" transform="matrix(1,0,0,1,-2295,1045.8600000000004) translate(16.32660590277778 62.77777777777778)"/><path d="M-1954 1040.86c7.73 0 14 26.86 14 60s-6.27 60-14 60h-112c-7.73 0-14-26.86-14-60s6.27-60 14-60z" stroke="#000" stroke-width="2" fill-opacity="0"/><path d="M-1954 1160.86c-7.73 0-14-26.86-14-60s6.27-60 14-60" stroke="#000" stroke-width="2" fill="none"/><use xlink:href="#e" transform="matrix(1,0,0,1,-2075,1045.8600000000004) translate(16.32660590277778 62.77777777777778)"/><path d="M-1938.5 1100.85l19.6-.4 16.05-1 13.5-1.4 12.05-1.78 11.5-2.2 12.46-2.92 56.9-15.5 11.52-2.2 12.04-1.77 13.52-1.42 16.04-1 3.72-.07" stroke="#333" stroke-linejoin="round" fill="none"/><path d="M-1938.47 1101.33h-.55l.02-.47-.02-.47.53-.03z" stroke="#333" stroke-width=".05" fill="#333"/><path d="M-1724.84 1068.9l-14.17 4.9-.2-9.26z" stroke="#333" fill="#333"/><path d="M-1938.5 1100.87l7.77.16 7.52.47 6.9.72 6.4.95 6 1.14 5.7 1.35 5.44 1.52 5.28 1.7 5.17 1.94 5.13 2.17 5.2 2.44 5.35 2.8 5.72 3.32 6.43 4.1 8.15 5.66 38.57 28.83 6.43 4.1 5.72 3.3 5.36 2.8 5.2 2.45 5.13 2.16 5.16 1.94 5.28 1.7 5.44 1.53 5.7 1.34 6 1.15 6.4.94 6.34.66" stroke="#333" stroke-linejoin="round" fill="none"/><path d="M-1938.47 1100.4l-.02.94h-.52l.02-.48-.02-.48z" stroke="#333" stroke-width=".05" fill="#333"/><path d="M-1724.84 1184.8l-14.45 4 .4-9.25z" stroke="#333" fill="#333"/><path d="M-2158.58 1101.15l27.24 18.9 30.7 23.28 103.43 84 15.2 10.55 13.38 8.47 12.56 7.24 12.25 6.37 12.3 5.78 12.64 5.3 13.25 4.9 14.12 4.57 15.34 4.26 16.96 3.95 19.1 3.6 21.95 3.22 25.83 2.66 31.25 1.92 21.45.42" stroke="#333" stroke-linejoin="round" fill="none"/><path d="M-2158.3 1100.77l-.54.78-.18-.13.02-.56-.02-.6z" stroke="#333" stroke-width=".05" fill="#333"/><path d="M-1724.84 1300.83l-14.35 4.35.2-9.27z" stroke="#333" fill="#333"/><path d="M-2020 566a6 6 0 0 1 6-6h348a6 6 0 0 1 6 6v188a6 6 0 0 1-6 6h-348a6 6 0 0 1-6-6z" stroke="#00c2a8" stroke-width="2" fill="#d7faf5"/><path d="M-2020 601h360" stroke="#00c2a8" stroke-width="2" fill="none"/><use xlink:href="#f" transform="matrix(1,0,0,1,-2012,568) translate(140.98486328125 20.517903645833336)"/><path d="M-1768.9 640c22.1 0 40 17.9 40 40s-17.9 40-40 40h-142.2c-22.1 0-40-17.9-40-40s17.9-40 40-40z" stroke="#000" stroke-width="2" fill-opacity="0"/><use xlink:href="#g" transform="matrix(1,0,0,1,-1946.109829218051,645) translate(3.1362847222222285 43.40277777777778)"/><use xlink:href="#h" transform="matrix(1,0,0,1,-1946.109829218051,645) translate(74.47960069444446 43.40277777777778)"/><use xlink:href="#i" transform="matrix(1,0,0,1,-1946.109829218051,645) translate(141.03776041666669 43.40277777777778)"/><path d="M-1952.62 680l-10.95.24-11.04.7-10.67 1.1-10.34 1.54-10.05 1.9-9.77 2.3-9.53 2.67-9.33 3.03-9.14 3.4-8.97 3.77-8.8 4.15-8.7 4.54-8.57 4.95-8.47 5.37-8.38 5.82-8.28 6.28-8.2 6.8-8.14 7.3-8.05 7.9-7.95 8.48-7.9 9.13-7.77 9.8-7.66 10.57-7.53 11.33-7.36 12.15-7.16 13.02-6.9 13.93-6.62 14.86-6.26 15.8-5.83 16.77-5.34 17.7-4.78 18.6-4.12 19.43-3.4 20.17-2.63 20.77-1.8 21.23-.65 15.95" stroke="#333" stroke-linejoin="round" fill="none"/><path d="M-1952.1 680v.48h-.52l-.02-.94.56-.02z" stroke="#333" stroke-width=".05" fill="#333"/><path d="M-2229.97 1038.24l-4.33-14.36 9.27.2z" stroke="#333" fill="#333"/><path d="M-1840 721.5l-.2 8.55-.52 8.43-.83 7.9-1.1 7.5-1.36 7.12-1.6 6.82-1.85 6.6-2.08 6.4-2.33 6.28-2.6 6.2-2.9 6.15-3.24 6.18-3.62 6.27-4.1 6.45-4.7 6.74-5.46 7.2-6.6 7.98-8.5 9.4-12.82 13.05-50.03 48.45-8.48 9.4-6.62 7.98-5.47 7.2-4.68 6.75-4.1 6.46-3.62 6.27-3.23 6.18-2.9 6.17-2.6 6.2-2.34 6.27-2.08 6.4-1.84 6.6-1.6 6.82-1.35 7.13-1.1 7.47-.83 7.9-.07 1.12" stroke="#333" stroke-linejoin="round" fill="none"/><path d="M-1839.54 721.53l-.95-.02.03-.5h.94z" stroke="#333" stroke-width=".05" fill="#333"/><path d="M-2009.94 1038.24l-4.07-14.43 9.26.37z" stroke="#333" fill="#333"/><path d="M-1280 966.86a6 6 0 0 1 6-6h468a6 6 0 0 1 6 6v306a6 6 0 0 1-6 6h-468a6 6 0 0 1-6-6z" stroke="#6db1ff" stroke-width="2" fill="#edf5ff"/><path d="M-1280 1001.87h480" stroke="#6db1ff" stroke-width="2" fill="none"/><use xlink:href="#j" transform="matrix(1,0,0,1,-1272,968.8600000000004) translate(153.63720703125 20.517903645833336)"/><use xlink:href="#k" transform="matrix(1,0,0,1,-1272,968.8600000000004) translate(254.23583984375 20.517903645833336)"/><path d="M-1160 1022.86a6 6 0 0 1 6-6h228a6 6 0 0 1 6 6v228a6 6 0 0 1-6 6h-228a6 6 0 0 1-6-6z" fill-opacity="0"/><path d="M-1141.8 1016.86h8.16m8.14 0h8.14m8.15 0h8.13m8.14 0h8.14m8.16 0h8.14m8.14 0h8.15m8.13 0h8.14m8.14 0h8.16m8.14 0h8.14m8.15 0h8.13m8.14 0h8.14m8.16 0h8.14m8.14 0h8.15m8.13 0h4.07a6 6 0 0 1 6 6v4.07m0 8.14v8.15m0 8.14v8.14m0 8.15v8.14m0 8.13v8.14m0 8.15v8.14m0 8.14v8.15m0 8.14v8.13m0 8.14v8.15m0 8.14v8.14m0 8.15v8.14m0 8.13v8.14m0 8.15v8.14m0 8.14v8.15m0 8.14v4.06a6 6 0 0 1-6 6h-4.07m-8.14 0h-8.16m-8.14 0h-8.14m-8.15 0h-8.13m-8.14 0h-8.14m-8.16 0h-8.14m-8.14 0h-8.15m-8.13 0h-8.14m-8.14 0h-8.16m-8.14 0h-8.14m-8.15 0h-8.13m-8.14 0h-8.14m-8.16 0h-8.14m-8.14 0h-8.15m-8.13 0h-4.07a6 6 0 0 1-6-6v-4.07m0-8.15v-8.15m0-8.14v-8.14m0-8.15v-8.14m0-8.14v-8.15m0-8.15v-8.14m0-8.14v-8.15m0-8.14v-8.14m0-8.15v-8.15m0-8.14v-8.14m0-8.15v-8.14m0-8.14v-8.15m0-8.15v-8.14m0-8.14v-8.15m0-8.14v-4.07a6 6 0 0 1 6-6h4.07" stroke="#000" stroke-width="2" fill="none"/><use xlink:href="#l" transform="matrix(1,0,0,1,-1155,1021.8600000000004) translate(27.977430555555557 228.04937777777778)"/><use xlink:href="#m" transform="matrix(1,0,0,1,-1155,1021.8600000000004) translate(127.16362847222221 228.04937777777778)"/><path d="M-1073.52 1069.72c0 18.15-14.02 32.86-31.3 32.86-17.3 0-31.3-14.7-31.3-32.86 0-18.15 14-32.86 31.3-32.86 17.28 0 31.3 14.7 31.3 32.86zM-1010.9 1189.72c0 18.15-14.03 32.86-31.32 32.86-17.3 0-31.3-14.7-31.3-32.86 0-18.15 14-32.86 31.3-32.86s31.3 14.7 31.3 32.86zM-937.4 1069.72c0 18.15-14 32.86-31.3 32.86-17.28 0-31.3-14.7-31.3-32.86 0-18.15 14-32.86 31.3-32.86s31.3 14.7 31.3 32.86z" stroke="#000" stroke-width="2" fill-opacity="0"/><path d="M-1015.67 1182.23l-.04-.07-.3-.56-.3-.63-.28-.73-.26-.85-.24-1-.2-1.2-.17-1.4-.08-1.76.04-2.17.23-2.74.5-3.5.95-4.5 1.58-5.7 2.43-7.02 3.3-7.94 3.97-8.02 4.1-7.12 3.76-5.7 3.24-4.27 2.7-3.13 1-1.02m26.8-.13l.03.07.3.56.3.63.27.73.26.85.24 1 .2 1.2.17 1.42.08 1.74-.04 2.17-.22 2.74-.5 3.5-.95 4.5-1.57 5.7-2.43 7.02-3.32 7.94-3.97 8.02-4.07 7.12-3.77 5.7-3.24 4.27-2.7 3.13-1 1.02M-1015.67 1182.22l.26.44" stroke="#82755b" fill="none"/><path d="M-978.5 1104.26l-7.1 13.2-7.88-12.76z" stroke="#82755b" fill="#82755b"/><path d="M-962.53 1110.83l-.8.5-.28-.44.8-.5z" stroke="#82755b" stroke-width=".05" fill="#82755b"/><path d="M-1000.12 1189.04l7.12-13.2 7.87 12.76z" stroke="#82755b" fill="#82755b"/><path d="M-1095.88 1178.54l-.17-.22-2.32-3.43-2.67-4.57-2.96-5.86-3.02-7.07-2.72-7.7-2.13-7.44-1.42-6.5-.8-5.33-.36-4.2-.08-3.3.1-2.6.22-2.07.28-1.67.32-1.37.34-1.14.36-.96.36-.8.37-.7.38-.6.37-.53.1-.1m27.88 4.36l.17.22 2.32 3.43 2.67 4.57 2.95 5.86 3 7.07 2.74 7.7 2.1 7.44 1.43 6.5.8 5.33.38 4.2.1 3.3-.1 2.6-.23 2.07-.28 1.67-.33 1.37-.35 1.14-.35.96-.37.8-.36.7-.37.6-.37.53-.1.1" stroke="#82755b" fill="none"/><path d="M-1084.66 1187.6l-14-5.36 5.8-7.2z" stroke="#82755b" fill="#82755b"/><path d="M-1110.7 1110.32l-.32.4-.72-.63.33-.4z" stroke="#82755b" stroke-width=".05" fill="#82755b"/><path d="M-1094.7 1105.7l14.02 5.36-5.8 7.22z" stroke="#82755b" fill="#82755b"/><path d="M-1067.97 1182.9l-.34.4M-1068.3 1061.27l.14-.3.45-.74.54-.77.66-.8.8-.8 1-.88 1.22-.9 1.53-.96 1.92-1 2.44-1.03 3.1-1.05 3.9-.97 4.76-.8 5.5-.47 5.83-.05 5.6.4 4.95.73 4.1.94 1.92.6m12.7 25.75l-.14.3-.45.74-.54.78-.66.8-.8.8-1 .88-1.23.9-1.52.96-1.93 1-2.44 1.04-3.1 1.03-3.9.96-4.75.8-5.48.47-5.83.06-5.63-.4-4.95-.74-4.1-.94-1.92-.6" stroke="#82755b" fill="none"/><path d="M-1067.87 1061.47l-.23.46-.85-.42.23-.45z" stroke="#82755b" stroke-width=".05" fill="#82755b"/><path d="M-1006.3 1060.78l-14.3-4.57 5.4-7.52z" stroke="#82755b" fill="#82755b"/><path d="M-1004.58 1077.93l-.22.46-.85-.43.22-.46z" stroke="#82755b" stroke-width=".05" fill="#82755b"/><path d="M-1067.2 1078.66l14.28 4.57-5.4 7.53z" stroke="#82755b" fill="#82755b"/><path d="M-1480.7 1068.86l327.18.82" stroke="#333" stroke-linejoin="round" fill="none"/><path d="M-1480.7 1068.4v.94h-.55l.03-.47-.02-.48z" stroke="#333" stroke-width=".05" fill="#333"/><path d="M-1138.75 1069.72l-14.28 4.6.02-9.27z" stroke="#333" fill="#333"/><path d="M-1480.7 1184.85l14.7-.3 13.63-.86 12.36-1.3 11.35-1.68 10.6-2 9.97-2.35 9.55-2.67 9.26-3 9.14-3.4 9.23-3.9 9.58-4.5 10.43-5.46 12.42-7.18 21.53-13.78 37.08-24.16 12.4-7.18 10.43-5.46 9.6-4.5 9.2-3.9 9.16-3.4 9.26-3 9.55-2.67 9.98-2.33 10.6-2 11.36-1.7 12.36-1.3 12.47-.76" stroke="#333" stroke-linejoin="round" fill="none"/><path d="M-1480.7 1185.32l-.55.02.03-.47-.02-.48.53-.03z" stroke="#333" stroke-width=".05" fill="#333"/><path d="M-1138.75 1069.76l-14.15 4.97-.22-9.27z" stroke="#333" fill="#333"/><path d="M-1480.7 1300.85l39.16-.78 30.22-1.88 24.45-2.56 20.8-3.06 18.53-3.53 17.25-4.04 16.96-4.73 17.9-5.83 21.74-8.1 145.32-59.47 38.18-12.4" stroke="#333" stroke-linejoin="round" fill="none"/><path d="M-1480.7 1301.33h-.55l.03-.46-.02-.48.53-.03z" stroke="#333" stroke-width=".05" fill="#333"/><path d="M-1076.07 1190.2l-12.3 8.57-2.7-8.87z" stroke="#333" fill="#333"/><path d="M-1440 566a6 6 0 0 1 6-6h348a6 6 0 0 1 6 6v188a6 6 0 0 1-6 6h-348a6 6 0 0 1-6-6z" stroke="#cbc2a3" stroke-width="2" fill="#e8e2c8"/><path d="M-1440 601h360" stroke="#cbc2a3" stroke-width="2" fill="none"/><g><use xlink:href="#n" transform="matrix(1,0,0,1,-1432,568) translate(118.19401041666666 20.517903645833336)"/><use xlink:href="#o" transform="matrix(1,0,0,1,-1432,568) translate(169.67903645833331 20.517903645833336)"/></g><path d="M-1188.9 640c22.1 0 40 17.9 40 40s-17.9 40-40 40h-142.2c-22.1 0-40-17.9-40-40s17.9-40 40-40z" stroke="#000" stroke-width="2" fill-opacity="0"/><g><use xlink:href="#p" transform="matrix(1,0,0,1,-1366.1098292180504,645) translate(35.40625 43.40277777777778)"/><use xlink:href="#q" transform="matrix(1,0,0,1,-1366.1098292180504,645) translate(92.10112847222221 43.40277777777778)"/></g><path d="M-1372.62 680h-338.9" stroke="#333" stroke-linejoin="round" fill="none"/><path d="M-1372.1 680v.48h-.53v-.96h.55z" stroke="#333" stroke-width=".05" fill="#333"/><path d="M-1726.27 680l14.26-4.63v9.26z" stroke="#333" fill="#333"/><defs><path d="M49 0l509-1490h400L1480 0h-339l-115-346H497L386 0H49zm524-585h374c-75-213-124-402-192-666-66 268-110 453-182 666" id="r"/><path d="M128 0v-1118h290v195h12c54-169 184-238 367-200v268c-27-8-86-15-130-15-138 0-239 95-239 234V0H128" id="s"/><path d="M628 22C291 22 81-210 81-554c0-346 210-578 547-578 336 0 547 232 547 578 0 344-211 576-547 576zm0-236c160 0 242-146 242-341 0-197-82-341-242-341S387-753 387-555c0 195 81 341 241 341" id="t"/><path d="M120 396l69-226c123 42 245 23 254-107l8-60L31-1118h319c87 288 199 559 259 872 72-308 185-583 277-872h315L726 132c-68 181-186 294-410 294-79 0-153-13-196-30" id="u"/><g id="a"><use transform="matrix(0.010091145833333334,0,0,0.010091145833333334,0,0)" xlink:href="#r"/><use transform="matrix(0.010091145833333334,0,0,0.010091145833333334,15.429361979166668,0)" xlink:href="#s"/><use transform="matrix(0.010091145833333334,0,0,0.010091145833333334,23.996744791666668,0)" xlink:href="#s"/><use transform="matrix(0.010091145833333334,0,0,0.010091145833333334,31.908203125000004,0)" xlink:href="#t"/><use transform="matrix(0.010091145833333334,0,0,0.010091145833333334,44.209309895833336,0)" xlink:href="#u"/><use transform="matrix(0.010091145833333334,0,0,0.010091145833333334,56.2783203125,0)" xlink:href="#t"/></g><path d="M180 0v-1490h510c348 0 508 209 508 474 0 266-160 477-507 477H370V0H180zm190-706h312c236 0 327-133 327-310 0-176-91-307-329-307H370v617" id="v"/><path d="M158 0v-1118h180V0H158zm91-1301c-68 0-125-53-125-119s57-119 125-119c69 0 126 53 126 119s-57 119-126 119" id="w"/><path d="M158 418v-1536h174v179h20c37-59 106-193 324-193 279 0 474 222 474 576 0 356-194 580-473 580-213 0-288-135-325-197h-14v591H158zm492-555c209 0 317-186 317-421 0-232-105-413-317-413-206 0-314 166-314 413 0 249 111 421 314 421" id="x"/><path d="M628 24c-324 0-524-230-524-574 0-343 198-582 503-582 237 0 487 146 487 559v75H286c9 234 145 362 343 362 132 0 231-58 273-172l174 48C1024-91 857 24 628 24zM287-650h624c-17-190-120-322-304-322-192 0-309 151-320 322" id="y"/><path d="M338-1490V0H158v-1490h180" id="z"/><path d="M338-670V0H158v-1118h173l1 207c72-158 192-221 342-221 226 0 378 139 378 422V0H872v-695c0-172-96-275-252-275-161 0-282 109-282 300" id="A"/><g id="b"><use transform="matrix(0.010850694444444444,0,0,0.010850694444444444,0,0)" xlink:href="#v"/><use transform="matrix(0.010850694444444444,0,0,0.010850694444444444,14.192708333333332,0)" xlink:href="#w"/><use transform="matrix(0.010850694444444444,0,0,0.010850694444444444,19.57465277777778,0)" xlink:href="#x"/><use transform="matrix(0.010850694444444444,0,0,0.010850694444444444,33.181423611111114,0)" xlink:href="#y"/><use transform="matrix(0.010850694444444444,0,0,0.010850694444444444,46.13715277777778,0)" xlink:href="#z"/><use transform="matrix(0.010850694444444444,0,0,0.010850694444444444,51.51909722222222,0)" xlink:href="#w"/><use transform="matrix(0.010850694444444444,0,0,0.010850694444444444,56.901041666666664,0)" xlink:href="#A"/><use transform="matrix(0.010850694444444444,0,0,0.010850694444444444,70.03038194444444,0)" xlink:href="#y"/></g><path d="M613 24c-304 0-509-231-509-576 0-350 205-580 509-580 305 0 511 230 511 580 0 345-206 576-511 576zm0-161c226 0 329-195 329-415 0-222-103-419-329-419-223 0-326 196-326 419 0 220 103 415 326 415" id="B"/><path d="M577 24c-279 0-473-224-473-580 0-354 195-576 474-576 218 0 287 134 324 193h14v-551h180V0H922v-173h-20C865-111 790 24 577 24zm27-161c203 0 314-172 314-421 0-247-108-413-314-413-212 0-317 181-317 413 0 235 108 421 317 421" id="C"/><path d="M538 24C308 24 148-78 108-271l171-41c32 123 123 178 257 178 156 0 256-77 256-169 0-77-54-128-164-154l-186-44c-203-48-300-148-300-305 0-192 176-326 414-326 230 0 351 112 402 269l-163 42c-31-80-94-158-238-158-133 0-233 69-233 162 0 83 57 129 188 160l169 40c203 48 298 149 298 302 0 196-179 339-441 339" id="D"/><g id="c"><use transform="matrix(0.010850694444444444,0,0,0.010850694444444444,0,0)" xlink:href="#v"/><use transform="matrix(0.010850694444444444,0,0,0.010850694444444444,14.073350694444445,0)" xlink:href="#B"/><use transform="matrix(0.010850694444444444,0,0,0.010850694444444444,27.39800347222222,0)" xlink:href="#C"/><use transform="matrix(0.010850694444444444,0,0,0.010850694444444444,41.00477430555556,0)" xlink:href="#D"/></g><path d="M135 0v-1490h305c1 251 0 501-5 746 157-254 405-512 598-746h373L849-845 1422 0h-361L638-644 440-426V0H135" id="E"/><path d="M440 22C227 22 68-92 68-313c0-250 202-322 422-343 195-21 271-24 271-105 0-95-63-149-175-149-116 0-187 57-211 129l-275-46c57-194 237-305 487-305 240 0 474 108 474 379V0H777v-155h-10C713-51 605 22 440 22zm85-211c140 0 238-93 238-211v-121c-37 26-156 42-222 51-111 16-185 59-185 149 0 87 70 132 169 132" id="F"/><path d="M750-1118v229H516V0H217v-889H20v-229h197v-86c0-238 156-356 363-356 94 0 178 20 215 31l-54 226c-25-7-61-15-100-15-123-3-131 84-125 200h234" id="G"/><path d="M128 0v-1490h300v802h17l366-430h347L740-633 1179 0H826L514-456l-86 97V0H128" id="H"/><g id="d"><use transform="matrix(0.010091145833333334,0,0,0.010091145833333334,0,0)" xlink:href="#E"/><use transform="matrix(0.010091145833333334,0,0,0.010091145833333334,14.8642578125,0)" xlink:href="#F"/><use transform="matrix(0.010091145833333334,0,0,0.010091145833333334,26.862630208333336,0)" xlink:href="#G"/><use transform="matrix(0.010091145833333334,0,0,0.010091145833333334,35.0869140625,0)" xlink:href="#H"/><use transform="matrix(0.010091145833333334,0,0,0.010091145833333334,47.0751953125,0)" xlink:href="#F"/></g><path d="M98-1322v-168h1126v168H757V0H567v-1322H98" id="I"/><path d="M613 24c-304 0-509-231-509-576 0-350 205-580 509-580 216 0 392 114 453 309l-173 49c-33-115-133-197-280-197-223 0-326 196-326 419 0 220 103 415 326 415 150 0 252-85 285-206l172 49C1010-95 832 24 613 24" id="J"/><g id="e"><use transform="matrix(0.010850694444444444,0,0,0.010850694444444444,0,0)" xlink:href="#I"/><use transform="matrix(0.010850694444444444,0,0,0.010850694444444444,12.608506944444445,0)" xlink:href="#B"/><use transform="matrix(0.010850694444444444,0,0,0.010850694444444444,25.93315972222222,0)" xlink:href="#x"/><use transform="matrix(0.010850694444444444,0,0,0.010850694444444444,39.53993055555556,0)" xlink:href="#w"/><use transform="matrix(0.010850694444444444,0,0,0.010850694444444444,44.921875,0)" xlink:href="#J"/><use transform="matrix(0.010850694444444444,0,0,0.010850694444444444,57.6171875,0)" xlink:href="#D"/></g><path d="M135 0v-1490h997v253H440v360h640v249H440v375h694V0H135" id="K"/><path d="M135 0v-1490h468l242 684c30 94 76 293 111 455 34-161 80-360 110-455l238-684h470V0h-307c0-447-3-765 11-1227-122 503-246 788-395 1227H826C676-435 552-717 427-1215c15 453 11 775 11 1215H135" id="L"/><path d="M789 20C394 20 94-260 94-744c0-487 300-766 695-766s695 279 695 766c0 264-89 467-233 597l215 271h-285L1058-29C976 3 886 20 789 20zm-94-532h261l108 139c70-83 110-208 110-371 0-321-154-495-385-495s-385 175-385 495c0 356 184 537 481 482" id="M"/><path d="M51 0l535-762-487-728h354c99 152 240 357 306 516 68-159 211-365 312-516h346L934-771 1461 0h-362C993-164 838-379 756-546 674-378 513-163 404 0H51" id="N"/><g id="f"><use transform="matrix(0.010091145833333334,0,0,0.010091145833333334,0,0)" xlink:href="#K"/><use transform="matrix(0.010091145833333334,0,0,0.010091145833333334,12.553385416666668,0)" xlink:href="#L"/><use transform="matrix(0.010091145833333334,0,0,0.010091145833333334,31.807291666666668,0)" xlink:href="#M"/><use transform="matrix(0.010091145833333334,0,0,0.010091145833333334,46.7724609375,0)" xlink:href="#N"/></g><path d="M180 0v-1490h270l367 940c28 72 75 218 110 339 35-117 81-264 110-339l362-940h271V0h-187c2-448-5-837 7-1287-157 497-311 829-483 1287H842C666-458 514-784 354-1284c12 438 5 843 7 1284H180" id="O"/><path d="M784 20c-382 0-662-292-662-764 0-473 280-766 662-766s660 293 660 766c0 282-99 499-260 629l192 255h-198L1049-33C969 2 880 20 784 20zm-62-486h198l156 205c112-98 183-261 183-483 0-383-209-590-475-590-268 0-477 208-477 590 0 380 209 588 477 588 54 0 106-9 154-25" id="P"/><g id="g"><use transform="matrix(0.010850694444444444,0,0,0.010850694444444444,0,0)" xlink:href="#O"/><use transform="matrix(0.010850694444444444,0,0,0.010850694444444444,20.07378472222222,0)" xlink:href="#P"/><use transform="matrix(0.010850694444444444,0,0,0.010850694444444444,36.404079861111114,0)" xlink:href="#I"/><use transform="matrix(0.010850694444444444,0,0,0.010850694444444444,50.74869791666667,0)" xlink:href="#I"/></g><path d="M180 0v-1490h190c0 262 1 526-3 784 217-279 467-523 702-784h249L716-845 1319 0h-225L585-716 370-489V0H180" id="Q"/><path d="M471 26C259 26 90-98 90-318c0-256 228-303 435-329 202-27 287-16 287-108 0-139-79-219-234-219-161 0-248 86-283 164l-173-57c86-203 278-265 451-265 150 0 419 46 419 395V0H815v-152h-12C765-73 660 26 471 26zm31-159c199 0 310-134 310-271v-155c-30 35-226 55-295 64-131 17-246 59-246 186 0 116 97 176 231 176" id="R"/><path d="M678-1118v154H420V0H240v-964H20v-154h220v-149c0-194 155-293 318-293 85 0 141 18 168 30l-50 154c-19-6-47-17-97-17-111 0-159 58-159 166v109h258" id="S"/><path d="M158 0v-1490h180v865h22l478-493h223L593-638 1096 0H865L456-523 338-412V0H158" id="T"/><g id="h"><use transform="matrix(0.010850694444444444,0,0,0.010850694444444444,0,0)" xlink:href="#Q"/><use transform="matrix(0.010850694444444444,0,0,0.010850694444444444,14.930555555555555,0)" xlink:href="#R"/><use transform="matrix(0.010850694444444444,0,0,0.010850694444444444,27.408854166666664,0)" xlink:href="#S"/><use transform="matrix(0.010850694444444444,0,0,0.010850694444444444,35.63368055555556,0)" xlink:href="#T"/><use transform="matrix(0.010850694444444444,0,0,0.010850694444444444,47.82986111111111,0)" xlink:href="#R"/></g><path d="M180 0v-1490h528c311 0 458 177 458 395 0 191-114 278-244 313v14c139 9 302 137 302 371 0 225-148 397-499 397H180zm190-168h350c232 0 321-102 321-231 0-149-120-277-311-277H370v508zm0-668h328c160 0 286-101 286-255 0-129-87-231-280-231H370v486" id="U"/><path d="M158 0v-1118h174v172h12c41-113 157-188 290-188 26 0 70 2 91 3v181c-11-2-60-10-108-10-161 0-279 109-279 260V0H158" id="V"/><path d="M611 442c-248 0-391-105-460-228l146-94c47 65 117 165 314 165 178 0 307-82 307-266v-224h-17C863-141 792-18 576-18c-268 0-472-195-472-546 0-346 197-568 476-568 216 0 288 133 326 193h17v-179h175V29c0 289-215 413-487 413zm-5-620c203 0 314-146 314-390 0-237-108-403-314-403-213 0-319 180-319 403 0 230 109 390 319 390" id="W"/><g id="i"><use transform="matrix(0.010850694444444444,0,0,0.010850694444444444,0,0)" xlink:href="#U"/><use transform="matrix(0.010850694444444444,0,0,0.010850694444444444,14.539930555555555,0)" xlink:href="#V"/><use transform="matrix(0.010850694444444444,0,0,0.010850694444444444,23.253038194444443,0)" xlink:href="#w"/><use transform="matrix(0.010850694444444444,0,0,0.010850694444444444,28.63498263888889,0)" xlink:href="#C"/><use transform="matrix(0.010850694444444444,0,0,0.010850694444444444,42.241753472222214,0)" xlink:href="#W"/><use transform="matrix(0.010850694444444444,0,0,0.010850694444444444,55.870225694444436,0)" xlink:href="#y"/></g><path d="M659 0H135v-1490h529c448 0 721 280 721 744 0 466-273 746-726 746zM440-263h204c287 0 437-148 437-483 0-333-150-481-435-481H440v964" id="X"/><path d="M683-1118v229H474v562c0 71 29 104 102 104 23 0 73-7 95-13l43 225C647 9 580 16 520 16 296 16 174-96 174-301v-588H20v-229h154v-266h300v266h209" id="Y"/><path d="M754 19C571 19 479-89 437-179h-14V0H128v-1490h300v560h9c41-89 129-202 319-202 248 0 453 193 453 575 0 372-197 576-455 576zm-92-241c156 0 240-139 240-336 0-196-83-334-240-334-154 0-241 131-241 334 0 202 88 336 241 336" id="Z"/><path d="M572 22C302 22 117-98 78-306l279-48c29 105 101 156 224 156 114 0 185-48 185-115 0-118-228-130-337-155-215-49-322-150-322-317 0-215 187-347 470-347 265 0 424 116 466 298l-266 47c-24-76-87-130-196-130-98 0-174 46-174 113 0 56 38 95 144 117l201 40c216 44 320 143 320 302 0 220-207 367-500 367" id="aa"/><path d="M633 22C291 22 81-200 81-553c0-345 210-579 537-579 292 0 525 185 525 567v84H378c7 183 109 277 260 277 105 0 184-46 216-132l272 51C1071-99 893 22 633 22zM380-669h474c-15-146-94-237-233-237-143 0-229 99-241 237" id="ab"/><g id="j"><use transform="matrix(0.010091145833333334,0,0,0.010091145833333334,0,0)" xlink:href="#X"/><use transform="matrix(0.010091145833333334,0,0,0.010091145833333334,14.9248046875,0)" xlink:href="#F"/><use transform="matrix(0.010091145833333334,0,0,0.010091145833333334,26.923177083333336,0)" xlink:href="#Y"/><use transform="matrix(0.010091145833333334,0,0,0.010091145833333334,34.59244791666667,0)" xlink:href="#F"/><use transform="matrix(0.010091145833333334,0,0,0.010091145833333334,46.5908203125,0)" xlink:href="#Z"/><use transform="matrix(0.010091145833333334,0,0,0.010091145833333334,59.8203125,0)" xlink:href="#F"/><use transform="matrix(0.010091145833333334,0,0,0.010091145833333334,71.81868489583334,0)" xlink:href="#aa"/><use transform="matrix(0.010091145833333334,0,0,0.010091145833333334,83.39322916666667,0)" xlink:href="#ab"/></g><path d="M135 0v-1490h305v1237h643V0H135" id="ac"/><g id="k"><use transform="matrix(0.010091145833333334,0,0,0.010091145833333334,0,0)" xlink:href="#ac"/><use transform="matrix(0.010091145833333334,0,0,0.010091145833333334,11.685546875,0)" xlink:href="#F"/><use transform="matrix(0.010091145833333334,0,0,0.010091145833333334,23.330729166666668,0)" xlink:href="#u"/><use transform="matrix(0.010091145833333334,0,0,0.010091145833333334,35.399739583333336,0)" xlink:href="#ab"/><use transform="matrix(0.010091145833333334,0,0,0.010091145833333334,47.7109375,0)" xlink:href="#s"/></g><path d="M657 26c-323 0-524-166-541-416h195c15 169 171 246 346 246 202 0 356-106 356-265 5-203-294-238-475-293-239-73-380-191-380-389 0-252 224-419 512-419 294 0 499 171 508 396H992c-17-145-151-228-328-228-193 0-321 102-321 242 0 156 175 211 284 241l149 41c160 44 422 134 422 412 0 244-197 432-541 432" id="ad"/><path d="M140 405l46-156c120 36 205 19 263-150l32-93L54-1118h197c107 313 237 620 324 950 87-331 219-637 326-950h196L606 167c-68 178-176 259-334 259-64 0-113-12-132-21" id="ae"/><path d="M645 0H180v-1490h484c435 0 692 280 692 742 0 466-257 748-711 748zM370-168h263c363 0 539-218 539-580 0-358-176-574-521-574H370v1154" id="af"/><g id="l"><use transform="matrix(0.010850694444444444,0,0,0.010850694444444444,0,0)" xlink:href="#ad"/><use transform="matrix(0.010850694444444444,0,0,0.010850694444444444,14.2578125,0)" xlink:href="#J"/><use transform="matrix(0.010850694444444444,0,0,0.010850694444444444,26.51909722222222,0)" xlink:href="#ae"/><use transform="matrix(0.010850694444444444,0,0,0.010850694444444444,39.11675347222222,0)" xlink:href="#z"/><use transform="matrix(0.010850694444444444,0,0,0.010850694444444444,44.498697916666664,0)" xlink:href="#z"/><use transform="matrix(0.010850694444444444,0,0,0.010850694444444444,49.88064236111111,0)" xlink:href="#R"/><use transform="matrix(0.010850694444444444,0,0,0.010850694444444444,62.35894097222221,0)" xlink:href="#af"/><use transform="matrix(0.010850694444444444,0,0,0.010850694444444444,78.3962673611111,0)" xlink:href="#U"/></g><path d="M783 20c-382 0-661-292-661-764 0-473 279-766 661-766 302 0 548 182 601 489h-190c-42-204-217-313-411-313-268 0-476 208-476 590 0 381 209 588 476 588 195 0 369-110 411-313h190c-52 303-296 489-601 489" id="ag"/><path d="M537 14c-226 0-379-139-379-422v-710h180v695c0 172 97 275 253 275 160 0 281-109 281-300v-670h181V0H879v-209C806-46 684 14 537 14" id="ah"/><path d="M598-1118v154H368v674c0 100 37 144 132 144 23 0 62-6 92-12L629-6c-37 13-88 20-134 20-193 0-307-107-307-290v-688H20v-154h168v-266h180v266h230" id="ai"/><g id="m"><use transform="matrix(0.010850694444444444,0,0,0.010850694444444444,0,0)" xlink:href="#ag"/><use transform="matrix(0.010850694444444444,0,0,0.010850694444444444,16.23263888888889,0)" xlink:href="#z"/><use transform="matrix(0.010850694444444444,0,0,0.010850694444444444,21.614583333333336,0)" xlink:href="#ah"/><use transform="matrix(0.010850694444444444,0,0,0.010850694444444444,34.75477430555556,0)" xlink:href="#D"/><use transform="matrix(0.010850694444444444,0,0,0.010850694444444444,46.484375,0)" xlink:href="#ai"/><use transform="matrix(0.010850694444444444,0,0,0.010850694444444444,53.5373263888889,0)" xlink:href="#y"/><use transform="matrix(0.010850694444444444,0,0,0.010850694444444444,66.49305555555556,0)" xlink:href="#V"/></g><g id="n"><use transform="matrix(0.010091145833333334,0,0,0.010091145833333334,0,0)" xlink:href="#X"/><use transform="matrix(0.010091145833333334,0,0,0.010091145833333334,14.9248046875,0)" xlink:href="#F"/><use transform="matrix(0.010091145833333334,0,0,0.010091145833333334,26.923177083333336,0)" xlink:href="#Y"/><use transform="matrix(0.010091145833333334,0,0,0.010091145833333334,34.59244791666667,0)" xlink:href="#F"/></g><g id="o"><use transform="matrix(0.010091145833333334,0,0,0.010091145833333334,0,0)" xlink:href="#ac"/><use transform="matrix(0.010091145833333334,0,0,0.010091145833333334,11.685546875,0)" xlink:href="#F"/><use transform="matrix(0.010091145833333334,0,0,0.010091145833333334,23.330729166666668,0)" xlink:href="#u"/><use transform="matrix(0.010091145833333334,0,0,0.010091145833333334,35.399739583333336,0)" xlink:href="#ab"/><use transform="matrix(0.010091145833333334,0,0,0.010091145833333334,47.7109375,0)" xlink:href="#s"/></g><path d="M180 0v-1490h901v168H370v510h643v168H370V0H180" id="aj"/><g id="p"><use transform="matrix(0.010850694444444444,0,0,0.010850694444444444,0,0)" xlink:href="#aj"/><use transform="matrix(0.010850694444444444,0,0,0.010850694444444444,13.118489583333332,0)" xlink:href="#w"/><use transform="matrix(0.010850694444444444,0,0,0.010850694444444444,18.50043402777778,0)" xlink:href="#y"/><use transform="matrix(0.010850694444444444,0,0,0.010850694444444444,31.456163194444443,0)" xlink:href="#z"/><use transform="matrix(0.010850694444444444,0,0,0.010850694444444444,36.838107638888886,0)" xlink:href="#C"/></g><g id="q"><use transform="matrix(0.010850694444444444,0,0,0.010850694444444444,0,0)" xlink:href="#ad"/><use transform="matrix(0.010850694444444444,0,0,0.010850694444444444,14.2578125,0)" xlink:href="#y"/><use transform="matrix(0.010850694444444444,0,0,0.010850694444444444,27.213541666666664,0)" xlink:href="#A"/><use transform="matrix(0.010850694444444444,0,0,0.010850694444444444,40.34288194444444,0)" xlink:href="#D"/><use transform="matrix(0.010850694444444444,0,0,0.010850694444444444,52.072482638888886,0)" xlink:href="#B"/><use transform="matrix(0.010850694444444444,0,0,0.010850694444444444,65.39713541666666,0)" xlink:href="#V"/><use transform="matrix(0.010850694444444444,0,0,0.010850694444444444,73.76302083333333,0)" xlink:href="#D"/></g></defs></g></svg>