<svg xmlns="http://www.w3.org/2000/svg" xmlns:xlink="http://www.w3.org/1999/xlink" xmlns:lucid="lucid" width="1262" height="902"><g transform="translate(-318.9999999999998 421)" lucid:page-tab-id="0_0"><path d="M320-414a6 6 0 0 1 6-6h788a6 6 0 0 1 6 6V14a6 6 0 0 1-6 6H326a6 6 0 0 1-6-6z" stroke="#fc9432" stroke-width="2" fill="#ffdda6"/><path d="M320-379h800" stroke="#fc9432" stroke-width="2" fill="none"/><use xlink:href="#a" transform="matrix(1,0,0,1,328.0000000000002,-412) translate(292.84944661458337 20.517903645833336)"/><use xlink:href="#b" transform="matrix(1,0,0,1,328.0000000000002,-412) translate(433.80257161458337 20.517903645833336)"/><path d="M320 44.08a6 6 0 0 1 6-6h788a6 6 0 0 1 6 6v428a6 6 0 0 1-6 6H326a6 6 0 0 1-6-6z" stroke="#00c2a8" stroke-width="2" fill="#d7faf5"/><path d="M320 79.08h800" stroke="#00c2a8" stroke-width="2" fill="none"/><use xlink:href="#c" transform="matrix(1,0,0,1,327.9999999999998,46.07692307692304) translate(337.58349609375 20.517903645833336)"/><use xlink:href="#b" transform="matrix(1,0,0,1,327.9999999999998,46.07692307692304) translate(389.0685221354167 20.517903645833336)"/><path d="M1140-414a6 6 0 0 1 6-6h428a6 6 0 0 1 6 6v888a6 6 0 0 1-6 6h-428a6 6 0 0 1-6-6z" stroke="#e08fff" stroke-width="2" fill="#f4d9ff"/><path d="M1140-379h440" stroke="#e08fff" stroke-width="2" fill="none"/><use xlink:href="#d" transform="matrix(1,0,0,1,1148,-412) translate(137.99153645833331 20.517903645833336)"/><use xlink:href="#b" transform="matrix(1,0,0,1,1148,-412) translate(228.66048177083331 20.517903645833336)"/><path d="M340 110a10 10 0 0 1 10-10h740a10 10 0 0 1 10 10v160a10 10 0 0 1-10 10H350a10 10 0 0 1-10-10z" stroke="#54c45e" stroke-width="2" fill="#e3fae3"/><path d="M340 141h760" stroke="#54c45e" stroke-width="2" fill="none"/><use xlink:href="#e" transform="matrix(1,0,0,1,348.0000000000003,108) translate(329.1126302083333 20.517903645833336)"/><path d="M620-350a10 10 0 0 1 10-10h180a10 10 0 0 1 10 10v180a10 10 0 0 1-10 10H630a10 10 0 0 1-10-10z" stroke="#fcce14" stroke-width="2" fill="#fff7a1"/><path d="M620-319h200" stroke="#fcce14" stroke-width="2" fill="none"/><use xlink:href="#f" transform="matrix(1,0,0,1,628.0000000000001,-352) translate(53.482096354166664 20.517903645833336)"/><path d="M340-350a10 10 0 0 1 10-10h180a10 10 0 0 1 10 10v180a10 10 0 0 1-10 10H350a10 10 0 0 1-10-10z" stroke="#fcce14" stroke-width="2" fill="#fff7a1"/><path d="M340-319h200" stroke="#fcce14" stroke-width="2" fill="none"/><use xlink:href="#g" transform="matrix(1,0,0,1,348.0000000000003,-352) translate(67.50374348958333 20.517903645833336)"/><path d="M640-30a10 10 0 0 1 10-10h140a10 10 0 0 1 10 10v20a10 10 0 0 1-10 10H650a10 10 0 0 1-10-10z" stroke="#fc9432" stroke-width="2" fill-opacity="0"/><use xlink:href="#h" transform="matrix(1,0,0,1,640,-40.00000000000001) translate(41.224772135416664 27.708333333333336)"/><path d="M759.84-84.72c-.08-1.28-.32-2.88-.8-4.56-.48-1.68-1.2-3.6-2.32-5.52-1.04-1.92-2.4-3.92-4.16-5.92-.72-.8-1.44-1.52-2.24-2.24 1.2-4.48-1.52-8.32-1.52-8.32-4.64-.32-7.6 1.28-8.72 2-.24 0-.4-.08-.56-.16-.8-.32-1.6-.56-2.48-.88-.8-.24-1.68-.4-2.56-.64l-2.72-.48c-.16 0-.32 0-.48-.08-2-6-7.84-8.48-7.84-8.48-6.56 3.84-7.76 9.12-7.76 9.12s-.08.16-.08.32c-.4.08-.72.24-1.12.32-.48.08-.96.32-1.44.48-.48.16-.96.32-1.52.56-.96.4-1.92.8-2.88 1.28s-1.84 1.04-2.72 1.6c-.16-.08-.24-.08-.24-.08-9.12-3.2-17.12.64-17.12.64-.72 8.8 3.6 14.4 4.48 15.44-.24.56-.4 1.12-.56 1.6-.72 2.08-1.2 4.08-1.52 6.24 0 .32-.08.64-.08.88C682.48-77.76 680-70 680-70c6.96 7.44 15.12 7.84 15.12 7.84 1.04 1.68 2.24 3.28 3.6 4.8.56.64 1.12 1.28 1.76 1.84-2.56 6.72.32 12.32.32 12.32 7.76.24 12.88-3.2 14-3.92.72.24 1.52.48 2.32.64 2.4.56 4.8.88 7.28.96.64 0 1.2.08 1.84 0h1.2c3.68 4.8 10.08 5.52 10.08 5.52 4.64-4.4 4.88-8.8 4.88-9.76v-.08-.16-.16c.96-.64 1.84-1.28 2.72-2 1.84-1.52 3.44-3.28 4.8-5.2.08-.16.24-.32.32-.48 5.2.24 8.88-2.96 8.88-2.96-.88-4.96-4-7.36-4.64-7.84l-.08-.08c0-.08-.08-.08-.16-.08.08-.32.08-.56.08-.88.08-.56.08-1.12.08-1.6V-72v-.48l-.08-.48v-.4c-.08-.08-.08-.24-.08-.4l-.08-.4v-.48c-.16-.48-.24-1.04-.4-1.6-.56-2.16-1.44-4.16-2.64-6-1.2-1.84-2.64-3.44-4.32-4.8-1.68-1.36-3.6-2.48-5.6-3.28-1.92-.8-4-1.36-6.08-1.6-1.04-.08-2.08-.16-3.04-.16h-.8l-.4.08h-.4c-.56 0-1.04.08-1.52.16-2.08.4-4 1.04-5.76 2-1.68.96-3.12 2.16-4.32 3.44-1.2 1.36-2.16 2.8-2.8 4.32-.64 1.52-1.04 3.12-1.12 4.64V-75.68c0 .16 0 .32.08.56.08.72.24 1.52.4 2.16.48 1.44 1.2 2.8 2.08 3.84.88 1.12 2 2 3.12 2.8 1.12.64 2.32 1.2 3.52 1.52 1.2.32 2.4.48 3.52.48h.64c.08 0 .16 0 .24-.08h.4l.16-.08h.16c.16 0 .32 0 .4-.08.16 0 .32 0 .4-.08.32 0 .56-.08.8-.16.48-.16.96-.32 1.36-.56.4-.16.8-.4 1.2-.64l.24-.24c.4-.24.48-.8.16-1.12-.24-.32-.72-.4-1.12-.24-.08.08-.16.08-.24.16-.4.16-.72.24-1.04.4-.4.08-.8.16-1.12.24-.24 0-.4.08-.64.08H728.48h-.32c-.16-.08-.24-.08-.32-.08-.96-.08-1.84-.32-2.64-.72-.88-.32-1.68-.8-2.4-1.44-.8-.64-1.44-1.36-1.92-2.16-.48-.88-.88-1.76-1.04-2.72-.08-.48-.08-1.04-.08-1.52v-.4c0 .08 0 0 0 0v-.16c0-.08.08-.16.08-.24 0-.24 0-.48.08-.72.4-2.16 1.6-4.24 3.36-5.76.4-.4.88-.8 1.44-1.12.48-.32 1.04-.64 1.6-.88s1.12-.4 1.76-.56c.64-.16 1.2-.24 1.84-.32h2c.72 0 1.36.16 2 .24 1.36.32 2.72.8 3.92 1.36 2.48 1.28 4.56 3.2 5.76 5.52.72 1.2 1.12 2.48 1.36 3.76 0 .32.08.64.08.96l.08.24v1.76c-.08.4-.08.72-.16 1.12 0 .32-.08.72-.16 1.04-.08.4-.16.72-.24 1.04l-.72 2.08c-.64 1.28-1.36 2.56-2.32 3.76-1.84 2.32-4.32 4.24-7.2 5.44-1.44.56-2.96 1.04-4.48 1.28-.8.08-1.6.16-2.4.16h-1.04-.16c-.4 0-.8 0-1.2-.08-1.68-.08-3.36-.32-4.96-.8-1.68-.4-3.2-.96-4.72-1.68-2.88-1.44-5.6-3.44-7.6-5.84-1.04-1.2-2-2.48-2.72-3.84-.72-1.36-1.36-2.8-1.76-4.24-.4-1.44-.72-2.88-.8-4.4v-1.52-.16-.56c0-.72.08-1.52.16-2.24.08-.8.24-1.52.4-2.32.16-.72.32-1.44.56-2.24.48-1.44 1.04-2.88 1.76-4.24 1.36-2.72 3.12-5.12 5.28-7.04.48-.48 1.04-.88 1.6-1.36.56-.4 1.2-.8 1.84-1.2.56-.32 1.2-.64 1.84-.96.32-.16.64-.32 1.04-.48.16-.08.32-.08.48-.16l.48-.24c.72-.24 1.36-.48 2.08-.64.16-.08.4-.08.56-.16.16-.08.32-.08.48-.16l1.12-.24c.16 0 .32-.08.56-.08.16-.08.32-.08.56-.16.16 0 .32 0 .56-.08h.24l.24-.08c.24 0 .4 0 .56-.08h.64c.16-.08.48-.08.64-.08.08-.08.24-.08.4-.08h.48c.24-.08.4-.08.64-.08h.32s.08 0 0 0h.8c.64-.08 1.36-.08 2.08 0 1.36 0 2.72.16 4.08.4 2.64.48 5.12 1.2 7.44 2.24 2.24 1.04 4.24 2.32 6 3.68.16.08.24.16.32.24.16.08.24.16.32.24.24.16.4.4.64.56.24.16.4.32.64.48.16.24.32.4.56.56.72.72 1.44 1.52 2.08 2.24 1.2 1.44 2.24 2.96 3.04 4.4 0 .08.08.16.08.24.08.08.16.16.16.24.08.24.24.4.24.56.16.16.24.32.32.48.08.16.16.32.24.56.24.64.56 1.28.8 1.84.32.96.56 1.84.8 2.64.08.24.4.48.72.4.4 0 .64-.24.64-.56 0-.8 0-1.76-.16-2.88z" stroke="#000" stroke-opacity="0" fill="url(#i)"/><path d="M418.88-227.36l-7.36.96 1.12 6.4 7.44-.96-1.2-6.4z" stroke="#000" stroke-opacity="0" fill="url(#j)"/><path d="M445.6-234.56l32.64-4.4-1.12-6.32-32.64 4.32 1.12 6.4z" stroke="#000" stroke-opacity="0" fill="url(#k)"/><path d="M432.88-239.44l1.12 6.4 7.44-.96-1.2-6.4-7.36.96z" stroke="#000" stroke-opacity="0" fill="url(#l)"/><path d="M431.6-222.48l-1.12-6.4-7.36.96 1.12 6.4 7.36-.96z" stroke="#000" stroke-opacity="0" fill="url(#m)"/><path d="M410.88-230l7.36-.96-1.12-6.4-7.36 1.04 1.12 6.32z" stroke="#000" stroke-opacity="0" fill="url(#n)"/><path d="M478.88-235.28l-32.64 4.32 1.12 6.32 32.64-4.32-1.12-6.32z" stroke="#000" stroke-opacity="0" fill="url(#o)"/><path d="M434.64-229.44l1.2 6.4 7.36-1.04-1.12-6.32-7.44.96z" stroke="#000" stroke-opacity="0" fill="url(#p)"/><path d="M422.48-231.52l7.36-.96-1.12-6.4-7.44.96 1.2 6.4z" stroke="#000" stroke-opacity="0" fill="url(#q)"/><path d="M409.12-240l3.12-.4-9.12-51.04-3.12.48 9.12 50.96z" stroke="#000" stroke-opacity="0" fill="url(#r)"/><path d="M413.36-240.56l3.12-.4-9.76-54.8-3.12.48 9.76 54.72z" stroke="#000" stroke-opacity="0" fill="url(#s)"/><path d="M420.72-241.52l3.12-.4L413.52-300l-3.12.4 10.32 58.08z" stroke="#000" stroke-opacity="0" fill="url(#t)"/><path d="M425.04-242.08l3.12-.4-9.44-52.96-3.12.4 9.44 52.96z" stroke="#000" stroke-opacity="0" fill="url(#u)"/><path d="M432.24-243.04l3.12-.4-8.4-47.04-3.12.4 8.4 47.04z" stroke="#000" stroke-opacity="0" fill="url(#v)"/><path d="M436.56-243.6l3.12-.4-8.72-48.88-3.12.4 8.72 48.88z" stroke="#000" stroke-opacity="0" fill="url(#w)"/><path d="M360-210a10 10 0 0 1 10-10h140a10 10 0 0 1 10 10v20a10 10 0 0 1-10 10H370a10 10 0 0 1-10-10z" stroke="#fcce14" stroke-width="2" fill-opacity="0"/><use xlink:href="#x" transform="matrix(1,0,0,1,360.0000000000002,-220) translate(59.78743489583333 27.708333333333336)"/><path d="M640-210a10 10 0 0 1 10-10h140a10 10 0 0 1 10 10v20a10 10 0 0 1-10 10H650a10 10 0 0 1-10-10z" stroke="#fcce14" stroke-width="2" fill-opacity="0"/><use xlink:href="#y" transform="matrix(1,0,0,1,639.9999999999998,-220.00000000000003) translate(21.330078125 27.708333333333336)"/><path d="M720-300c-22.08 0-40 17.92-40 40s17.92 40 40 40 40-17.92 40-40-17.92-40-40-40zm0 74.88c-6.32 0-11.36-4.24-11.36-9.36h22.72c0 5.12-5.04 9.36-11.36 9.36zm18.8-12.48h-37.6v-6.8h37.6v6.8zm-.16-10.32h-37.36c-.08-.16-.24-.32-.32-.48-3.84-4.64-4.8-7.12-5.68-9.6 0-.08 4.72.96 8 1.76 0 0 1.68.4 4.24.8-2.4-2.8-3.84-6.4-3.84-10 0-8 6.16-15.04 3.92-20.72 2.16.16 4.48 4.56 4.64 11.44 2.32-3.2 3.28-8.96 3.28-12.56 0-3.68 2.4-7.92 4.8-8.08-2.16 3.6.56 6.64 2.96 14.16.96 2.88.8 7.68 1.52 10.72.24-6.32 1.28-15.52 5.28-18.72-1.76 4 .32 9.04 1.68 11.44 2.24 3.84 3.6 6.8 3.6 12.4 0 3.68-1.36 7.2-3.68 10l4.48-.96 8.56-1.68s-1.28 5.12-6.08 10.08z" stroke="#000" stroke-opacity="0" fill="#e6522c"/><path d="M900-350a10 10 0 0 1 10-10h180a10 10 0 0 1 10 10v180a10 10 0 0 1-10 10H910a10 10 0 0 1-10-10z" stroke="#fcce14" stroke-width="2" fill="#fff7a1"/><path d="M900-319h200" stroke="#fcce14" stroke-width="2" fill="none"/><use xlink:href="#z" transform="matrix(1,0,0,1,908,-352) translate(57.599283854166664 20.517903645833336)"/><path d="M920-210a10 10 0 0 1 10-10h140a10 10 0 0 1 10 10v20a10 10 0 0 1-10 10H930a10 10 0 0 1-10-10z" stroke="#fcce14" stroke-width="2" fill-opacity="0"/><use xlink:href="#A" transform="matrix(1,0,0,1,920,-220) translate(46.537760416666664 27.708333333333336)"/><path d="M963.04-279.84h-1.52c-.8 0-1.52.88-1.52 1.92s.72 1.92 1.52 1.92h1.52c.88 0 1.6-.88 1.6-1.92s-.72-1.92-1.6-1.92zm28.8 27.84h-1.52c-.88 0-1.52.88-1.52 1.92 0 1.12.64 1.92 1.52 1.92h1.52c.8 0 1.52-.8 1.52-1.92 0-1.04-.72-1.92-1.52-1.92zm-1.28-18.16c0-1.04-.72-1.92-1.52-1.92h-5.2c-.88 0-1.6.88-1.6 1.92s.72 1.92 1.6 1.92h5.2c.8 0 1.52-.88 1.52-1.92zm49.36-12l-1.6-10.96c-.48-4.08-3.36-7.04-6.72-6.88h-60.96c-.4 0-.72 0-1.04.16-2.24.64-3.6 3.36-3.12 6.08l1.68 11.6c0 .08 0 .16.08.24.16 1.44-.4 2-.96 2.24-.64.24-1.04.96-1.04 1.76 0 1.04.72 1.92 1.6 1.92h67.92c.32 0 .64 0 1.04-.08 2.24-.64 3.6-3.36 3.12-6.08zm-20.72 43.76c-.72-4.24-2.64-5.76-4.88-5.76h-16.08c-.88 0-1.6.88-1.6 1.92 0 .96.64 1.84 1.44 1.92.48.08 1.04.96 1.36 2.96l1.68 11.28c.64 3.52 3.12 6 6.08 6.08l9.6-.08c.32.08.64 0 1.04-.08 2.24-.64 3.6-3.28 3.12-6zm-21.28-9.6h17.44c.16 0 .24 0 .4-.08 1.6-.4 1.68-2 1.44-3.6l-2.16-15.04c-.64-3.92-2.48-5.44-4.88-5.44h-16c-.8 0-1.44.72-1.52 1.68-.16 1.04.48 2 1.28 2.16.56.08 1.12.96 1.52 3.2l1.68 11.44c.16.88-.24 1.68-.88 1.92h-.16c-.64.32-1.04 1.04-1.04 1.84 0 1.04.72 1.92 1.6 1.92h1.2z" stroke="#000" stroke-opacity="0" stroke-width="1.51" fill="url(#B)"/><path d="M1000.48-25.98l-.08 1-.24.98-.4.94-.52.87-.66.78-.77.66-.86.53-.94.4-1 .23-.98.08H817.38v-.96h176.6l.88-.06.85-.2.8-.34.75-.45.66-.56.57-.65.45-.74.33-.8.2-.84.07-.88V-178.5h.96z" stroke="#3a414a" stroke-width=".05" fill="#3a414a"/><path d="M1000.48-178.5h-.96v-.5h.96z" fill="#3a414a"/><path stroke="#3a414a" stroke-width=".05" fill="#3a414a"/><path d="M816.88-15.37L802.62-20l14.26-4.64z" fill="#3a414a"/><path d="M817.36-14.7L801.08-20l16.28-5.3zm-13.2-5.3l12.25 3.98v-7.96z" stroke="#3a414a" stroke-width=".05" fill="#3a414a"/><path d="M720-178.5v44.7" stroke="#3a414a" fill="none"/><path d="M720.48-178.5h-.96v-.5h.96z" stroke="#3a414a" stroke-width=".05" fill="#3a414a"/><path d="M720-119.03l-4.63-14.27h9.26z" stroke="#3a414a" fill="#3a414a"/><path d="M440-178.5V-26a6 6 0 0 0 6 6h176.62" stroke="#3a414a" fill="none"/><path d="M440.48-178.5h-.96v-.5h.96z" stroke="#3a414a" stroke-width=".05" fill="#3a414a"/><path d="M637.38-20l-14.26 4.63v-9.27z" stroke="#3a414a" fill="#3a414a"/><path d="M340 326.15a10 10 0 0 1 10-10h460a10 10 0 0 1 10 10v123a10 10 0 0 1-10 10H350a10 10 0 0 1-10-10z" stroke="#54c45e" stroke-width="2" fill="#e3fae3"/><path d="M340 357.16h480" stroke="#54c45e" stroke-width="2" fill="none"/><use xlink:href="#C" transform="matrix(1,0,0,1,348.0000000000003,324.1538461538461) translate(163.74348958333331 20.517903645833336)"/><use xlink:href="#D" transform="matrix(1,0,0,1,348.0000000000003,324.1538461538461) translate(217.30729166666666 20.517903645833336)"/><path d="M1080 250c0 5.52-22.4 10-50 10s-50-4.48-50-10v-80c0-5.52 22.4-10 50-10s50 4.48 50 10z" stroke="#000" stroke-width="2" fill-opacity="0"/><path d="M1080 170c0 5.52-22.4 10-50 10s-50-4.48-50-10" stroke="#000" stroke-width="2" fill="none"/><use xlink:href="#E" transform="matrix(1,0,0,1,985,185) translate(17.20594618055556 43.40277777777778)"/><path d="M580 314.65v-10.57a6 6 0 0 0-6-6H450.4a.7.7 0 0 1-.7-.7" stroke="#3a414a" fill="none"/><path d="M580.48 315.15h-.96v-.5h.96z" stroke="#3a414a" stroke-width=".05" fill="#3a414a"/><path d="M449.7 282.62l4.64 14.26h-9.27z" stroke="#3a414a" fill="#3a414a"/><path d="M463.5 204.32c-2.95 0-5.62 1.36-7.4 3.52l-4.7-3.44c.52-1.44.8-2.96.8-4.56 0-1.6-.28-3.12-.75-4.56l4.65-3.44c1.82 2.16 4.45 3.6 7.4 3.6 5.5 0 9.95-4.72 9.95-10.48 0-5.76-4.46-10.4-9.94-10.4-5.44 0-9.9 4.64-9.9 10.4 0 1.04.15 2.08.43 2.96l-4.7 3.44c-1.9-2.48-4.72-4.32-7.9-4.8v-5.92c4.5-.96 7.87-5.2 7.87-10.24 0-5.76-4.46-10.4-9.94-10.4-5.44 0-9.9 4.64-9.9 10.4 0 4.96 3.28 9.12 7.7 10.16v6c-6 1.12-10.6 6.64-10.6 13.28s4.64 12.16 10.7 13.28v6.24c-4.47 1.04-7.8 5.2-7.8 10.24 0 5.76 4.46 10.4 9.9 10.4 5.48 0 9.94-4.64 9.94-10.4 0-5.04-3.33-9.2-7.8-10.24v-6.24c3.2-.64 5.78-2.16 7.8-4.8l4.7 3.52c-.25.88-.4 1.84-.4 2.88 0 5.76 4.46 10.48 9.9 10.48 5.5 0 9.95-4.72 9.95-10.48 0-5.76-4.46-10.4-9.94-10.4zm0-24.4c2.68 0 4.83 2.24 4.83 5.04S466.2 190 463.5 190c-2.62 0-4.78-2.24-4.78-5.04s2.16-5.04 4.78-5.04zm-28.93-9.52c0-2.72 2.16-5.04 4.8-5.04 2.66 0 4.8 2.32 4.8 5.04 0 2.8-2.14 5.12-4.8 5.12-2.64 0-4.8-2.32-4.8-5.12zm9.62 59.2c0 2.72-2.17 5.04-4.84 5.04-2.63 0-4.8-2.32-4.8-5.04 0-2.8 2.17-5.12 4.8-5.12 2.67 0 4.82 2.32 4.82 5.12zm-4.84-22.72c-3.7 0-6.7-3.2-6.7-7.04 0-3.92 3-7.04 6.7-7.04s6.75 3.12 6.75 7.04c0 3.84-3.04 7.04-6.75 7.04zm24.14 12.88c-2.62 0-4.78-2.24-4.78-5.04s2.16-5.04 4.78-5.04c2.68 0 4.83 2.24 4.83 5.04s-2.15 5.04-4.82 5.04z" stroke="#000" stroke-opacity="0" stroke-width=".6" fill="#231f20"/><path d="M400 258.08a10 10 0 0 1 10-10h80a10 10 0 0 1 10 10 10 10 0 0 1-10 10h-80a10 10 0 0 1-10-10z" stroke="#54c45e" stroke-width="2" fill-opacity="0"/><use xlink:href="#F" transform="matrix(1,0,0,1,400.0000000000001,248.07692307692304) translate(31.91255208333333 15.541666666666668)"/><path d="M1160-30a10 10 0 0 1 10-10h380a10 10 0 0 1 10 10v159a10 10 0 0 1-10 10h-380a10 10 0 0 1-10-10z" stroke="#ff80df" stroke-width="2" fill="#ffd6f5"/><path d="M1160 1h400" stroke="#ff80df" stroke-width="2" fill="none"/><use xlink:href="#G" transform="matrix(1,0,0,1,1168,-32.00000000000001) translate(175.18863932291666 20.517903645833336)"/><path d="M1160-349a10 10 0 0 1 10-10h380a10 10 0 0 1 10 10v159a10 10 0 0 1-10 10h-380a10 10 0 0 1-10-10z" stroke="#ff80df" stroke-width="2" fill="#ffd6f5"/><path d="M1160-318h400" stroke="#ff80df" stroke-width="2" fill="none"/><use xlink:href="#H" transform="matrix(1,0,0,1,1168,-351) translate(160.18815104166666 20.517903645833336)"/><path d="M1160 289a10 10 0 0 1 10-10h380a10 10 0 0 1 10 10v159a10 10 0 0 1-10 10h-380a10 10 0 0 1-10-10z" stroke="#ff80df" stroke-width="2" fill="#ffd6f5"/><path d="M1160 320h400" stroke="#ff80df" stroke-width="2" fill="none"/><use xlink:href="#I" transform="matrix(1,0,0,1,1168,287) translate(146.35823567708331 20.517903645833336)"/><path d="M1324.33 88.7h72.45c1.82 0 3.26 1.5 3.26 3.3 0 1.82-1.44 3.3-3.26 3.3h-72.45v-6.6zM1393.5 13v32.9c0 1.8 1.46 3.3 3.28 3.3 1.82 0 3.3-1.5 3.3-3.3V19.6c0-3.67-2.96-6.6-6.6-6.6z" fill="#3367d6"/><path d="M1393.5 13h-19.8c-1.82 0-3.3 1.47-3.3 3.3 0 1.8 1.48 3.28 3.3 3.28h19.8V13z" fill="#5c85de"/><path d="M1400.04 42.64h-26.35c-1.82 0-3.3 1.48-3.3 3.3 0 1.8 1.48 3.28 3.3 3.28h26.34v-6.58zM1321 42.64h26.35c1.8 0 3.3 1.48 3.3 3.3 0 1.8-1.5 3.28-3.3 3.28H1321v-6.58z" fill="#3367d6"/><path d="M1327.58 13v32.9c0 1.8-1.47 3.3-3.3 3.3-1.8 0-3.28-1.5-3.28-3.3V19.6c0-3.67 2.95-6.6 6.58-6.6z" fill="#3367d6"/><path d="M1327.55 13h19.8c1.8 0 3.3 1.47 3.3 3.3 0 1.8-1.5 3.28-3.3 3.28h-19.8V13z" fill="#5c85de"/><path d="M1392.66 55.85v35.8c0 2.06 1.66 3.72 3.7 3.72 2.05 0 3.7-1.66 3.7-3.72V63.28c0-4.1-3.3-7.43-7.4-7.43z" fill="#3367d6"/><path d="M1392.66 55.85H1374c-2 0-3.6 1.6-3.6 3.6 0 1.97 1.6 3.58 3.6 3.58h18.66v-7.18z" fill="#5c85de"/><path d="M1328.4 55.85v35.8c0 2.06-1.65 3.72-3.7 3.72-2.04 0-3.7-1.66-3.7-3.72V63.28c0-4.1 3.32-7.43 7.4-7.43z" fill="#3367d6"/><path d="M1328.38 55.85h18.65c2 0 3.6 1.6 3.6 3.6 0 1.97-1.6 3.58-3.6 3.58h-18.65v-7.18z" fill="#5c85de"/><path d="M1380.28 34.72h-14.48v14.47h-7.23V34.7h-14.48v-7.24h14.47V13h7.23v14.48h14.48v7.24zM1375.17 73.72c1.94-1.92 5.06-1.92 7 0 1.92 1.94 1.92 5.06 0 7-1.94 1.92-5.06 1.92-7 0-1.93-1.94-1.93-5.06 0-7zM1356.97 80.72c-1.93-1.94-1.93-5.06 0-7 1.94-1.92 5.06-1.92 7 0 1.92 1.94 1.92 5.06 0 7-1.94 1.92-5.06 1.92-7 0" fill="#3367d6"/><path d="M1356.97 64.3c-1.93-1.95-1.93-5.07 0-7 1.94-1.94 5.06-1.94 7 0 1.92 1.93 1.92 5.05 0 7-1.94 1.9-5.06 1.9-7 0" fill="#5c85de"/><path d="M1338.87 80.72c-1.92-1.94-1.92-5.06 0-7 1.94-1.92 5.06-1.92 7 0 1.93 1.94 1.93 5.06 0 7-1.94 1.92-5.06 1.92-7 0" fill="#3367d6"/><path d="M1318.4 10.4v83.2h83.2V10.4z" fill-opacity="0"/><path d="M1312 114a10 10 0 0 1 10-10h80a10 10 0 0 1 10 10 10 10 0 0 1-10 10h-80a10 10 0 0 1-10-10z" stroke="#ff80df" stroke-width="2" fill-opacity="0"/><use xlink:href="#J" transform="matrix(1,0,0,1,1312,104) translate(18.995885416666667 15.541666666666668)"/><path d="M1362.47 261.62h-.94v-37.56h.94zm0-59.07h-.94V125.5h.94z" stroke="#3a414a" stroke-width=".05" fill="#3a414a"/><path d="M1362.47 125.5h-.94v-.5h.94z" fill="#3a414a"/><path stroke="#3a414a" stroke-width=".05" fill="#3a414a"/><path d="M1362 276.38l-4.63-14.26h9.27z" fill="#3a414a"/><path d="M1362 277.92l-5.3-16.28h10.6zm-3.98-15.33l3.98 12.25 3.98-12.26z" stroke="#3a414a" stroke-width=".05" fill="#3a414a"/><use xlink:href="#K" transform="matrix(1,0,0,1,1321.9739583333333,202.5488273249874) translate(0 17.22222222222222)"/><path d="M1300-210c0 5.52-22.4 10-50 10s-50-4.48-50-10v-80c0-5.52 22.4-10 50-10s50 4.48 50 10z" stroke="#000" stroke-width="2" fill-opacity="0"/><path d="M1300-290c0 5.52-22.4 10-50 10s-50-4.48-50-10" stroke="#000" stroke-width="2" fill="none"/><path d="M1520-210c0 5.52-22.4 10-50 10s-50-4.48-50-10v-80c0-5.52 22.4-10 50-10s50 4.48 50 10z" stroke="#000" stroke-width="2" fill-opacity="0"/><path d="M1520-290c0 5.52-22.4 10-50 10s-50-4.48-50-10" stroke="#000" stroke-width="2" fill="none"/><path d="M1360.47-41.5h-.94v-57.75h.94zm0-79.25h-.94v-41.87h.94z" stroke="#3a414a" stroke-width=".05" fill="#3a414a"/><path d="M1360.47-41h-.94v-.5h.94z" fill="#3a414a"/><path stroke="#3a414a" stroke-width=".05" fill="#3a414a"/><path d="M1364.63-163.12h-9.27l4.64-14.26z" fill="#3a414a"/><path d="M1365.3-162.64h-10.6l5.3-16.28zm-9.28-.95h7.96l-3.98-12.25z" stroke="#3a414a" stroke-width=".05" fill="#3a414a"/><use xlink:href="#L" transform="matrix(1,0,0,1,1307.287326388889,-120.75520833333336) translate(0 17.22222222222222)"/><use xlink:href="#M" transform="matrix(1,0,0,1,1307.287326388889,-120.75520833333336) translate(41.13715277777777 17.22222222222222)"/><path d="M1038.54 6.9l10.08 7.03 8.77 5.57 8 4.63 7.57 3.96 7.3 3.42 7.13 3 7.08 2.64 7.13 2.3 7.24 2.03 7.42 1.73 7.67 1.46 8 1.18 8.46.88 8.96.57 7.68.15-.08 3.95-7.72-.16h-.08l-9.06-.57h-.08l-8.53-.9h-.08l-8.1-1.2h-.06v-.02h-.02l-7.76-1.48h-.08l-7.5-1.77h-.04v-.02l-.02.02h-.02l-7.3-2.05h-.04v-.02h-.04l-7.22-2.35h-.04v-.02h-.02l-7.18-2.67h-.06v-.02h-.02l-7.2-3.03h-.02v-.02h-.06v-.02l-7.37-3.45h-.02v-.02h-.02v-.02h-.02l-7.64-4h-.04v-.02h-.02l-8.1-4.68h-.02v-.02h-.04v-.02l-8.86-5.62h-.02v-.02h-.02v-.02h-.02l-10.15-7.07h-.02v-.02h-.02v-.02h-.02l-5.8-4.42h6.5zM923.5-85.4h.04v.02h.02v.02h.02l14.5 10.08v.02h.02v.02h.04l16.9 12.85v.02h.04v.02h.02v.02l46.4 39.3 8.64 7.2h-6.16l-5-4.18-46.4-39.27-16.8-12.78-14.42-10.03-3.98-2.54 2.12-3.33z" stroke="#3a414a" stroke-width=".05" fill="#3a414a"/><path d="M1159 47.52v3.95l-2.1-.04.1-3.95z" fill="#3a414a"/><path stroke="#3a414a" stroke-width=".05" fill="#3a414a"/><path d="M919.14-91.3l-4.82 7.9-9.77-11.37z" fill="#3a414a"/><path d="M922.25-92.6l-7.66 12.56-15.5-18.05zm-8.2 5.86l2-3.27-6.04-1.44z" stroke="#3a414a" stroke-width=".05" fill="#3a414a"/><use xlink:href="#N" transform="matrix(1,0,0,1,977.4447536260533,-15.851789216443112) translate(0 17.22222222222222)"/><path d="M1122.6 158.8v.08h-.02v.02l-2.2 7.33v.04h-.02v.02l-1.7 4.92-.02.02v.04l-1.42 3.57v.02h-.02v.02l-.9 2-2.7-1.2.9-1.97 1.38-3.5 1.68-4.88 2.18-7.23 12.7-56.92h3zm35.18-107.72l-.3.05-.3.08-.3.1-.32.1-.3.1-.33.14-.32.16-.33.17-.35.2-.37.23-.38.27-.4.3-.42.35-.44.4-.47.47-.5.54-.56.64-.6.75-.65.9-.72 1.08-.8 1.33-.9 1.63-1 2.06-1.2 2.65-1.38 3.5-1.68 4.88-1.67 5.54h-3.08l1.92-6.43v-.04h.02v-.02l1.7-4.92.02-.02v-.04l1.42-3.57v-.02l.02-.02 1.2-2.7v-.02h.02v-.04l1.06-2.1v-.04h.02v-.02l.93-1.7v-.02h.02v-.02l.84-1.38v-.04h.02l.76-1.15v-.02h.02v-.02l.7-.96v-.02h.02v-.02h.02l.63-.8v-.02h.02v-.02l.6-.7h.02v-.02h.02v-.02l.56-.6h.02v-.02h.02l.52-.52.02-.02.02-.02.5-.45h.02v-.02h.02l.48-.4h.02v-.02h.02v-.02l.45-.34h.02l.02-.02h.02v-.02l.43-.3h.02v-.02h.02l.42-.27h.02v-.02h.02l.02-.02.4-.23h.02v-.02h.02l.4-.2v-.02h.04v-.02h.02l.38-.18h.02v-.02h.04l.38-.16h.02v-.02h.02l.38-.14h.02v-.02h.04l.37-.13h.04l.37-.1v-.02h.06l.37-.1h.06l.33-.07z" stroke="#3a414a" stroke-width=".05" fill="#3a414a"/><path d="M1159 50.98l-1.5.03-.07-2.94 1.57-.04z" fill="#3a414a"/><path stroke="#3a414a" stroke-width=".05" fill="#3a414a"/><path d="M1117.9 179.92l-13.44 6.68 6.94-13.3z" fill="#3a414a"/><path d="M1120.37 180.34l-19.3 9.6 9.97-19.12zm-12.5 2.92l7.55-3.76-3.65-3.72z" stroke="#3a414a" stroke-width=".05" fill="#3a414a"/><use xlink:href="#O" transform="matrix(1,0,0,1,1095.4872757138278,79.69257132105272) translate(0 17.22222222222222)"/><path d="M962.62 209.53v.94h-212.3v-.94zm-509.92-9.06v-.94h228.2v.94z" stroke="#3a414a" stroke-width=".05" fill="#3a414a"/><path d="M452.7 200.47h-.5v-.63l-.02-.3h.53z" fill="#3a414a"/><path stroke="#3a414a" stroke-width=".05" fill="#3a414a"/><path d="M977.38 210l-14.26 4.63v-9.26z" fill="#3a414a"/><path d="M978.92 210l-16.28 5.3v-10.6zm-15.33 3.98l12.25-3.98-12.26-3.98z" stroke="#3a414a" stroke-width=".05" fill="#3a414a"/><use xlink:href="#P" transform="matrix(1,0,0,1,680.8867009732943,194.2447916666667) translate(0 17.22222222222222)"/><path d="M360 386a10 10 0 0 1 10-10h100a10 10 0 0 1 10 10v62a10 10 0 0 1-10 10H370a10 10 0 0 1-10-10z" stroke="#00c2a8" stroke-width="2" fill="#e3fae3"/><path d="M360 417h120" stroke="#00c2a8" stroke-width="2" fill="none"/><use xlink:href="#Q" transform="matrix(1,0,0,1,368.0000000000002,384) translate(6.570149739583336 20.517903645833336)"/><path d="M510 386a10 10 0 0 1 10-10h120a10 10 0 0 1 10 10v62a10 10 0 0 1-10 10H520a10 10 0 0 1-10-10z" stroke="#00c2a8" stroke-width="2" fill="#e3fae3"/><path d="M510 417h140" stroke="#00c2a8" stroke-width="2" fill="none"/><use xlink:href="#R" transform="matrix(1,0,0,1,518.0000000000005,384) translate(-2.73974609375 20.517903645833336)"/><path d="M680 386a10 10 0 0 1 10-10h100a10 10 0 0 1 10 10v62a10 10 0 0 1-10 10H690a10 10 0 0 1-10-10z" stroke="#00c2a8" stroke-width="2" fill="#e3fae3"/><path d="M680 417h120" stroke="#00c2a8" stroke-width="2" fill="none"/><use xlink:href="#S" transform="matrix(1,0,0,1,688.0000000000002,384) translate(38.08479817708333 20.517903645833336)"/><path d="M1200 337.65a10 10 0 0 1 10-10h110a10 10 0 0 1 10 10v100a10 10 0 0 1-10 10h-110a10 10 0 0 1-10-10z" stroke="#e81313" stroke-width="2" fill="#ffd6f5"/><path d="M1200 368.66h130" stroke="#e81313" stroke-width="2" fill="none"/><g><use xlink:href="#T" transform="matrix(1,0,0,1,1208,335.6538461538461) translate(26.83756510416666 20.517903645833336)"/></g><path d="M1390 337.65a10 10 0 0 1 10-10h110a10 10 0 0 1 10 10v100a10 10 0 0 1-10 10h-110a10 10 0 0 1-10-10z" stroke="#fc9432" stroke-width="2" fill="#ffd6f5"/><path d="M1390 368.66h130" stroke="#fc9432" stroke-width="2" fill="none"/><g><use xlink:href="#U" transform="matrix(1,0,0,1,1398,335.6538461538461) translate(5.000325520833329 20.517903645833336)"/></g><defs><path d="M789 20C394 20 94-260 94-744c0-487 300-766 695-766s695 279 695 766c0 485-300 764-695 764zm0-271c231 0 385-174 385-493 0-321-154-495-385-495s-385 175-385 495c0 319 154 493 385 493" id="V"/><path d="M754 19C571 19 479-89 437-179h-14V0H128v-1490h300v560h9c41-89 129-202 319-202 248 0 453 193 453 575 0 372-197 576-455 576zm-92-241c156 0 240-139 240-336 0-196-83-334-240-334-154 0-241 131-241 334 0 202 88 336 241 336" id="W"/><path d="M572 22C302 22 117-98 78-306l279-48c29 105 101 156 224 156 114 0 185-48 185-115 0-118-228-130-337-155-215-49-322-150-322-317 0-215 187-347 470-347 265 0 424 116 466 298l-266 47c-24-76-87-130-196-130-98 0-174 46-174 113 0 56 38 95 144 117l201 40c216 44 320 143 320 302 0 220-207 367-500 367" id="X"/><path d="M633 22C291 22 81-200 81-553c0-345 210-579 537-579 292 0 525 185 525 567v84H378c7 183 109 277 260 277 105 0 184-46 216-132l272 51C1071-99 893 22 633 22zM380-669h474c-15-146-94-237-233-237-143 0-229 99-241 237" id="Y"/><path d="M128 0v-1118h290v195h12c54-169 184-238 367-200v268c-27-8-86-15-130-15-138 0-239 95-239 234V0H128" id="Z"/><path d="M443 0L31-1118h319c90 293 199 572 268 885 66-313 175-593 264-885h315L784 0H443" id="aa"/><path d="M440 22C227 22 68-92 68-313c0-250 202-322 422-343 195-21 271-24 271-105 0-95-63-149-175-149-116 0-187 57-211 129l-275-46c57-194 237-305 487-305 240 0 474 108 474 379V0H777v-155h-10C713-51 605 22 440 22zm85-211c140 0 238-93 238-211v-121c-37 26-156 42-222 51-111 16-185 59-185 149 0 87 70 132 169 132" id="ab"/><path d="M128 0v-1118h300V0H128zm150-1264c-91 0-165-68-165-154 0-85 74-154 165-154 90 0 165 69 165 154 0 86-75 154-165 154" id="ac"/><path d="M428-1490V0H128v-1490h300" id="ad"/><path d="M683-1118v229H474v562c0 71 29 104 102 104 23 0 73-7 95-13l43 225C647 9 580 16 520 16 296 16 174-96 174-301v-588H20v-229h154v-266h300v266h209" id="ae"/><path d="M120 396l69-226c123 42 245 23 254-107l8-60L31-1118h319c87 288 199 559 259 872 72-308 185-583 277-872h315L726 132c-68 181-186 294-410 294-79 0-153-13-196-30" id="af"/><g id="a"><use transform="matrix(0.010091145833333334,0,0,0.010091145833333334,0,0)" xlink:href="#V"/><use transform="matrix(0.010091145833333334,0,0,0.010091145833333334,15.923828125000002,0)" xlink:href="#W"/><use transform="matrix(0.010091145833333334,0,0,0.010091145833333334,28.951497395833336,0)" xlink:href="#X"/><use transform="matrix(0.010091145833333334,0,0,0.010091145833333334,40.52604166666667,0)" xlink:href="#Y"/><use transform="matrix(0.010091145833333334,0,0,0.010091145833333334,52.83723958333334,0)" xlink:href="#Z"/><use transform="matrix(0.010091145833333334,0,0,0.010091145833333334,61.576171875,0)" xlink:href="#aa"/><use transform="matrix(0.010091145833333334,0,0,0.010091145833333334,73.76627604166667,0)" xlink:href="#ab"/><use transform="matrix(0.010091145833333334,0,0,0.010091145833333334,85.7646484375,0)" xlink:href="#W"/><use transform="matrix(0.010091145833333334,0,0,0.010091145833333334,98.79231770833331,0)" xlink:href="#ac"/><use transform="matrix(0.010091145833333334,0,0,0.010091145833333334,104.39290364583331,0)" xlink:href="#ad"/><use transform="matrix(0.010091145833333334,0,0,0.010091145833333334,109.99348958333331,0)" xlink:href="#ac"/><use transform="matrix(0.010091145833333334,0,0,0.010091145833333334,115.59407552083333,0)" xlink:href="#ae"/><use transform="matrix(0.010091145833333334,0,0,0.010091145833333334,123.61653645833333,0)" xlink:href="#af"/></g><path d="M681 22C323 22 94-145 85-462h297c10 151 131 226 296 226 163 0 271-77 271-190 0-102-95-149-257-189l-164-41c-252-61-403-188-403-405 0-269 236-449 560-449 330 0 546 183 551 445H941c-11-119-106-188-259-188-156 0-244 72-244 172-3 156 226 185 373 221 250 61 445 186 445 436 0 271-213 446-575 446" id="ag"/><path d="M628 22C291 22 81-210 81-554c0-346 210-578 547-578 265 0 455 142 497 372l-279 52c-25-116-99-188-215-188-160 0-244 139-244 341 0 200 84 341 244 341 116 0 193-74 217-195l279 51C1085-123 896 22 628 22" id="ah"/><path d="M128 0v-1490h300v802h17l366-430h347L740-633 1179 0H826L514-456l-86 97V0H128" id="ai"/><g id="b"><use transform="matrix(0.010091145833333334,0,0,0.010091145833333334,0,0)" xlink:href="#ag"/><use transform="matrix(0.010091145833333334,0,0,0.010091145833333334,13.5322265625,0)" xlink:href="#ae"/><use transform="matrix(0.010091145833333334,0,0,0.010091145833333334,21.201497395833336,0)" xlink:href="#ab"/><use transform="matrix(0.010091145833333334,0,0,0.010091145833333334,33.19986979166667,0)" xlink:href="#ah"/><use transform="matrix(0.010091145833333334,0,0,0.010091145833333334,45.35970052083334,0)" xlink:href="#ai"/></g><path d="M659 0H135v-1490h529c448 0 721 280 721 744 0 466-273 746-726 746zM440-263h204c287 0 437-148 437-483 0-333-150-481-435-481H440v964" id="aj"/><g id="c"><use transform="matrix(0.010091145833333334,0,0,0.010091145833333334,0,0)" xlink:href="#aj"/><use transform="matrix(0.010091145833333334,0,0,0.010091145833333334,14.9248046875,0)" xlink:href="#ab"/><use transform="matrix(0.010091145833333334,0,0,0.010091145833333334,26.923177083333336,0)" xlink:href="#ae"/><use transform="matrix(0.010091145833333334,0,0,0.010091145833333334,34.59244791666667,0)" xlink:href="#ab"/></g><path d="M135 0v-1490h581c339 0 533 210 533 503 0 295-197 500-540 500H440V0H135zm305-733h220c186 0 274-104 274-254s-88-251-275-251H440v505" id="ak"/><path d="M750-1118v229H516V0H217v-889H20v-229h197v-86c0-238 156-356 363-356 94 0 178 20 215 31l-54 226c-25-7-61-15-100-15-123-3-131 84-125 200h234" id="al"/><path d="M628 22C291 22 81-210 81-554c0-346 210-578 547-578 336 0 547 232 547 578 0 344-211 576-547 576zm0-236c160 0 242-146 242-341 0-197-82-341-242-341S387-753 387-555c0 195 81 341 241 341" id="am"/><path d="M128 0v-1118h278l12 217c60-163 185-234 319-234 143 0 236 81 288 251 63-172 205-251 359-251 205 0 357 138 357 381V0h-301v-697c0-126-76-187-177-187-114 0-184 79-184 196V0H789v-705c0-109-72-179-174-179-106 0-187 74-187 208V0H128" id="an"/><g id="d"><use transform="matrix(0.010091145833333334,0,0,0.010091145833333334,0,0)" xlink:href="#ak"/><use transform="matrix(0.010091145833333334,0,0,0.010091145833333334,13.390950520833334,0)" xlink:href="#ad"/><use transform="matrix(0.010091145833333334,0,0,0.010091145833333334,18.991536458333336,0)" xlink:href="#ab"/><use transform="matrix(0.010091145833333334,0,0,0.010091145833333334,30.98990885416667,0)" xlink:href="#ae"/><use transform="matrix(0.010091145833333334,0,0,0.010091145833333334,37.89225260416667,0)" xlink:href="#al"/><use transform="matrix(0.010091145833333334,0,0,0.010091145833333334,45.67252604166667,0)" xlink:href="#am"/><use transform="matrix(0.010091145833333334,0,0,0.010091145833333334,58.34700520833334,0)" xlink:href="#Z"/><use transform="matrix(0.010091145833333334,0,0,0.010091145833333334,66.91438802083334,0)" xlink:href="#an"/></g><g id="e"><use transform="matrix(0.010091145833333334,0,0,0.010091145833333334,0,0)" xlink:href="#ak"/><use transform="matrix(0.010091145833333334,0,0,0.010091145833333334,13.390950520833334,0)" xlink:href="#ad"/><use transform="matrix(0.010091145833333334,0,0,0.010091145833333334,18.991536458333336,0)" xlink:href="#ab"/><use transform="matrix(0.010091145833333334,0,0,0.010091145833333334,30.98990885416667,0)" xlink:href="#ae"/><use transform="matrix(0.010091145833333334,0,0,0.010091145833333334,37.89225260416667,0)" xlink:href="#al"/><use transform="matrix(0.010091145833333334,0,0,0.010091145833333334,45.67252604166667,0)" xlink:href="#am"/><use transform="matrix(0.010091145833333334,0,0,0.010091145833333334,58.34700520833334,0)" xlink:href="#Z"/><use transform="matrix(0.010091145833333334,0,0,0.010091145833333334,66.91438802083334,0)" xlink:href="#an"/></g><path d="M135 0v-1490h468l242 684c30 94 76 293 111 455 34-161 80-360 110-455l238-684h470V0h-307c0-447-3-765 11-1227-122 503-246 788-395 1227H826C676-435 552-717 427-1215c15 453 11 775 11 1215H135" id="ao"/><g id="f"><use transform="matrix(0.010091145833333334,0,0,0.010091145833333334,0,0)" xlink:href="#ao"/><use transform="matrix(0.010091145833333334,0,0,0.010091145833333334,19.25390625,0)" xlink:href="#Y"/><use transform="matrix(0.010091145833333334,0,0,0.010091145833333334,31.565104166666668,0)" xlink:href="#ae"/><use transform="matrix(0.010091145833333334,0,0,0.010091145833333334,39.13346354166667,0)" xlink:href="#Z"/><use transform="matrix(0.010091145833333334,0,0,0.010091145833333334,47.70084635416667,0)" xlink:href="#ac"/><use transform="matrix(0.010091145833333334,0,0,0.010091145833333334,53.30143229166667,0)" xlink:href="#ah"/><use transform="matrix(0.010091145833333334,0,0,0.010091145833333334,65.46126302083334,0)" xlink:href="#X"/></g><path d="M135 0v-1490h305v1237h643V0H135" id="ap"/><path d="M625 442c-280 0-454-114-503-274l258-72c28 63 97 128 243 128 153 0 246-69 246-216v-206h-23C805-108 717-16 536-16 284-16 81-191 81-561c0-378 208-571 456-571 188 0 280 113 321 202h13v-188h295V-9c0 303-226 451-541 451zm5-686c153 0 240-119 240-319 0-198-86-329-240-329-158 0-241 137-241 329 0 195 85 319 241 319" id="aq"/><g id="g"><use transform="matrix(0.010091145833333334,0,0,0.010091145833333334,0,0)" xlink:href="#ap"/><use transform="matrix(0.010091145833333334,0,0,0.010091145833333334,11.685546875,0)" xlink:href="#am"/><use transform="matrix(0.010091145833333334,0,0,0.010091145833333334,24.360026041666668,0)" xlink:href="#aq"/><use transform="matrix(0.010091145833333334,0,0,0.010091145833333334,37.41796875,0)" xlink:href="#X"/></g><path d="M789 20c-398 0-667-293-667-764 0-473 273-766 655-766 315 0 558 198 612 487h-196c-61-191-204-311-415-311-262 0-471 207-471 590 0 380 208 588 482 588 249 0 420-165 425-427H828v-166h572v163c0 370-256 606-611 606" id="ar"/><path d="M158 0v-1118h174v172h12c41-113 157-188 290-188 26 0 70 2 91 3v181c-11-2-60-10-108-10-161 0-279 109-279 260V0H158" id="as"/><path d="M471 26C259 26 90-98 90-318c0-256 228-303 435-329 202-27 287-16 287-108 0-139-79-219-234-219-161 0-248 86-283 164l-173-57c86-203 278-265 451-265 150 0 419 46 419 395V0H815v-152h-12C765-73 660 26 471 26zm31-159c199 0 310-134 310-271v-155c-30 35-226 55-295 64-131 17-246 59-246 186 0 116 97 176 231 176" id="at"/><path d="M678-1118v154H420V0H240v-964H20v-154h220v-149c0-194 155-293 318-293 85 0 141 18 168 30l-50 154c-19-6-47-17-97-17-111 0-159 58-159 166v109h258" id="au"/><path d="M338-670V0H158v-1118h173l1 207c72-158 192-221 342-221 226 0 378 139 378 422V0H872v-695c0-172-96-275-252-275-161 0-282 109-282 300" id="av"/><g id="h"><use transform="matrix(0.010091145833333334,0,0,0.010091145833333334,0,0)" xlink:href="#ar"/><use transform="matrix(0.010091145833333334,0,0,0.010091145833333334,15.419270833333334,0)" xlink:href="#as"/><use transform="matrix(0.010091145833333334,0,0,0.010091145833333334,23.199544270833336,0)" xlink:href="#at"/><use transform="matrix(0.010091145833333334,0,0,0.010091145833333334,34.80436197916667,0)" xlink:href="#au"/><use transform="matrix(0.010091145833333334,0,0,0.010091145833333334,42.13053385416667,0)" xlink:href="#at"/><use transform="matrix(0.010091145833333334,0,0,0.010091145833333334,53.7353515625,0)" xlink:href="#av"/><use transform="matrix(0.010091145833333334,0,0,0.010091145833333334,65.94563802083334,0)" xlink:href="#at"/></g><linearGradient gradientUnits="userSpaceOnUse" id="i" x1="720" y1="-96.29" x2="720" y2="-40.09"><stop offset="0%" stop-color="#f05a28"/><stop offset="100%" stop-color="#fbca0a"/></linearGradient><linearGradient gradientUnits="userSpaceOnUse" id="j" x1="419.82" y1="-201.06" x2="400.34" y2="-311.73"><stop offset="0%" stop-color="#faed1e"/><stop offset="100%" stop-color="#f15b2b"/></linearGradient><linearGradient gradientUnits="userSpaceOnUse" id="k" x1="466.88" y1="-207.21" x2="448.99" y2="-313.83"><stop offset="0%" stop-color="#faed1e"/><stop offset="100%" stop-color="#f15b2b"/></linearGradient><linearGradient gradientUnits="userSpaceOnUse" id="l" x1="443.17" y1="-202.76" x2="423.7" y2="-313.43"><stop offset="0%" stop-color="#faed1e"/><stop offset="100%" stop-color="#f15b2b"/></linearGradient><linearGradient gradientUnits="userSpaceOnUse" id="m" x1="431.34" y1="-202.59" x2="412.03" y2="-313.25"><stop offset="0%" stop-color="#faed1e"/><stop offset="100%" stop-color="#f15b2b"/></linearGradient><linearGradient gradientUnits="userSpaceOnUse" id="n" x1="419.97" y1="-199.72" x2="400.64" y2="-310.39"><stop offset="0%" stop-color="#faed1e"/><stop offset="100%" stop-color="#f15b2b"/></linearGradient><linearGradient gradientUnits="userSpaceOnUse" id="o" x1="466.81" y1="-208.32" x2="448.92" y2="-314.22"><stop offset="0%" stop-color="#faed1e"/><stop offset="100%" stop-color="#f15b2b"/></linearGradient><linearGradient gradientUnits="userSpaceOnUse" id="p" x1="442.94" y1="-204.11" x2="423.45" y2="-314.77"><stop offset="0%" stop-color="#faed1e"/><stop offset="100%" stop-color="#f15b2b"/></linearGradient><linearGradient gradientUnits="userSpaceOnUse" id="q" x1="431.57" y1="-201.25" x2="412.1" y2="-311.91"><stop offset="0%" stop-color="#faed1e"/><stop offset="100%" stop-color="#f15b2b"/></linearGradient><linearGradient gradientUnits="userSpaceOnUse" id="r" x1="417.81" y1="-204.25" x2="399.95" y2="-298.44"><stop offset="0%" stop-color="#faed1e"/><stop offset="100%" stop-color="#f15b2b"/></linearGradient><linearGradient gradientUnits="userSpaceOnUse" id="s" x1="422.52" y1="-202.24" x2="403.45" y2="-303.25"><stop offset="0%" stop-color="#faed1e"/><stop offset="100%" stop-color="#f15b2b"/></linearGradient><linearGradient gradientUnits="userSpaceOnUse" id="t" x1="430.28" y1="-200.95" x2="410.17" y2="-307.91"><stop offset="0%" stop-color="#faed1e"/><stop offset="100%" stop-color="#f15b2b"/></linearGradient><linearGradient gradientUnits="userSpaceOnUse" id="u" x1="433.97" y1="-205.01" x2="415.51" y2="-302.69"><stop offset="0%" stop-color="#faed1e"/><stop offset="100%" stop-color="#f15b2b"/></linearGradient><linearGradient gradientUnits="userSpaceOnUse" id="v" x1="440.42" y1="-210.01" x2="423.9" y2="-296.97"><stop offset="0%" stop-color="#faed1e"/><stop offset="100%" stop-color="#f15b2b"/></linearGradient><linearGradient gradientUnits="userSpaceOnUse" id="w" x1="444.97" y1="-209.32" x2="427.85" y2="-299.61"><stop offset="0%" stop-color="#faed1e"/><stop offset="100%" stop-color="#f15b2b"/></linearGradient><path d="M180 0v-1490h190v1322h690V0H180" id="aw"/><path d="M613 24c-304 0-509-231-509-576 0-350 205-580 509-580 305 0 511 230 511 580 0 345-206 576-511 576zm0-161c226 0 329-195 329-415 0-222-103-419-329-419-223 0-326 196-326 419 0 220 103 415 326 415" id="ax"/><path d="M158 0v-1490h180v865h22l478-493h223L593-638 1096 0H865L456-523 338-412V0H158" id="ay"/><path d="M158 0v-1118h180V0H158zm91-1301c-68 0-125-53-125-119s57-119 125-119c69 0 126 53 126 119s-57 119-126 119" id="az"/><g id="x"><use transform="matrix(0.010091145833333334,0,0,0.010091145833333334,0,0)" xlink:href="#aw"/><use transform="matrix(0.010091145833333334,0,0,0.010091145833333334,11.685546875,0)" xlink:href="#ax"/><use transform="matrix(0.010091145833333334,0,0,0.010091145833333334,24.077473958333336,0)" xlink:href="#ay"/><use transform="matrix(0.010091145833333334,0,0,0.010091145833333334,35.419921875,0)" xlink:href="#az"/></g><path d="M180 0v-1490h510c348 0 508 209 508 474 0 266-160 477-507 477H370V0H180zm190-706h312c236 0 327-133 327-310 0-176-91-307-329-307H370v617" id="aA"/><path d="M158 0v-1118h175l1 205c55-151 181-225 313-225 147 0 245 90 285 228 53-141 190-228 352-228 194 0 352 125 352 384V0h-181v-749c0-161-105-225-225-225-151 0-243 103-243 244V0H807v-767c0-124-93-207-219-207-131 0-250 92-250 270V0H158" id="aB"/><path d="M628 24c-324 0-524-230-524-574 0-343 198-582 503-582 237 0 487 146 487 559v75H286c9 234 145 362 343 362 132 0 231-58 273-172l174 48C1024-91 857 24 628 24zM287-650h624c-17-190-120-322-304-322-192 0-309 151-320 322" id="aC"/><path d="M598-1118v154H368v674c0 100 37 144 132 144 23 0 62-6 92-12L629-6c-37 13-88 20-134 20-193 0-307-107-307-290v-688H20v-154h168v-266h180v266h230" id="aD"/><path d="M338-670V0H158v-1490h180v566c73-149 190-208 336-208 226 0 379 139 379 422V0H872v-695c0-172-96-275-252-275-161 0-282 109-282 300" id="aE"/><path d="M537 14c-226 0-379-139-379-422v-710h180v695c0 172 97 275 253 275 160 0 281-109 281-300v-670h181V0H879v-209C806-46 684 14 537 14" id="aF"/><path d="M538 24C308 24 148-78 108-271l171-41c32 123 123 178 257 178 156 0 256-77 256-169 0-77-54-128-164-154l-186-44c-203-48-300-148-300-305 0-192 176-326 414-326 230 0 351 112 402 269l-163 42c-31-80-94-158-238-158-133 0-233 69-233 162 0 83 57 129 188 160l169 40c203 48 298 149 298 302 0 196-179 339-441 339" id="aG"/><g id="y"><use transform="matrix(0.010091145833333334,0,0,0.010091145833333334,0,0)" xlink:href="#aA"/><use transform="matrix(0.010091145833333334,0,0,0.010091145833333334,13.19921875,0)" xlink:href="#as"/><use transform="matrix(0.010091145833333334,0,0,0.010091145833333334,20.636393229166668,0)" xlink:href="#ax"/><use transform="matrix(0.010091145833333334,0,0,0.010091145833333334,33.0283203125,0)" xlink:href="#aB"/><use transform="matrix(0.010091145833333334,0,0,0.010091145833333334,51.1318359375,0)" xlink:href="#aC"/><use transform="matrix(0.010091145833333334,0,0,0.010091145833333334,63.18066406250001,0)" xlink:href="#aD"/><use transform="matrix(0.010091145833333334,0,0,0.010091145833333334,69.94173177083333,0)" xlink:href="#aE"/><use transform="matrix(0.010091145833333334,0,0,0.010091145833333334,82.162109375,0)" xlink:href="#aC"/><use transform="matrix(0.010091145833333334,0,0,0.010091145833333334,94.2109375,0)" xlink:href="#aF"/><use transform="matrix(0.010091145833333334,0,0,0.010091145833333334,106.43131510416667,0)" xlink:href="#aG"/></g><path d="M75-1237v-253h1217v253H837V0H531v-1237H75" id="aH"/><g id="z"><use transform="matrix(0.010091145833333334,0,0,0.010091145833333334,0,0)" xlink:href="#aH"/><use transform="matrix(0.010091145833333334,0,0,0.010091145833333334,12.6240234375,0)" xlink:href="#Z"/><use transform="matrix(0.010091145833333334,0,0,0.010091145833333334,20.757486979166668,0)" xlink:href="#ab"/><use transform="matrix(0.010091145833333334,0,0,0.010091145833333334,32.755859375,0)" xlink:href="#ah"/><use transform="matrix(0.010091145833333334,0,0,0.010091145833333334,44.91569010416667,0)" xlink:href="#Y"/><use transform="matrix(0.010091145833333334,0,0,0.010091145833333334,57.22688802083334,0)" xlink:href="#X"/></g><path d="M98-1322v-168h1126v168H757V0H567v-1322H98" id="aI"/><path d="M158 418v-1536h174v179h20c37-59 106-193 324-193 279 0 474 222 474 576 0 356-194 580-473 580-213 0-288-135-325-197h-14v591H158zm492-555c209 0 317-186 317-421 0-232-105-413-317-413-206 0-314 166-314 413 0 249 111 421 314 421" id="aJ"/><g id="A"><use transform="matrix(0.010091145833333334,0,0,0.010091145833333334,0,0)" xlink:href="#aI"/><use transform="matrix(0.010091145833333334,0,0,0.010091145833333334,11.725911458333334,0)" xlink:href="#aC"/><use transform="matrix(0.010091145833333334,0,0,0.010091145833333334,23.774739583333336,0)" xlink:href="#aB"/><use transform="matrix(0.010091145833333334,0,0,0.010091145833333334,41.878255208333336,0)" xlink:href="#aJ"/><use transform="matrix(0.010091145833333334,0,0,0.010091145833333334,54.532552083333336,0)" xlink:href="#ax"/></g><linearGradient gradientUnits="userSpaceOnUse" id="B" x1="1071.98" y1="-289.75" x2="977.44" y2="-253.93"><stop offset="0%" stop-color="#fff100"/><stop offset="100%" stop-color="#f05a28"/></linearGradient><path d="M135 0v-1490h980v253H440v416h609v249H440V0H135" id="aK"/><path d="M537 19C279 19 81-185 81-557c0-382 206-575 454-575 190 0 278 113 318 202h10v-560h300V0H868v-179h-15C812-89 719 19 537 19zm92-241c153 0 240-134 240-336 0-203-86-334-240-334-158 0-240 138-240 334 0 197 84 336 240 336" id="aL"/><g id="C"><use transform="matrix(0.010091145833333334,0,0,0.010091145833333334,0,0)" xlink:href="#aK"/><use transform="matrix(0.010091145833333334,0,0,0.010091145833333334,12.129557291666668,0)" xlink:href="#ac"/><use transform="matrix(0.010091145833333334,0,0,0.010091145833333334,17.730143229166668,0)" xlink:href="#Y"/><use transform="matrix(0.010091145833333334,0,0,0.010091145833333334,30.041341145833336,0)" xlink:href="#ad"/><use transform="matrix(0.010091145833333334,0,0,0.010091145833333334,35.641927083333336,0)" xlink:href="#aL"/></g><path d="M428-647V0H128v-1118h283l4 231c63-156 176-245 348-245 232 0 384 159 384 421V0H847v-659c0-139-76-222-202-222-128 0-217 86-217 234" id="aM"/><g id="D"><use transform="matrix(0.010091145833333334,0,0,0.010091145833333334,0,0)" xlink:href="#ag"/><use transform="matrix(0.010091145833333334,0,0,0.010091145833333334,13.5322265625,0)" xlink:href="#Y"/><use transform="matrix(0.010091145833333334,0,0,0.010091145833333334,25.843424479166668,0)" xlink:href="#aM"/><use transform="matrix(0.010091145833333334,0,0,0.010091145833333334,38.70963541666667,0)" xlink:href="#X"/><use transform="matrix(0.010091145833333334,0,0,0.010091145833333334,50.2841796875,0)" xlink:href="#am"/><use transform="matrix(0.010091145833333334,0,0,0.010091145833333334,62.95865885416667,0)" xlink:href="#Z"/><use transform="matrix(0.010091145833333334,0,0,0.010091145833333334,71.37467447916667,0)" xlink:href="#X"/></g><path d="M657 26c-323 0-524-166-541-416h195c15 169 171 246 346 246 202 0 356-106 356-265 5-203-294-238-475-293-239-73-380-191-380-389 0-252 224-419 512-419 294 0 499 171 508 396H992c-17-145-151-228-328-228-193 0-321 102-321 242 0 156 175 211 284 241l149 41c160 44 422 134 422 412 0 244-197 432-541 432" id="aN"/><g id="E"><use transform="matrix(0.010850694444444444,0,0,0.010850694444444444,0,0)" xlink:href="#aN"/><use transform="matrix(0.010850694444444444,0,0,0.010850694444444444,14.2578125,0)" xlink:href="#aD"/><use transform="matrix(0.010850694444444444,0,0,0.010850694444444444,21.31076388888889,0)" xlink:href="#ax"/><use transform="matrix(0.010850694444444444,0,0,0.010850694444444444,34.635416666666664,0)" xlink:href="#as"/><use transform="matrix(0.010850694444444444,0,0,0.010850694444444444,42.632378472222214,0)" xlink:href="#aC"/></g><path d="M180 0v-1490h190c0 262 1 526-3 784 217-279 467-523 702-784h249L716-845 1319 0h-225L585-716 370-489V0H180" id="aO"/><g id="F"><use transform="matrix(0.006510416666666667,0,0,0.006510416666666667,0,0)" xlink:href="#aO"/><use transform="matrix(0.006510416666666667,0,0,0.006510416666666667,8.958333333333334,0)" xlink:href="#at"/><use transform="matrix(0.006510416666666667,0,0,0.006510416666666667,16.4453125,0)" xlink:href="#au"/><use transform="matrix(0.006510416666666667,0,0,0.006510416666666667,21.380208333333336,0)" xlink:href="#ay"/><use transform="matrix(0.006510416666666667,0,0,0.006510416666666667,28.697916666666675,0)" xlink:href="#at"/></g><path d="M49 0l509-1490h400L1480 0h-339l-115-346H497L386 0H49zm524-585h374c-75-213-124-402-192-666-66 268-110 453-182 666" id="aP"/><path d="M440-1490V0H135v-1490h305" id="aQ"/><g id="G"><use transform="matrix(0.010091145833333334,0,0,0.010091145833333334,0,0)" xlink:href="#aP"/><use transform="matrix(0.010091145833333334,0,0,0.010091145833333334,15.429361979166668,0)" xlink:href="#ak"/><use transform="matrix(0.010091145833333334,0,0,0.010091145833333334,28.8203125,0)" xlink:href="#aQ"/></g><path d="M786 20C389 20 94-260 94-744c0-487 299-766 692-766 339 0 597 194 641 529h-309c-28-162-156-258-326-258-233 0-388 179-388 495 0 323 157 493 387 493 170 0 298-97 328-259h309c-34 277-266 530-642 530" id="aR"/><path d="M428-647V0H128v-1490h294v586c65-146 175-228 341-228 232 0 385 159 385 421V0H847v-659c0-139-76-222-202-222-128 0-217 86-217 234" id="aS"/><g id="H"><use transform="matrix(0.010091145833333334,0,0,0.010091145833333334,0,0)" xlink:href="#aR"/><use transform="matrix(0.010091145833333334,0,0,0.010091145833333334,15.2880859375,0)" xlink:href="#ab"/><use transform="matrix(0.010091145833333334,0,0,0.010091145833333334,27.286458333333336,0)" xlink:href="#ah"/><use transform="matrix(0.010091145833333334,0,0,0.010091145833333334,39.4462890625,0)" xlink:href="#aS"/><use transform="matrix(0.010091145833333334,0,0,0.010091145833333334,52.3125,0)" xlink:href="#Y"/></g><path d="M128 418v-1536h295v188h14c41-89 129-202 319-202 248 0 453 193 453 575 0 372-197 576-455 576-183 0-275-108-317-198h-9v597H128zm534-640c156 0 240-139 240-336 0-196-83-334-240-334-154 0-241 131-241 334 0 202 88 336 241 336" id="aT"/><g id="I"><use transform="matrix(0.010091145833333334,0,0,0.010091145833333334,0,0)" xlink:href="#ak"/><use transform="matrix(0.010091145833333334,0,0,0.010091145833333334,13.390950520833334,0)" xlink:href="#ac"/><use transform="matrix(0.010091145833333334,0,0,0.010091145833333334,18.991536458333336,0)" xlink:href="#aT"/><use transform="matrix(0.010091145833333334,0,0,0.010091145833333334,32.01920572916667,0)" xlink:href="#Y"/><use transform="matrix(0.010091145833333334,0,0,0.010091145833333334,44.33040364583334,0)" xlink:href="#ad"/><use transform="matrix(0.010091145833333334,0,0,0.010091145833333334,49.93098958333334,0)" xlink:href="#ac"/><use transform="matrix(0.010091145833333334,0,0,0.010091145833333334,55.53157552083334,0)" xlink:href="#aM"/><use transform="matrix(0.010091145833333334,0,0,0.010091145833333334,68.39778645833334,0)" xlink:href="#Y"/><use transform="matrix(0.010091145833333334,0,0,0.010091145833333334,80.70898437500001,0)" xlink:href="#X"/></g><path d="M783 20c-382 0-661-292-661-764 0-473 279-766 661-766 302 0 548 182 601 489h-190c-42-204-217-313-411-313-268 0-476 208-476 590 0 381 209 588 476 588 195 0 369-110 411-313h190c-52 303-296 489-601 489" id="aU"/><path d="M338-1490V0H158v-1490h180" id="aV"/><g id="J"><use transform="matrix(0.006510416666666667,0,0,0.006510416666666667,0,0)" xlink:href="#aU"/><use transform="matrix(0.006510416666666667,0,0,0.006510416666666667,9.739583333333334,0)" xlink:href="#ax"/><use transform="matrix(0.006510416666666667,0,0,0.006510416666666667,17.734375,0)" xlink:href="#av"/><use transform="matrix(0.006510416666666667,0,0,0.006510416666666667,25.611979166666668,0)" xlink:href="#aD"/><use transform="matrix(0.006510416666666667,0,0,0.006510416666666667,29.973958333333336,0)" xlink:href="#as"/><use transform="matrix(0.006510416666666667,0,0,0.006510416666666667,34.77213541666667,0)" xlink:href="#ax"/><use transform="matrix(0.006510416666666667,0,0,0.006510416666666667,42.766927083333336,0)" xlink:href="#aV"/><use transform="matrix(0.006510416666666667,0,0,0.006510416666666667,45.99609375,0)" xlink:href="#aV"/><use transform="matrix(0.006510416666666667,0,0,0.006510416666666667,49.225260416666664,0)" xlink:href="#aC"/><use transform="matrix(0.006510416666666667,0,0,0.006510416666666667,56.99869791666667,0)" xlink:href="#as"/></g><path fill="#333" d="M135 0v-1490h468l242 684c30 94 76 293 111 455 34-161 80-360 110-455l238-684h470V0h-307c0-447-3-765 11-1227-122 503-246 788-395 1227H826C676-435 552-717 427-1215c15 453 11 775 11 1215H135" id="aW"/><path fill="#333" d="M440 22C227 22 68-92 68-313c0-250 202-322 422-343 195-21 271-24 271-105 0-95-63-149-175-149-116 0-187 57-211 129l-275-46c57-194 237-305 487-305 240 0 474 108 474 379V0H777v-155h-10C713-51 605 22 440 22zm85-211c140 0 238-93 238-211v-121c-37 26-156 42-222 51-111 16-185 59-185 149 0 87 70 132 169 132" id="aX"/><path fill="#333" d="M428-647V0H128v-1118h283l4 231c63-156 176-245 348-245 232 0 384 159 384 421V0H847v-659c0-139-76-222-202-222-128 0-217 86-217 234" id="aY"/><path fill="#333" d="M625 442c-280 0-454-114-503-274l258-72c28 63 97 128 243 128 153 0 246-69 246-216v-206h-23C805-108 717-16 536-16 284-16 81-191 81-561c0-378 208-571 456-571 188 0 280 113 321 202h13v-188h295V-9c0 303-226 451-541 451zm5-686c153 0 240-119 240-319 0-198-86-329-240-329-158 0-241 137-241 329 0 195 85 319 241 319" id="aZ"/><path fill="#333" d="M633 22C291 22 81-200 81-553c0-345 210-579 537-579 292 0 525 185 525 567v84H378c7 183 109 277 260 277 105 0 184-46 216-132l272 51C1071-99 893 22 633 22zM380-669h474c-15-146-94-237-233-237-143 0-229 99-241 237" id="ba"/><path fill="#333" d="M572 22C302 22 117-98 78-306l279-48c29 105 101 156 224 156 114 0 185-48 185-115 0-118-228-130-337-155-215-49-322-150-322-317 0-215 187-347 470-347 265 0 424 116 466 298l-266 47c-24-76-87-130-196-130-98 0-174 46-174 113 0 56 38 95 144 117l201 40c216 44 320 143 320 302 0 220-207 367-500 367" id="bb"/><g id="K"><use transform="matrix(0.008680555555555556,0,0,0.008680555555555556,0,0)" xlink:href="#aW"/><use transform="matrix(0.008680555555555556,0,0,0.008680555555555556,16.5625,0)" xlink:href="#aX"/><use transform="matrix(0.008680555555555556,0,0,0.008680555555555556,26.883680555555557,0)" xlink:href="#aY"/><use transform="matrix(0.008680555555555556,0,0,0.008680555555555556,37.95138888888889,0)" xlink:href="#aX"/><use transform="matrix(0.008680555555555556,0,0,0.008680555555555556,48.27256944444445,0)" xlink:href="#aZ"/><use transform="matrix(0.008680555555555556,0,0,0.008680555555555556,59.50520833333334,0)" xlink:href="#ba"/><use transform="matrix(0.008680555555555556,0,0,0.008680555555555556,70.09548611111111,0)" xlink:href="#bb"/></g><path fill="#333" d="M135 0v-1490h980v253H440v416h609v249H440V0H135" id="bc"/><path fill="#333" d="M683-1118v229H474v562c0 71 29 104 102 104 23 0 73-7 95-13l43 225C647 9 580 16 520 16 296 16 174-96 174-301v-588H20v-229h154v-266h300v266h209" id="bd"/><g id="L"><use transform="matrix(0.008680555555555556,0,0,0.008680555555555556,0,0)" xlink:href="#bc"/><use transform="matrix(0.008680555555555556,0,0,0.008680555555555556,10.13888888888889,0)" xlink:href="#aX"/><use transform="matrix(0.008680555555555556,0,0,0.008680555555555556,20.460069444444443,0)" xlink:href="#bb"/><use transform="matrix(0.008680555555555556,0,0,0.008680555555555556,30.416666666666664,0)" xlink:href="#bd"/></g><path fill="#333" d="M49 0l509-1490h400L1480 0h-339l-115-346H497L386 0H49zm524-585h374c-75-213-124-402-192-666-66 268-110 453-182 666" id="be"/><path fill="#333" d="M628 22C291 22 81-210 81-554c0-346 210-578 547-578 265 0 455 142 497 372l-279 52c-25-116-99-188-215-188-160 0-244 139-244 341 0 200 84 341 244 341 116 0 193-74 217-195l279 51C1085-123 896 22 628 22" id="bf"/><g id="M"><use transform="matrix(0.008680555555555556,0,0,0.008680555555555556,0,0)" xlink:href="#be"/><use transform="matrix(0.008680555555555556,0,0,0.008680555555555556,12.864583333333334,0)" xlink:href="#bf"/><use transform="matrix(0.008680555555555556,0,0,0.008680555555555556,23.32465277777778,0)" xlink:href="#bf"/><use transform="matrix(0.008680555555555556,0,0,0.008680555555555556,33.78472222222222,0)" xlink:href="#ba"/><use transform="matrix(0.008680555555555556,0,0,0.008680555555555556,44.375,0)" xlink:href="#bb"/><use transform="matrix(0.008680555555555556,0,0,0.008680555555555556,54.33159722222222,0)" xlink:href="#bb"/></g><path fill="#333" d="M135 0v-1490h581c339 0 533 210 533 503 0 295-197 500-540 500H440V0H135zm305-733h220c186 0 274-104 274-254s-88-251-275-251H440v505" id="bg"/><path fill="#333" d="M513 14c-232 0-385-159-385-421v-711h300v659c0 139 76 222 202 222 127 0 217-86 217-234v-647h301V0H864l-4-232C797-74 683 14 513 14" id="bh"/><path fill="#333" d="M754 19C571 19 479-89 437-179h-14V0H128v-1490h300v560h9c41-89 129-202 319-202 248 0 453 193 453 575 0 372-197 576-455 576zm-92-241c156 0 240-139 240-336 0-196-83-334-240-334-154 0-241 131-241 334 0 202 88 336 241 336" id="bi"/><path fill="#333" d="M428-1490V0H128v-1490h300" id="bj"/><path fill="#333" d="M128 0v-1118h300V0H128zm150-1264c-91 0-165-68-165-154 0-85 74-154 165-154 90 0 165 69 165 154 0 86-75 154-165 154" id="bk"/><path fill="#333" d="M428-647V0H128v-1490h294v586c65-146 175-228 341-228 232 0 385 159 385 421V0H847v-659c0-139-76-222-202-222-128 0-217 86-217 234" id="bl"/><g id="N"><use transform="matrix(0.008680555555555556,0,0,0.008680555555555556,0,0)" xlink:href="#bg"/><use transform="matrix(0.008680555555555556,0,0,0.008680555555555556,11.519097222222223,0)" xlink:href="#bh"/><use transform="matrix(0.008680555555555556,0,0,0.008680555555555556,22.586805555555557,0)" xlink:href="#bi"/><use transform="matrix(0.008680555555555556,0,0,0.008680555555555556,33.79340277777778,0)" xlink:href="#bj"/><use transform="matrix(0.008680555555555556,0,0,0.008680555555555556,38.611111111111114,0)" xlink:href="#bk"/><use transform="matrix(0.008680555555555556,0,0,0.008680555555555556,43.42881944444444,0)" xlink:href="#bb"/><use transform="matrix(0.008680555555555556,0,0,0.008680555555555556,53.38541666666667,0)" xlink:href="#bl"/><use transform="matrix(0.008680555555555556,0,0,0.008680555555555556,64.453125,0)" xlink:href="#ba"/><use transform="matrix(0.008680555555555556,0,0,0.008680555555555556,75.04340277777777,0)" xlink:href="#bb"/></g><path fill="#333" d="M135 0v-1490h581c339 0 533 192 533 485 0 204-94 351-264 424L1302 0H964L680-532H440V0H135zm305-779h220c186 0 274-77 274-226 0-150-88-233-275-233H440v459" id="bm"/><path fill="#333" d="M128 0v-1118h290v195h12c54-169 184-238 367-200v268c-27-8-86-15-130-15-138 0-239 95-239 234V0H128" id="bn"/><path fill="#333" d="M443 0L31-1118h319c90 293 199 572 268 885 66-313 175-593 264-885h315L784 0H443" id="bo"/><g id="O"><use transform="matrix(0.008680555555555556,0,0,0.008680555555555556,0,0)" xlink:href="#bm"/><use transform="matrix(0.008680555555555556,0,0,0.008680555555555556,11.458333333333334,0)" xlink:href="#ba"/><use transform="matrix(0.008680555555555556,0,0,0.008680555555555556,22.048611111111114,0)" xlink:href="#bd"/><use transform="matrix(0.008680555555555556,0,0,0.008680555555555556,28.559027777777782,0)" xlink:href="#bn"/><use transform="matrix(0.008680555555555556,0,0,0.008680555555555556,35.92881944444444,0)" xlink:href="#bk"/><use transform="matrix(0.008680555555555556,0,0,0.008680555555555556,40.746527777777786,0)" xlink:href="#ba"/><use transform="matrix(0.008680555555555556,0,0,0.008680555555555556,51.01562500000001,0)" xlink:href="#bo"/><use transform="matrix(0.008680555555555556,0,0,0.008680555555555556,61.35416666666667,0)" xlink:href="#ba"/><use transform="matrix(0.008680555555555556,0,0,0.008680555555555556,71.94444444444446,0)" xlink:href="#bb"/></g><path fill="#333" d="M128 418v-1536h295v188h14c41-89 129-202 319-202 248 0 453 193 453 575 0 372-197 576-455 576-183 0-275-108-317-198h-9v597H128zm534-640c156 0 240-139 240-336 0-196-83-334-240-334-154 0-241 131-241 334 0 202 88 336 241 336" id="bp"/><g id="P"><use transform="matrix(0.008680555555555556,0,0,0.008680555555555556,0,0)" xlink:href="#bg"/><use transform="matrix(0.008680555555555556,0,0,0.008680555555555556,11.519097222222223,0)" xlink:href="#bk"/><use transform="matrix(0.008680555555555556,0,0,0.008680555555555556,16.336805555555557,0)" xlink:href="#bp"/><use transform="matrix(0.008680555555555556,0,0,0.008680555555555556,27.54340277777778,0)" xlink:href="#ba"/><use transform="matrix(0.008680555555555556,0,0,0.008680555555555556,38.13368055555556,0)" xlink:href="#bj"/><use transform="matrix(0.008680555555555556,0,0,0.008680555555555556,42.95138888888889,0)" xlink:href="#bk"/><use transform="matrix(0.008680555555555556,0,0,0.008680555555555556,47.769097222222236,0)" xlink:href="#aY"/><use transform="matrix(0.008680555555555556,0,0,0.008680555555555556,58.836805555555564,0)" xlink:href="#ba"/></g><path d="M135 0v-1490h305v602h649v-602h306V0h-306v-635H440V0H135" id="bq"/><path d="M513 14c-232 0-385-159-385-421v-711h300v659c0 139 76 222 202 222 127 0 217-86 217-234v-647h301V0H864l-4-232C797-74 683 14 513 14" id="br"/><g id="Q"><use transform="matrix(0.010091145833333334,0,0,0.010091145833333334,0,0)" xlink:href="#bq"/><use transform="matrix(0.010091145833333334,0,0,0.010091145833333334,15.439453125,0)" xlink:href="#br"/><use transform="matrix(0.010091145833333334,0,0,0.010091145833333334,28.3056640625,0)" xlink:href="#an"/><use transform="matrix(0.010091145833333334,0,0,0.010091145833333334,47.166015625,0)" xlink:href="#ac"/><use transform="matrix(0.010091145833333334,0,0,0.010091145833333334,52.7666015625,0)" xlink:href="#aL"/><use transform="matrix(0.010091145833333334,0,0,0.010091145833333334,65.79427083333333,0)" xlink:href="#ac"/><use transform="matrix(0.010091145833333334,0,0,0.010091145833333334,71.39485677083333,0)" xlink:href="#ae"/><use transform="matrix(0.010091145833333334,0,0,0.010091145833333334,79.41731770833333,0)" xlink:href="#af"/></g><g id="R"><use transform="matrix(0.010091145833333334,0,0,0.010091145833333334,0,0)" xlink:href="#aH"/><use transform="matrix(0.010091145833333334,0,0,0.010091145833333334,12.180013020833334,0)" xlink:href="#Y"/><use transform="matrix(0.010091145833333334,0,0,0.010091145833333334,24.4912109375,0)" xlink:href="#an"/><use transform="matrix(0.010091145833333334,0,0,0.010091145833333334,43.3515625,0)" xlink:href="#aT"/><use transform="matrix(0.010091145833333334,0,0,0.010091145833333334,56.379231770833336,0)" xlink:href="#Y"/><use transform="matrix(0.010091145833333334,0,0,0.010091145833333334,68.6904296875,0)" xlink:href="#Z"/><use transform="matrix(0.010091145833333334,0,0,0.010091145833333334,76.82389322916667,0)" xlink:href="#ab"/><use transform="matrix(0.010091145833333334,0,0,0.010091145833333334,88.822265625,0)" xlink:href="#ae"/><use transform="matrix(0.010091145833333334,0,0,0.010091145833333334,96.390625,0)" xlink:href="#br"/><use transform="matrix(0.010091145833333334,0,0,0.010091145833333334,109.2568359375,0)" xlink:href="#Z"/><use transform="matrix(0.010091145833333334,0,0,0.010091145833333334,117.16829427083333,0)" xlink:href="#Y"/></g><g id="S"><use transform="matrix(0.010091145833333334,0,0,0.010091145833333334,0,0)" xlink:href="#ak"/><use transform="matrix(0.010091145833333334,0,0,0.010091145833333334,13.390950520833334,0)" xlink:href="#bq"/></g><g id="T"><use transform="matrix(0.010091145833333334,0,0,0.010091145833333334,0,0)" xlink:href="#aK"/><use transform="matrix(0.010091145833333334,0,0,0.010091145833333334,11.786458333333334,0)" xlink:href="#ab"/><use transform="matrix(0.010091145833333334,0,0,0.010091145833333334,23.784830729166668,0)" xlink:href="#ac"/><use transform="matrix(0.010091145833333334,0,0,0.010091145833333334,29.385416666666668,0)" xlink:href="#ad"/><use transform="matrix(0.010091145833333334,0,0,0.010091145833333334,34.98600260416667,0)" xlink:href="#Y"/><use transform="matrix(0.010091145833333334,0,0,0.010091145833333334,47.29720052083334,0)" xlink:href="#aL"/></g><path d="M135 0v-1490h997v253H440v360h640v249H440v375h694V0H135" id="bs"/><g id="U"><use transform="matrix(0.010091145833333334,0,0,0.010091145833333334,0,0)" xlink:href="#bs"/><use transform="matrix(0.010091145833333334,0,0,0.010091145833333334,12.553385416666668,0)" xlink:href="#Z"/><use transform="matrix(0.010091145833333334,0,0,0.010091145833333334,21.120768229166668,0)" xlink:href="#Z"/><use transform="matrix(0.010091145833333334,0,0,0.010091145833333334,29.0322265625,0)" xlink:href="#am"/><use transform="matrix(0.010091145833333334,0,0,0.010091145833333334,41.70670572916667,0)" xlink:href="#aM"/><use transform="matrix(0.010091145833333334,0,0,0.010091145833333334,54.57291666666667,0)" xlink:href="#Y"/><use transform="matrix(0.010091145833333334,0,0,0.010091145833333334,66.88411458333334,0)" xlink:href="#am"/><use transform="matrix(0.010091145833333334,0,0,0.010091145833333334,79.55859375000001,0)" xlink:href="#br"/><use transform="matrix(0.010091145833333334,0,0,0.010091145833333334,92.4248046875,0)" xlink:href="#X"/></g></defs></g></svg>