<svg xmlns="http://www.w3.org/2000/svg" xmlns:xlink="http://www.w3.org/1999/xlink" xmlns:lucid="lucid" width="642" height="362"><g transform="translate(-479 -159)" lucid:page-tab-id="0_0"><path d="M480 166a6 6 0 0 1 6-6h628a6 6 0 0 1 6 6v348a6 6 0 0 1-6 6H486a6 6 0 0 1-6-6z" stroke="#6db1ff" stroke-width="2" fill="#cfe4ff"/><use xlink:href="#a" transform="matrix(1,0,0,1,485,165) translate(4 348.06569777777776)"/><use xlink:href="#b" transform="matrix(1,0,0,1,485,165) translate(97.6306423611111 348.06569777777776)"/><path d="M500 426a6 6 0 0 1 6-6h568a6 6 0 0 1 6 6v28a6 6 0 0 1-6 6H506a6 6 0 0 1-6-6z" stroke="#00c2a8" stroke-width="2" fill="#b8f5ed"/><use xlink:href="#c" transform="matrix(1,0,0,1,505,425) translate(157.58029513888889 23.40277777777778)"/><use xlink:href="#d" transform="matrix(1,0,0,1,505,425) translate(285.91145833333337 23.40277777777778)"/><use xlink:href="#e" transform="matrix(1,0,0,1,505,425) translate(383.73046875 23.40277777777778)"/><path d="M510 266a6 6 0 0 1 6-6h208a6 6 0 0 1 6 6v108a6 6 0 0 1-6 6H516a6 6 0 0 1-6-6z" fill-opacity="0"/><path d="M535.8 260h19.82m9.9 0h19.8m9.92 0h19.8m9.9 0h19.82m9.9 0h19.82m9.9 0h19.8m9.92 0h9.9a6 6 0 0 1 6 6v9m0 9v18m0 9v18m0 9v18m0 9v9a6 6 0 0 1-6 6h-9.9m-9.9 0h-19.82m-9.9 0h-19.8m-9.92 0h-19.8m-9.9 0h-19.82m-9.9 0H565.5m-9.9 0h-19.8m-9.92 0H516a6 6 0 0 1-6-6v-9m0-9v-18m0-9v-18m0-9v-18m0-9v-9a6 6 0 0 1 6-6h9.9" stroke="#9391ff" stroke-width="2" fill="none"/><path d="M630 286a6 6 0 0 1 6-6h68a6 6 0 0 1 6 6v68a6 6 0 0 1-6 6h-68a6 6 0 0 1-6-6z" stroke="#9391ff" stroke-width="2" fill="#dedeff"/><use xlink:href="#f" transform="matrix(1,0,0,1,635,285) translate(0.2473958333333286 28.15972222222222)"/><use xlink:href="#g" transform="matrix(1,0,0,1,635,285) translate(11.979166666666664 53.97222222222222)"/><path d="M530 286a6 6 0 0 1 6-6h68a6 6 0 0 1 6 6v68a6 6 0 0 1-6 6h-68a6 6 0 0 1-6-6z" stroke="#9391ff" stroke-width="2" fill="#dedeff"/><use xlink:href="#f" transform="matrix(1,0,0,1,535,285) translate(0.2473958333333286 28.15972222222222)"/><use xlink:href="#g" transform="matrix(1,0,0,1,535,285) translate(11.979166666666664 53.97222222222222)"/><path d="M990 286a6 6 0 0 1 6-6h68a6 6 0 0 1 6 6v68a6 6 0 0 1-6 6h-68a6 6 0 0 1-6-6z" stroke="#e08fff" stroke-width="2" fill="#f4d9ff"/><use xlink:href="#h" transform="matrix(1,0,0,1,995,285) translate(4.670138888888886 41.28472222222222)"/><path d="M890 286a6 6 0 0 1 6-6h68a6 6 0 0 1 6 6v68a6 6 0 0 1-6 6h-68a6 6 0 0 1-6-6z" stroke="#e08fff" stroke-width="2" fill="#f4d9ff"/><use xlink:href="#h" transform="matrix(1,0,0,1,895,285) translate(4.670138888888886 41.28472222222222)"/><path d="M790 286a6 6 0 0 1 6-6h68a6 6 0 0 1 6 6v68a6 6 0 0 1-6 6h-68a6 6 0 0 1-6-6z" stroke="#e08fff" stroke-width="2" fill="#f4d9ff"/><use xlink:href="#h" transform="matrix(1,0,0,1,795,285) translate(4.670138888888886 41.28472222222222)"/><path d="M770 266a6 6 0 0 1 6-6h308a6 6 0 0 1 6 6v108a6 6 0 0 1-6 6H776a6 6 0 0 1-6-6z" fill-opacity="0"/><path d="M796.53 260h20.54m10.26 0h20.54m10.26 0h20.54m10.26 0h20.54m10.26 0h20.54m10.26 0h20.54m10.26 0h20.54m10.26 0h20.54m10.26 0h20.54m10.26 0H1084a6 6 0 0 1 6 6v9m0 9v18m0 9v18m0 9v18m0 9v9a6 6 0 0 1-6 6h-10.27m-10.26 0h-20.54m-10.26 0h-20.54m-10.26 0h-20.54m-10.26 0h-20.54m-10.26 0h-20.54m-10.26 0h-20.54m-10.26 0h-20.54m-10.26 0h-20.54m-10.26 0h-20.54m-10.26 0H776a6 6 0 0 1-6-6v-9m0-9v-18m0-9v-18m0-9v-18m0-9v-9a6 6 0 0 1 6-6h10.27" stroke="#e08fff" stroke-width="2" fill="none"/><path d="M490 226a6 6 0 0 1 6-6h608a6 6 0 0 1 6 6v168a6 6 0 0 1-6 6H496a6 6 0 0 1-6-6z" fill-opacity="0"/><path d="M516.27 220h20.26m10.14 0h20.26m10.14 0h20.26m10.14 0h20.26m10.14 0h20.26m10.14 0h20.26m10.14 0h20.26m10.14 0h20.26m10.14 0h20.26m10.14 0h20.26m10.14 0h20.26m10.14 0h20.26m10.14 0h20.26m10.14 0h20.26m10.14 0h20.26m10.14 0h20.26m10.14 0h20.26m10.14 0h20.26m10.14 0h20.26m10.14 0H1104a6 6 0 0 1 6 6v9.33m0 9.34v18.66m0 9.34v18.66m0 9.34v18.66m0 9.34v18.66m0 9.34v18.66m0 9.34V394a6 6 0 0 1-6 6h-10.13m-10.14 0h-20.26m-10.14 0h-20.26m-10.14 0h-20.26m-10.14 0h-20.26m-10.14 0h-20.26m-10.14 0h-20.26m-10.14 0h-20.26m-10.14 0h-20.26m-10.14 0h-20.26m-10.14 0h-20.26m-10.14 0h-20.26m-10.14 0h-20.26m-10.14 0h-20.26m-10.14 0h-20.26m-10.14 0h-20.26m-10.14 0h-20.26m-10.14 0h-20.26m-10.14 0h-20.26m-10.14 0h-20.26m-10.14 0H496a6 6 0 0 1-6-6v-9.33m0-9.34v-18.66m0-9.34v-18.66m0-9.34v-18.66m0-9.34v-18.66m0-9.34v-18.66m0-9.34V226a6 6 0 0 1 6-6h10.13" stroke="#1071e5" stroke-width="2" fill="none"/><g><use xlink:href="#i" transform="matrix(1,0,0,1,495,225) translate(214.3115234375 19.375)"/><use xlink:href="#j" transform="matrix(1,0,0,1,495,225) translate(328.3154296875 19.375)"/></g><defs><path d="M180 0v-1490h510c348 0 508 209 508 474 0 266-160 477-507 477H370V0H180zm190-706h312c236 0 327-133 327-310 0-176-91-307-329-307H370v617" id="k"/><path d="M338-670V0H158v-1490h180v566c73-149 190-208 336-208 226 0 379 139 379 422V0H872v-695c0-172-96-275-252-275-161 0-282 109-282 300" id="l"/><path d="M140 405l46-156c120 36 205 19 263-150l32-93L54-1118h197c107 313 237 620 324 950 87-331 219-637 326-950h196L606 167c-68 178-176 259-334 259-64 0-113-12-132-21" id="m"/><path d="M538 24C308 24 148-78 108-271l171-41c32 123 123 178 257 178 156 0 256-77 256-169 0-77-54-128-164-154l-186-44c-203-48-300-148-300-305 0-192 176-326 414-326 230 0 351 112 402 269l-163 42c-31-80-94-158-238-158-133 0-233 69-233 162 0 83 57 129 188 160l169 40c203 48 298 149 298 302 0 196-179 339-441 339" id="n"/><path d="M158 0v-1118h180V0H158zm91-1301c-68 0-125-53-125-119s57-119 125-119c69 0 126 53 126 119s-57 119-126 119" id="o"/><path d="M613 24c-304 0-509-231-509-576 0-350 205-580 509-580 216 0 392 114 453 309l-173 49c-33-115-133-197-280-197-223 0-326 196-326 419 0 220 103 415 326 415 150 0 252-85 285-206l172 49C1010-95 832 24 613 24" id="p"/><path d="M471 26C259 26 90-98 90-318c0-256 228-303 435-329 202-27 287-16 287-108 0-139-79-219-234-219-161 0-248 86-283 164l-173-57c86-203 278-265 451-265 150 0 419 46 419 395V0H815v-152h-12C765-73 660 26 471 26zm31-159c199 0 310-134 310-271v-155c-30 35-226 55-295 64-131 17-246 59-246 186 0 116 97 176 231 176" id="q"/><path d="M338-1490V0H158v-1490h180" id="r"/><g id="a"><use transform="matrix(0.010850694444444444,0,0,0.010850694444444444,0,0)" xlink:href="#k"/><use transform="matrix(0.010850694444444444,0,0,0.010850694444444444,14.192708333333332,0)" xlink:href="#l"/><use transform="matrix(0.010850694444444444,0,0,0.010850694444444444,27.00737847222222,0)" xlink:href="#m"/><use transform="matrix(0.010850694444444444,0,0,0.010850694444444444,39.49652777777778,0)" xlink:href="#n"/><use transform="matrix(0.010850694444444444,0,0,0.010850694444444444,51.22612847222222,0)" xlink:href="#o"/><use transform="matrix(0.010850694444444444,0,0,0.010850694444444444,56.608072916666664,0)" xlink:href="#p"/><use transform="matrix(0.010850694444444444,0,0,0.010850694444444444,69.52039930555554,0)" xlink:href="#q"/><use transform="matrix(0.010850694444444444,0,0,0.010850694444444444,81.99869791666666,0)" xlink:href="#r"/></g><path d="M657 26c-323 0-524-166-541-416h195c15 169 171 246 346 246 202 0 356-106 356-265 5-203-294-238-475-293-239-73-380-191-380-389 0-252 224-419 512-419 294 0 499 171 508 396H992c-17-145-151-228-328-228-193 0-321 102-321 242 0 156 175 211 284 241l149 41c160 44 422 134 422 412 0 244-197 432-541 432" id="s"/><path d="M628 24c-324 0-524-230-524-574 0-343 198-582 503-582 237 0 487 146 487 559v75H286c9 234 145 362 343 362 132 0 231-58 273-172l174 48C1024-91 857 24 628 24zM287-650h624c-17-190-120-322-304-322-192 0-309 151-320 322" id="t"/><path d="M158 0v-1118h174v172h12c41-113 157-188 290-188 26 0 70 2 91 3v181c-11-2-60-10-108-10-161 0-279 109-279 260V0H158" id="u"/><path d="M481 0L54-1118h197c107 314 236 620 325 951 87-331 217-637 324-951h197L670 0H481" id="v"/><g id="b"><use transform="matrix(0.010850694444444444,0,0,0.010850694444444444,0,0)" xlink:href="#s"/><use transform="matrix(0.010850694444444444,0,0,0.010850694444444444,14.2578125,0)" xlink:href="#t"/><use transform="matrix(0.010850694444444444,0,0,0.010850694444444444,27.213541666666664,0)" xlink:href="#u"/><use transform="matrix(0.010850694444444444,0,0,0.010850694444444444,35.92664930555555,0)" xlink:href="#v"/><use transform="matrix(0.010850694444444444,0,0,0.010850694444444444,47.98177083333333,0)" xlink:href="#t"/><use transform="matrix(0.010850694444444444,0,0,0.010850694444444444,60.937499999999986,0)" xlink:href="#u"/></g><path d="M180 0v-1490h190v644h782v-644h190V0h-190v-678H370V0H180" id="w"/><path d="M158 418v-1536h174v179h20c37-59 106-193 324-193 279 0 474 222 474 576 0 356-194 580-473 580-213 0-288-135-325-197h-14v591H158zm492-555c209 0 317-186 317-421 0-232-105-413-317-413-206 0-314 166-314 413 0 249 111 421 314 421" id="x"/><path d="M613 24c-304 0-509-231-509-576 0-350 205-580 509-580 305 0 511 230 511 580 0 345-206 576-511 576zm0-161c226 0 329-195 329-415 0-222-103-419-329-419-223 0-326 196-326 419 0 220 103 415 326 415" id="y"/><path d="M295 13c-75 0-135-60-135-135s60-135 135-135 135 60 135 135S370 13 295 13zm0-809c-75 0-135-60-135-135s60-135 135-135 135 60 135 135-60 135-135 135" id="z"/><g id="c"><use transform="matrix(0.010850694444444444,0,0,0.010850694444444444,0,0)" xlink:href="#w"/><use transform="matrix(0.010850694444444444,0,0,0.010850694444444444,16.623263888888886,0)" xlink:href="#m"/><use transform="matrix(0.010850694444444444,0,0,0.010850694444444444,29.112413194444443,0)" xlink:href="#x"/><use transform="matrix(0.010850694444444444,0,0,0.010850694444444444,42.71918402777777,0)" xlink:href="#t"/><use transform="matrix(0.010850694444444444,0,0,0.010850694444444444,55.674913194444436,0)" xlink:href="#u"/><use transform="matrix(0.010850694444444444,0,0,0.010850694444444444,64.38802083333333,0)" xlink:href="#v"/><use transform="matrix(0.010850694444444444,0,0,0.010850694444444444,76.87717013888889,0)" xlink:href="#o"/><use transform="matrix(0.010850694444444444,0,0,0.010850694444444444,82.25911458333333,0)" xlink:href="#n"/><use transform="matrix(0.010850694444444444,0,0,0.010850694444444444,93.98871527777777,0)" xlink:href="#y"/><use transform="matrix(0.010850694444444444,0,0,0.010850694444444444,107.31336805555556,0)" xlink:href="#u"/><use transform="matrix(0.010850694444444444,0,0,0.010850694444444444,115.67925347222221,0)" xlink:href="#z"/></g><path d="M65 0l393-574-370-544h210c88 136 192 297 267 435 67-142 176-302 264-435h206L661-564 1053 0H844c-94-144-206-310-287-458C484-308 366-142 273 0H65" id="A"/><path d="M158 0v-1118h175l1 205c55-151 181-225 313-225 147 0 245 90 285 228 53-141 190-228 352-228 194 0 352 125 352 384V0h-181v-749c0-161-105-225-225-225-151 0-243 103-243 244V0H807v-767c0-124-93-207-219-207-131 0-250 92-250 270V0H158" id="B"/><g id="d"><use transform="matrix(0.010850694444444444,0,0,0.010850694444444444,0,0)" xlink:href="#k"/><use transform="matrix(0.010850694444444444,0,0,0.010850694444444444,14.192708333333332,0)" xlink:href="#u"/><use transform="matrix(0.010850694444444444,0,0,0.010850694444444444,22.189670138888886,0)" xlink:href="#y"/><use transform="matrix(0.010850694444444444,0,0,0.010850694444444444,35.01519097222222,0)" xlink:href="#A"/><use transform="matrix(0.010850694444444444,0,0,0.010850694444444444,47.14626736111111,0)" xlink:href="#B"/><use transform="matrix(0.010850694444444444,0,0,0.010850694444444444,66.61241319444444,0)" xlink:href="#y"/><use transform="matrix(0.010850694444444444,0,0,0.010850694444444444,79.43793402777777,0)" xlink:href="#A"/></g><path d="M600 0L52-1490h200c166 485 304 806 458 1336 156-533 285-846 449-1336h202L819 0H600" id="C"/><path d="M180 0v-1490h908v168H370v486h669v168H370v500h727V0H180" id="D"/><g id="e"><use transform="matrix(0.010850694444444444,0,0,0.010850694444444444,0,0)" xlink:href="#C"/><use transform="matrix(0.010850694444444444,0,0,0.010850694444444444,15.33203125,0)" xlink:href="#D"/></g><path d="M783 20c-382 0-661-292-661-764 0-473 279-766 661-766 302 0 548 182 601 489h-190c-42-204-217-313-411-313-268 0-476 208-476 590 0 381 209 588 476 588 195 0 369-110 411-313h190c-52 303-296 489-601 489" id="E"/><path d="M338-670V0H158v-1118h173l1 207c72-158 192-221 342-221 226 0 378 139 378 422V0H872v-695c0-172-96-275-252-275-161 0-282 109-282 300" id="F"/><path d="M598-1118v154H368v674c0 100 37 144 132 144 23 0 62-6 92-12L629-6c-37 13-88 20-134 20-193 0-307-107-307-290v-688H20v-154h168v-266h180v266h230" id="G"/><path d="M798-719v166H144v-166h654" id="H"/><g id="f"><use transform="matrix(0.008680555555555556,0,0,0.008680555555555556,0,0)" xlink:href="#E"/><use transform="matrix(0.008680555555555556,0,0,0.008680555555555556,12.986111111111112,0)" xlink:href="#y"/><use transform="matrix(0.008680555555555556,0,0,0.008680555555555556,23.645833333333336,0)" xlink:href="#F"/><use transform="matrix(0.008680555555555556,0,0,0.008680555555555556,34.14930555555556,0)" xlink:href="#G"/><use transform="matrix(0.008680555555555556,0,0,0.008680555555555556,39.96527777777778,0)" xlink:href="#u"/><use transform="matrix(0.008680555555555556,0,0,0.008680555555555556,46.362847222222236,0)" xlink:href="#y"/><use transform="matrix(0.008680555555555556,0,0,0.008680555555555556,57.02256944444445,0)" xlink:href="#r"/><use transform="matrix(0.008680555555555556,0,0,0.008680555555555556,61.32812500000001,0)" xlink:href="#H"/></g><g id="g"><use transform="matrix(0.008680555555555556,0,0,0.008680555555555556,0,0)" xlink:href="#x"/><use transform="matrix(0.008680555555555556,0,0,0.008680555555555556,10.885416666666668,0)" xlink:href="#r"/><use transform="matrix(0.008680555555555556,0,0,0.008680555555555556,15.190972222222223,0)" xlink:href="#q"/><use transform="matrix(0.008680555555555556,0,0,0.008680555555555556,25.173611111111118,0)" xlink:href="#F"/><use transform="matrix(0.008680555555555556,0,0,0.008680555555555556,35.677083333333336,0)" xlink:href="#t"/></g><path d="M458 0L52-1490h194c108 439 233 855 324 1313 92-459 221-873 331-1313h216c110 438 234 854 330 1307 92-455 216-869 323-1307h196L1558 0h-221l-256-944c-26-95-50-200-73-331-22 122-44 223-73 331L680 0H458" id="I"/><path d="M158 0v-1490h180v865h22l478-493h223L593-638 1096 0H865L456-523 338-412V0H158" id="J"/><g id="h"><use transform="matrix(0.008680555555555556,0,0,0.008680555555555556,0,0)" xlink:href="#I"/><use transform="matrix(0.008680555555555556,0,0,0.008680555555555556,16.614583333333332,0)" xlink:href="#y"/><use transform="matrix(0.008680555555555556,0,0,0.008680555555555556,27.274305555555557,0)" xlink:href="#u"/><use transform="matrix(0.008680555555555556,0,0,0.008680555555555556,34.24479166666667,0)" xlink:href="#J"/><use transform="matrix(0.008680555555555556,0,0,0.008680555555555556,43.60243055555556,0)" xlink:href="#t"/><use transform="matrix(0.008680555555555556,0,0,0.008680555555555556,53.96701388888889,0)" xlink:href="#u"/></g><path d="M180 0v-1490h190c0 262 1 526-3 784 217-279 467-523 702-784h249L716-845 1319 0h-225L585-716 370-489V0H180" id="K"/><path d="M537 14c-226 0-379-139-379-422v-710h180v695c0 172 97 275 253 275 160 0 281-109 281-300v-670h181V0H879v-209C806-46 684 14 537 14" id="L"/><path d="M677 24c-213 0-288-135-325-197h-20V0H158v-1490h180v551h14c37-59 106-193 324-193 279 0 474 222 474 576 0 356-194 580-473 580zm-27-161c209 0 317-186 317-421 0-232-105-413-317-413-206 0-314 166-314 413 0 249 111 421 314 421" id="M"/><g id="i"><use transform="matrix(0.009765625,0,0,0.009765625,0,0)" xlink:href="#K"/><use transform="matrix(0.009765625,0,0,0.009765625,12.763671875,0)" xlink:href="#L"/><use transform="matrix(0.009765625,0,0,0.009765625,24.58984375,0)" xlink:href="#M"/><use transform="matrix(0.009765625,0,0,0.009765625,36.8359375,0)" xlink:href="#t"/><use transform="matrix(0.009765625,0,0,0.009765625,48.49609375,0)" xlink:href="#u"/><use transform="matrix(0.009765625,0,0,0.009765625,56.337890625,0)" xlink:href="#F"/><use transform="matrix(0.009765625,0,0,0.009765625,68.154296875,0)" xlink:href="#t"/><use transform="matrix(0.009765625,0,0,0.009765625,79.814453125,0)" xlink:href="#G"/><use transform="matrix(0.009765625,0,0,0.009765625,86.162109375,0)" xlink:href="#t"/><use transform="matrix(0.009765625,0,0,0.009765625,97.822265625,0)" xlink:href="#n"/></g><g id="j"><use transform="matrix(0.009765625,0,0,0.009765625,0,0)" xlink:href="#E"/><use transform="matrix(0.009765625,0,0,0.009765625,14.609375,0)" xlink:href="#r"/><use transform="matrix(0.009765625,0,0,0.009765625,19.453125,0)" xlink:href="#L"/><use transform="matrix(0.009765625,0,0,0.009765625,31.279296875,0)" xlink:href="#n"/><use transform="matrix(0.009765625,0,0,0.009765625,41.8359375,0)" xlink:href="#G"/><use transform="matrix(0.009765625,0,0,0.009765625,48.18359375,0)" xlink:href="#t"/><use transform="matrix(0.009765625,0,0,0.009765625,59.84375,0)" xlink:href="#u"/></g></defs></g></svg>