<svg xmlns="http://www.w3.org/2000/svg" xmlns:xlink="http://www.w3.org/1999/xlink" xmlns:lucid="lucid" width="2146" height="1196"><g transform="translate(-534 355)" lucid:page-tab-id="0_0"><path d="M1480 6a6 6 0 0 1 6-6h508a6 6 0 0 1 6 6v228a6 6 0 0 1-6 6h-508a6 6 0 0 1-6-6z" stroke="#fc9432" stroke-width="2" fill="#ffdda6"/><path d="M1480 41h520" stroke="#fc9432" stroke-width="2" fill="none"/><use xlink:href="#a" transform="matrix(1,0,0,1,1488,8.000000000000014) translate(190.80729166666666 20.517903645833336)"/><path d="M2160 6.67a6 6 0 0 1 6-6h468a6 6 0 0 1 6 6v467a6 6 0 0 1-6 6h-468a6 6 0 0 1-6-6z" stroke="#fc9432" stroke-width="2" fill="#ffdda6"/><path d="M2160 41.67h480" stroke="#fc9432" stroke-width="2" fill="none"/><use xlink:href="#b" transform="matrix(1,0,0,1,2168,8.666666666666629) translate(191.83723958333334 20.517903645833336)"/><path d="M640 6a6 6 0 0 1 6-6h674.67a6 6 0 0 1 6 6v628a6 6 0 0 1-6 6H646a6 6 0 0 1-6-6z" stroke="#54c45e" stroke-width="2" fill="#c3f7c8"/><path d="M640 41h686.67" stroke="#54c45e" stroke-width="2" fill="none"/><use xlink:href="#c" transform="matrix(1,0,0,1,648,8) translate(287.6780598958333 20.517903645833336)"/><use xlink:href="#d" transform="matrix(1,0,0,1,648,8) translate(327.19498697916663 20.517903645833336)"/><use xlink:href="#e" transform="matrix(1,0,0,1,652,49.005859375) translate(0 287.0149739583333)"/><use xlink:href="#f" transform="matrix(1,0,0,1,652,49.005859375) translate(0 312.0208333333333)"/><path d="M940.17 120.33c22 0 39.83 17.84 39.83 39.84 0 22-17.83 39.83-39.83 39.83H759.83c-22 0-39.83-17.83-39.83-39.83s17.83-39.84 39.83-39.84z" stroke="#000" stroke-width="2" fill-opacity="0"/><use xlink:href="#g" transform="matrix(1,0,0,1,725.0000000000001,125.33333333333326) translate(14.577907986111128 43.40277777777778)"/><use xlink:href="#h" transform="matrix(1,0,0,1,725.0000000000001,125.33333333333326) translate(120.1877170138889 43.40277777777778)"/><path d="M1480 286a6 6 0 0 1 6-6h508a6 6 0 0 1 6 6v228a6 6 0 0 1-6 6h-508a6 6 0 0 1-6-6z" stroke="#fc9432" stroke-width="2" fill="#ffdda6"/><path d="M1480 321h520" stroke="#fc9432" stroke-width="2" fill="none"/><use xlink:href="#i" transform="matrix(1,0,0,1,1488,288) translate(231.52555338541666 20.517903645833336)"/><path d="M1480 566a6 6 0 0 1 6-6h508a6 6 0 0 1 6 6v228a6 6 0 0 1-6 6h-508a6 6 0 0 1-6-6z" stroke="#fc9432" stroke-width="2" fill="#ffdda6"/><path d="M1480 601h520" stroke="#fc9432" stroke-width="2" fill="none"/><use xlink:href="#j" transform="matrix(1,0,0,1,1488.0000000000002,568) translate(217.47314453125 20.517903645833336)"/><path d="M1240.83 180c21.63 0 39.17 17.54 39.17 39.17 0 21.63-17.54 39.16-39.17 39.16h-141.66c-21.63 0-39.17-17.53-39.17-39.16 0-21.63 17.54-39.17 39.17-39.17z" stroke="#000" stroke-width="2" fill-opacity="0"/><use xlink:href="#k" transform="matrix(1,0,0,1,1065,185) translate(16.56228298611113 43.09027777777778)"/><use xlink:href="#l" transform="matrix(1,0,0,1,1065,185) translate(101.63172743055557 43.09027777777778)"/><path d="M981.5 160.18l1.88.06 2.22.22 2.1.33 1.98.45 1.93.57 1.88.7 1.86.8 1.86.98 1.9 1.15 1.93 1.36 2.05 1.64 2.2 2 2.5 2.58 3 3.52 4.37 5.92 14.08 20.33 3 3.5 2.48 2.58 2.22 2 2.05 1.65 1.94 1.36 1.9 1.13.46.24" stroke="#3a414a" stroke-linejoin="round" fill="none"/><path d="M981.53 159.7l-.03.96-.53-.02.03-.46v-.5z" stroke="#3a414a" stroke-width=".05" fill="#3a414a"/><path d="M1057.43 218.78l-14.96 1.07 2.22-9z" stroke="#3a414a" fill="#3a414a"/><path d="M1682.22 80c22.1 0 40 17.9 40 40s-17.9 40-40 40H1540c-22.1 0-40-17.9-40-40s17.9-40 40-40z" stroke="#000" stroke-width="2" fill-opacity="0"/><use xlink:href="#m" transform="matrix(1,0,0,1,1505,85) translate(30.404079861111114 43.40277777777778)"/><use xlink:href="#n" transform="matrix(1,0,0,1,1505,85) translate(111.01388888888889 43.40277777777778)"/><path d="M1498.5 120l-6.7.15-6.64.4-6.16.66-5.77.86-5.46 1.04-5.2 1.22-5 1.4-4.83 1.57-4.73 1.75-4.66 1.96-4.67 2.2-4.73 2.48-4.87 2.8-5.12 3.27-5.58 3.88-6.43 4.9-8.57 7.1-35.3 31.02-6.45 4.9-5.57 3.87-5.12 3.25-4.87 2.8-4.73 2.5-4.66 2.18-4.68 1.97-4.74 1.76-4.84 1.57-5 1.4-5.2 1.22-5.45 1.03-5.77.86-3.64.38" stroke="#3a414a" stroke-linejoin="round" fill="none"/><path d="M1499 120l.02.47-.53.02-.03-.96.56-.02z" stroke="#3a414a" stroke-width=".05" fill="#3a414a"/><path d="M1282.62 219.1l14-5.37.48 9.26z" stroke="#3a414a" fill="#3a414a"/><path d="M1723.72 120l9.18.2 7.9.5 6.7.73 5.98.9 5.6 1.1 5.58 1.37 6.46 1.87 26.44 8.53 5.6 1.36 5.58 1.1 5.97.9 6.73.73 1.2.07" stroke="#3a414a" stroke-linejoin="round" fill="none"/><path d="M1723.74 119.54l-.02.95-.53-.03.02-.46-.02-.47z" stroke="#3a414a" stroke-width=".05" fill="#3a414a"/><path d="M1837.38 139.94l-14.43 4.08.36-9.26z" stroke="#3a414a" fill="#3a414a"/><path d="M940.17 280c22 0 39.83 17.83 39.83 39.83s-17.83 39.84-39.83 39.84H759.83c-22 0-39.83-17.84-39.83-39.84 0-22 17.83-39.83 39.83-39.83z" stroke="#000" stroke-width="2" fill-opacity="0"/><use xlink:href="#o" transform="matrix(1,0,0,1,725.0000000000001,285) translate(30.50672743055557 43.40277777777778)"/><use xlink:href="#h" transform="matrix(1,0,0,1,725.0000000000001,285) translate(104.25889756944446 43.40277777777778)"/><path d="M981.5 319.84l99.32 1.6 12.46-.77 9.5-1 7.6-1.1 6.3-1.2 5.35-1.26 4.6-1.27 4.02-1.3 3.55-1.32 3.16-1.32 2.85-1.34 2.58-1.34 2.34-1.35 2.14-1.36 1.97-1.38 1.83-1.38 1.68-1.4 1.58-1.4 1.47-1.45 1.36-1.48 1.3-1.5 1.2-1.5 1.14-1.58 1.07-1.6 1-1.68.95-1.72.9-1.8.82-1.86.78-1.96.7-2.05.67-2.17.5-2.02" stroke="#3a414a" stroke-linejoin="round" fill="none"/><path d="M981.52 319.37v.95h-.55l.03-.47v-.5z" stroke="#3a414a" stroke-width=".05" fill="#3a414a"/><path d="M1169.82 260.94l3.04 14.7-9.2-1.03z" stroke="#3a414a" fill="#3a414a"/><path d="M1180.83 360.83c21.63 0 39.17 17.54 39.17 39.17 0 21.63-17.54 39.17-39.17 39.17h-141.66c-21.63 0-39.17-17.54-39.17-39.17 0-21.63 17.54-39.17 39.17-39.17z" stroke="#000" stroke-width="2" fill-opacity="0"/><use xlink:href="#p" transform="matrix(1,0,0,1,1005,365.83333333333326) translate(8.1801215277778 43.09027777777778)"/><use xlink:href="#q" transform="matrix(1,0,0,1,1005,365.83333333333326) translate(99.71657986111111 43.09027777777778)"/><path d="M980.83 479.67c21.63 0 39.17 17.53 39.17 39.16 0 21.63-17.54 39.17-39.17 39.17H839.17c-21.63 0-39.17-17.54-39.17-39.17 0-21.63 17.54-39.16 39.17-39.16z" stroke="#000" stroke-width="2" fill-opacity="0"/><use xlink:href="#r" transform="matrix(1,0,0,1,805,484.66666666666663) translate(11.440755208333343 43.09027777777778)"/><use xlink:href="#q" transform="matrix(1,0,0,1,805,484.66666666666663) translate(96.45594618055554 43.09027777777778)"/><path d="M670-314a6 6 0 0 1 6-6h388a6 6 0 0 1 6 6v148a6 6 0 0 1-6 6H676a6 6 0 0 1-6-6z" stroke="#d916a8" stroke-width="2" fill="#ffd6f5"/><path d="M670-279h400" stroke="#d916a8" stroke-width="2" fill="none"/><use xlink:href="#s" transform="matrix(1,0,0,1,678,-312) translate(181.53548177083334 20.517903645833336)"/><path d="M941.1-260c22.1 0 40 17.9 40 40s-17.9 40-40 40H798.9c-22.1 0-40-17.9-40-40s17.9-40 40-40z" stroke="#000" stroke-width="2" fill-opacity="0"/><use xlink:href="#t" transform="matrix(1,0,0,1,763.8901707819492,-255) translate(39.14973958333334 43.40277777777778)"/><use xlink:href="#u" transform="matrix(1,0,0,1,763.8901707819492,-255) translate(94.98741319444446 43.40277777777778)"/><path d="M870-178.5l-1.04 53.58-2.32 37.35-4.08 38.25-9.2 77.22-2.32 37.36-.72 37.7" stroke="#3a414a" stroke-linejoin="round" fill="none"/><path d="M870.47-178.47l-.96-.02.02-.5h.96z" stroke="#3a414a" stroke-width=".05" fill="#3a414a"/><path d="M850.03 117.72l-4.36-14.36 9.27.18z" stroke="#3a414a" fill="#3a414a"/><path d="M757.38-220l-4.9.1-5.26.34-5.18.55-5.1.74-5.04.96-4.98 1.17-4.94 1.38-4.92 1.6-4.9 1.83-4.9 2.06-4.93 2.3-4.95 2.6-4.97 2.88-5.02 3.18-5.07 3.53-5.14 3.9-5.2 4.33-5.3 4.77-5.4 5.28-5.5 5.86-5.58 6.47-5.68 7.18-5.77 7.96-5.86 8.83-5.93 9.77-5.96 10.86-5.96 12-5.9 13.26-5.76 14.57-5.54 15.93-5.2 17.28-4.77 18.54-4.17 19.66-3.47 20.53-2.65 21.1-1.8 21.25-.87 21.05v20.46l.82 19.58 1.54 18.47 2.17 17.2 2.7 15.9 3.08 14.53 3.4 13.26 3.64 12.04 3.8 10.92 3.9 9.9 4 8.96 4.04 8.13 4.05 7.38 4.07 6.7 4.05 6.1 4.05 5.58 4.03 5.1 4 4.64 4 4.26 4 3.9 3.98 3.6 3.98 3.28 3.98 3.03 4 2.8 4 2.53 4.05 2.34 4.07 2.13 4.13 1.94 4.18 1.76 4.25 1.58 4.33 1.4 4.43 1.24 4.52 1.06 4.65.9 3.9.57" stroke="#3a414a" stroke-linejoin="round" fill="none"/><path d="M757.9-220v.47l-.52.02-.02-.96.56-.02z" stroke="#3a414a" stroke-width=".05" fill="#3a414a"/><path d="M717.4 319.73l-14.56 3.67.62-9.25z" stroke="#3a414a" fill="#3a414a"/><path d="M1960 188c0 6.63-26.86 12-60 12s-60-5.37-60-12V92c0-6.63 26.86-12 60-12s60 5.37 60 12z" stroke="#000" stroke-width="2" fill-opacity="0"/><path d="M1960 92c0 6.63-26.86 12-60 12s-60-5.37-60-12" stroke="#000" stroke-width="2" fill="none"/><use xlink:href="#v" transform="matrix(1,0,0,1,1845,109) translate(25.41015625 51.09027777777778)"/><path d="M1960 448c0 6.63-26.86 12-60 12s-60-5.37-60-12v-96c0-6.63 26.86-12 60-12s60 5.37 60 12z" stroke="#000" stroke-width="2" fill-opacity="0"/><path d="M1960 352c0 6.63-26.86 12-60 12s-60-5.37-60-12" stroke="#000" stroke-width="2" fill="none"/><use xlink:href="#w" transform="matrix(1,0,0,1,1845,369) translate(29.376085069444446 34.96527777777778)"/><use xlink:href="#x" transform="matrix(1,0,0,1,1845,369) translate(13.968098958333336 67.23090277777777)"/><path d="M1960 748c0 6.63-26.86 12-60 12s-60-5.37-60-12v-96c0-6.63 26.86-12 60-12s60 5.37 60 12z" stroke="#000" stroke-width="2" fill-opacity="0"/><path d="M1960 652c0 6.63-26.86 12-60 12s-60-5.37-60-12" stroke="#000" stroke-width="2" fill="none"/><use xlink:href="#y" transform="matrix(1,0,0,1,1845,669) translate(19.344618055555557 34.96527777777778)"/><use xlink:href="#x" transform="matrix(1,0,0,1,1845,669) translate(13.968098958333336 67.23090277777777)"/><path d="M1682.22 400c22.1 0 40 17.9 40 40s-17.9 40-40 40H1540c-22.1 0-40-17.9-40-40s17.9-40 40-40z" stroke="#000" stroke-width="2" fill-opacity="0"/><use xlink:href="#z" transform="matrix(1,0,0,1,1505,405) translate(48.15581597222222 43.40277777777778)"/><path d="M1682.22 620c22.1 0 40 17.9 40 40s-17.9 40-40 40H1540c-22.1 0-40-17.9-40-40s17.9-40 40-40z" stroke="#000" stroke-width="2" fill-opacity="0"/><use xlink:href="#A" transform="matrix(1,0,0,1,1505,625) translate(38.12434895833333 43.40277777777778)"/><path d="M1723.72 440l4.62-.1 4.58-.3 4.15-.45 3.83-.58 3.56-.7 3.37-.82 3.22-.93 3.13-1.05 3.1-1.2 3.13-1.36 3.28-1.58 3.57-1.93 4.3-2.6 9.32-6.24 9.8-6.56 4.3-2.6 3.57-1.92 3.27-1.6 3.14-1.36 3.1-1.2 3.13-1.04 3.22-.93 3.36-.8 3.56-.7 1.36-.22" stroke="#3a414a" stroke-linejoin="round" fill="none"/><path d="M1723.74 440.46l-.55.02.02-.47-.02-.48h.52z" stroke="#3a414a" stroke-width=".05" fill="#3a414a"/><path d="M1837.4 400.12l-13.9 5.7-.7-9.25z" stroke="#3a414a" fill="#3a414a"/><path d="M1723.72 660l4.62.1 4.58.3 4.15.45 3.83.58 3.56.7 3.37.82 3.22.93 3.13 1.05 3.1 1.2 3.13 1.36 3.28 1.58 3.57 1.93 4.3 2.6 9.32 6.24 9.8 6.56 4.3 2.6 3.57 1.92 3.27 1.6 3.14 1.36 3.1 1.2 3.13 1.04 3.22.93 3.36.8 3.56.72 1.36.2" stroke="#3a414a" stroke-linejoin="round" fill="none"/><path d="M1723.74 659.54l-.02.95-.53-.03.02-.46-.02-.48z" stroke="#3a414a" stroke-width=".05" fill="#3a414a"/><path d="M1837.4 699.88l-14.6 3.55.7-9.24z" stroke="#3a414a" fill="#3a414a"/><path d="M1221.5 400l26.1.53 21.1 1.32 17.75 1.85 15.83 2.34 15.28 2.9 17.1 4.04 67.78 18.07 15.28 2.9 15.83 2.35 17.74 1.85 21.1 1.32 10.22.2" stroke="#3a414a" stroke-linejoin="round" fill="none"/><path d="M1221.53 399.54l-.02.94h-.53l.03-.46v-.5z" stroke="#3a414a" stroke-width=".05" fill="#3a414a"/><path d="M1497.38 439.97l-14.35 4.35.18-9.27z" stroke="#3a414a" fill="#3a414a"/><path d="M1021.5 518.84l23.28.48 21 1.3 18.84 2 17.18 2.52 15.92 3.03 15 3.52 14.34 4 14.02 4.55 14.05 5.23 14.57 6.13 16 7.54 19.95 10.47 88.65 50.1 16 7.53 14.57 6.13 14.05 5.22 14.02 4.56 14.35 4 14.98 3.52 15.92 3.03 17.18 2.53 18.85 1.97 21 1.3 7.4.16" stroke="#3a414a" stroke-linejoin="round" fill="none"/><path d="M1021.53 518.37l-.02.95h-.53l.03-.47v-.5z" stroke="#3a414a" stroke-width=".05" fill="#3a414a"/><path d="M1497.38 659.97l-14.36 4.34.2-9.26z" stroke="#3a414a" fill="#3a414a"/><path d="M2382.22 80c22.1 0 40 17.9 40 40s-17.9 40-40 40H2240c-22.1 0-40-17.9-40-40s17.9-40 40-40z" stroke="#000" stroke-width="2" fill-opacity="0"/><use xlink:href="#B" transform="matrix(1,0,0,1,2205,85.00000000000001) translate(36.138671875 43.40277777777778)"/><use xlink:href="#C" transform="matrix(1,0,0,1,2205,85.00000000000001) translate(90.76106770833333 43.40277777777778)"/><path d="M2198.5 120l-35.47.7-25.75 1.6-22.1 2.32-92.47 13.08-25.73 1.6-19.6.38" stroke="#3a414a" stroke-linejoin="round" fill="none"/><path d="M2199 120l.02.47-.53.02-.03-.97h.56z" stroke="#3a414a" stroke-width=".05" fill="#3a414a"/><path d="M1962.62 139.97l14.17-4.9.17 9.25z" stroke="#3a414a" fill="#3a414a"/><path d="M2198.5 120l-2.63.06-3.03.2-2.94.3-2.88.43-2.83.53-2.8.65-2.76.77-2.73.9-2.73 1-2.73 1.16-2.76 1.3-2.77 1.46-2.8 1.63-2.88 1.8-2.94 2.06-3.03 2.3-3.13 2.6-3.26 2.92-3.4 3.35-3.62 3.84-3.84 4.46-4.14 5.22-4.52 6.23-5.03 7.6-5.75 9.5-6.9 12.6-9.2 18.58-50.1 111.66-6.9 12.6-5.76 9.5-5.04 7.6-4.52 6.23-4.14 5.22-3.84 4.46-3.6 3.84-3.42 3.35-3.26 2.94-3.13 2.6-3.03 2.28-2.94 2.05-2.87 1.8-2.8 1.64-2.8 1.45-2.74 1.3-2.73 1.14-2.74 1.02-2.74.9-2.76.76-1.36.3" stroke="#3a414a" stroke-linejoin="round" fill="none"/><path d="M2199 120l.02.47-.53.02-.03-.96.56-.02z" stroke="#3a414a" stroke-width=".05" fill="#3a414a"/><path d="M1962.6 399.8l13.65-6.22 1.06 9.2z" stroke="#3a414a" fill="#3a414a"/><path d="M2198.5 120l-1.03.03-1.5.1-1.48.15-1.5.22-1.47.28-1.47.35-1.48.4-1.5.5-1.5.56-1.55.64-1.56.73-1.6.84-1.65.97-1.7 1.07-1.76 1.23-1.84 1.4-1.9 1.58-2.03 1.8-2.14 2.1-2.26 2.4-2.4 2.8-2.6 3.3-2.83 3.88-3.08 4.64-3.4 5.6-3.78 6.9-4.28 8.63-4.9 11.05-5.76 14.6-7 20.12-8.93 29.82-13.1 51.54-60.2 271.07-8.95 29.83-6.98 20.13-5.76 14.6-4.9 11.04-4.28 8.63-3.78 6.9-3.4 5.6-3.07 4.64-2.82 3.88-2.6 3.3-2.4 2.8-2.27 2.4-2.12 2.1-2 1.8-1.93 1.6-1.83 1.38-1.76 1.23-1.7 1.08-1.65.95-1.6.82-.7.33" stroke="#3a414a" stroke-linejoin="round" fill="none"/><path d="M2199 120l.02.47-.53.02-.03-.96.56-.02z" stroke="#3a414a" stroke-width=".05" fill="#3a414a"/><path d="M1962.58 699.64l12.86-7.72 2.08 9.03z" stroke="#3a414a" fill="#3a414a"/><path d="M2250.45 305.8a7.8 7.8 0 0 1 7.55-5.8h136a4.6 4.6 0 0 1 4.45 5.8l-28.9 108.4a7.8 7.8 0 0 1-7.55 5.8h-136a4.6 4.6 0 0 1-4.45-5.8z" stroke="#000" stroke-width="2" fill-opacity="0"/><g><use xlink:href="#D" transform="matrix(1,0,0,1,2225,305) translate(21.832256944444445 62.77777777777778)"/></g><path d="M2452.67 185.8a7.8 7.8 0 0 1 7.55-5.8h136a4.6 4.6 0 0 1 4.45 5.8l-28.9 108.4a7.8 7.8 0 0 1-7.55 5.8h-136a4.6 4.6 0 0 1-4.45-5.8z" stroke="#000" stroke-width="2" fill-opacity="0"/><g><use xlink:href="#t" transform="matrix(1,0,0,1,2427.219658436102,185) translate(16.151918402777774 62.77777777777778)"/><use xlink:href="#E" transform="matrix(1,0,0,1,2427.219658436102,185) translate(71.98959201388888 62.77777777777778)"/></g><path d="M2512.2 178.5l-.07-2.72-.25-3.02-.4-2.85-.55-2.72-.67-2.6-.8-2.5-.93-2.43-1.05-2.35-1.2-2.3-1.33-2.26-1.48-2.22-1.65-2.2-1.84-2.16-2.05-2.16-2.28-2.15-2.55-2.14-2.85-2.13-3.2-2.13-3.62-2.13-4.08-2.08-4.62-2.06-5.24-1.98-5.94-1.88-6.7-1.7-7.5-1.48-8.25-1.15-1.52-.12" stroke="#3a414a" stroke-linejoin="round" fill="none"/><path d="M2512.7 179h-.95l-.02-.5.95-.03z" stroke="#3a414a" stroke-width=".05" fill="#3a414a"/><path d="M2424.84 120.08l14.48-3.9-.48 9.27z" stroke="#3a414a" fill="#3a414a"/><path d="M2310 298.5l.98-121.12" stroke="#3a414a" stroke-linejoin="round" fill="none"/><path d="M2310.48 298.5v.5h-.95v-.52z" stroke="#3a414a" stroke-width=".05" fill="#3a414a"/><path d="M2311.1 162.62l4.52 14.3-9.27-.07z" stroke="#3a414a" fill="#3a414a"/><defs><path d="M135 0v-1490h581c339 0 533 210 533 503 0 295-197 500-540 500H440V0H135zm305-733h220c186 0 274-104 274-254s-88-251-275-251H440v505" id="F"/><path d="M128 0v-1118h290v195h12c54-169 184-238 367-200v268c-27-8-86-15-130-15-138 0-239 95-239 234V0H128" id="G"/><path d="M628 22C291 22 81-210 81-554c0-346 210-578 547-578 336 0 547 232 547 578 0 344-211 576-547 576zm0-236c160 0 242-146 242-341 0-197-82-341-242-341S387-753 387-555c0 195 81 341 241 341" id="H"/><path d="M128 0v-1118h278l12 217c60-163 185-234 319-234 143 0 236 81 288 251 63-172 205-251 359-251 205 0 357 138 357 381V0h-301v-697c0-126-76-187-177-187-114 0-184 79-184 196V0H789v-705c0-109-72-179-174-179-106 0-187 74-187 208V0H128" id="I"/><path d="M633 22C291 22 81-200 81-553c0-345 210-579 537-579 292 0 525 185 525 567v84H378c7 183 109 277 260 277 105 0 184-46 216-132l272 51C1071-99 893 22 633 22zM380-669h474c-15-146-94-237-233-237-143 0-229 99-241 237" id="J"/><path d="M683-1118v229H474v562c0 71 29 104 102 104 23 0 73-7 95-13l43 225C647 9 580 16 520 16 296 16 174-96 174-301v-588H20v-229h154v-266h300v266h209" id="K"/><path d="M428-647V0H128v-1490h294v586c65-146 175-228 341-228 232 0 385 159 385 421V0H847v-659c0-139-76-222-202-222-128 0-217 86-217 234" id="L"/><path d="M513 14c-232 0-385-159-385-421v-711h300v659c0 139 76 222 202 222 127 0 217-86 217-234v-647h301V0H864l-4-232C797-74 683 14 513 14" id="M"/><path d="M572 22C302 22 117-98 78-306l279-48c29 105 101 156 224 156 114 0 185-48 185-115 0-118-228-130-337-155-215-49-322-150-322-317 0-215 187-347 470-347 265 0 424 116 466 298l-266 47c-24-76-87-130-196-130-98 0-174 46-174 113 0 56 38 95 144 117l201 40c216 44 320 143 320 302 0 220-207 367-500 367" id="N"/><g id="a"><use transform="matrix(0.010091145833333334,0,0,0.010091145833333334,0,0)" xlink:href="#F"/><use transform="matrix(0.010091145833333334,0,0,0.010091145833333334,13.390950520833334,0)" xlink:href="#G"/><use transform="matrix(0.010091145833333334,0,0,0.010091145833333334,21.302408854166668,0)" xlink:href="#H"/><use transform="matrix(0.010091145833333334,0,0,0.010091145833333334,33.976888020833336,0)" xlink:href="#I"/><use transform="matrix(0.010091145833333334,0,0,0.010091145833333334,52.837239583333336,0)" xlink:href="#J"/><use transform="matrix(0.010091145833333334,0,0,0.010091145833333334,65.1484375,0)" xlink:href="#K"/><use transform="matrix(0.010091145833333334,0,0,0.010091145833333334,72.76725260416667,0)" xlink:href="#L"/><use transform="matrix(0.010091145833333334,0,0,0.010091145833333334,85.63346354166667,0)" xlink:href="#J"/><use transform="matrix(0.010091145833333334,0,0,0.010091145833333334,97.94466145833334,0)" xlink:href="#M"/><use transform="matrix(0.010091145833333334,0,0,0.010091145833333334,110.81087239583334,0)" xlink:href="#N"/></g><path d="M795 20C377 20 94-272 94-743c0-483 302-767 694-767 335 0 593 206 635 500h-310c-42-142-154-229-320-229-230 0-389 177-389 493s154 495 393 495c212 0 340-120 345-311H818v-232h620v186c0 391-269 628-643 628" id="O"/><path d="M440 22C227 22 68-92 68-313c0-250 202-322 422-343 195-21 271-24 271-105 0-95-63-149-175-149-116 0-187 57-211 129l-275-46c57-194 237-305 487-305 240 0 474 108 474 379V0H777v-155h-10C713-51 605 22 440 22zm85-211c140 0 238-93 238-211v-121c-37 26-156 42-222 51-111 16-185 59-185 149 0 87 70 132 169 132" id="P"/><path d="M750-1118v229H516V0H217v-889H20v-229h197v-86c0-238 156-356 363-356 94 0 178 20 215 31l-54 226c-25-7-61-15-100-15-123-3-131 84-125 200h234" id="Q"/><path d="M428-647V0H128v-1118h283l4 231c63-156 176-245 348-245 232 0 384 159 384 421V0H847v-659c0-139-76-222-202-222-128 0-217 86-217 234" id="R"/><g id="b"><use transform="matrix(0.010091145833333334,0,0,0.010091145833333334,0,0)" xlink:href="#O"/><use transform="matrix(0.010091145833333334,0,0,0.010091145833333334,15.510091145833334,0)" xlink:href="#G"/><use transform="matrix(0.010091145833333334,0,0,0.010091145833333334,23.6435546875,0)" xlink:href="#P"/><use transform="matrix(0.010091145833333334,0,0,0.010091145833333334,35.641927083333336,0)" xlink:href="#Q"/><use transform="matrix(0.010091145833333334,0,0,0.010091145833333334,43.46256510416667,0)" xlink:href="#P"/><use transform="matrix(0.010091145833333334,0,0,0.010091145833333334,55.4609375,0)" xlink:href="#R"/><use transform="matrix(0.010091145833333334,0,0,0.010091145833333334,68.3271484375,0)" xlink:href="#P"/></g><path d="M49 0l509-1490h400L1480 0h-339l-115-346H497L386 0H49zm524-585h374c-75-213-124-402-192-666-66 268-110 453-182 666" id="S"/><path d="M440-1490V0H135v-1490h305" id="T"/><g id="c"><use transform="matrix(0.010091145833333334,0,0,0.010091145833333334,0,0)" xlink:href="#S"/><use transform="matrix(0.010091145833333334,0,0,0.010091145833333334,15.429361979166668,0)" xlink:href="#F"/><use transform="matrix(0.010091145833333334,0,0,0.010091145833333334,28.8203125,0)" xlink:href="#T"/></g><path d="M135 0v-1490h305v1237h643V0H135" id="U"/><path d="M120 396l69-226c123 42 245 23 254-107l8-60L31-1118h319c87 288 199 559 259 872 72-308 185-583 277-872h315L726 132c-68 181-186 294-410 294-79 0-153-13-196-30" id="V"/><g id="d"><use transform="matrix(0.010091145833333334,0,0,0.010091145833333334,0,0)" xlink:href="#U"/><use transform="matrix(0.010091145833333334,0,0,0.010091145833333334,11.685546875,0)" xlink:href="#P"/><use transform="matrix(0.010091145833333334,0,0,0.010091145833333334,23.330729166666668,0)" xlink:href="#V"/><use transform="matrix(0.010091145833333334,0,0,0.010091145833333334,35.399739583333336,0)" xlink:href="#J"/><use transform="matrix(0.010091145833333334,0,0,0.010091145833333334,47.7109375,0)" xlink:href="#G"/></g><path d="M645 0H180v-1490h484c435 0 692 280 692 742 0 466-257 748-711 748zM370-168h263c363 0 539-218 539-580 0-358-176-574-521-574H370v1154" id="W"/><path d="M471 26C259 26 90-98 90-318c0-256 228-303 435-329 202-27 287-16 287-108 0-139-79-219-234-219-161 0-248 86-283 164l-173-57c86-203 278-265 451-265 150 0 419 46 419 395V0H815v-152h-12C765-73 660 26 471 26zm31-159c199 0 310-134 310-271v-155c-30 35-226 55-295 64-131 17-246 59-246 186 0 116 97 176 231 176" id="X"/><path d="M598-1118v154H368v674c0 100 37 144 132 144 23 0 62-6 92-12L629-6c-37 13-88 20-134 20-193 0-307-107-307-290v-688H20v-154h168v-266h180v266h230" id="Y"/><path d="M677 24c-213 0-288-135-325-197h-20V0H158v-1490h180v551h14c37-59 106-193 324-193 279 0 474 222 474 576 0 356-194 580-473 580zm-27-161c209 0 317-186 317-421 0-232-105-413-317-413-206 0-314 166-314 413 0 249 111 421 314 421" id="Z"/><path d="M538 24C308 24 148-78 108-271l171-41c32 123 123 178 257 178 156 0 256-77 256-169 0-77-54-128-164-154l-186-44c-203-48-300-148-300-305 0-192 176-326 414-326 230 0 351 112 402 269l-163 42c-31-80-94-158-238-158-133 0-233 69-233 162 0 83 57 129 188 160l169 40c203 48 298 149 298 302 0 196-179 339-441 339" id="aa"/><path d="M628 24c-324 0-524-230-524-574 0-343 198-582 503-582 237 0 487 146 487 559v75H286c9 234 145 362 343 362 132 0 231-58 273-172l174 48C1024-91 857 24 628 24zM287-650h624c-17-190-120-322-304-322-192 0-309 151-320 322" id="ab"/><g id="g"><use transform="matrix(0.010850694444444444,0,0,0.010850694444444444,0,0)" xlink:href="#W"/><use transform="matrix(0.010850694444444444,0,0,0.010850694444444444,16.03732638888889,0)" xlink:href="#X"/><use transform="matrix(0.010850694444444444,0,0,0.010850694444444444,28.515625,0)" xlink:href="#Y"/><use transform="matrix(0.010850694444444444,0,0,0.010850694444444444,35.89409722222222,0)" xlink:href="#X"/><use transform="matrix(0.010850694444444444,0,0,0.010850694444444444,48.37239583333333,0)" xlink:href="#Z"/><use transform="matrix(0.010850694444444444,0,0,0.010850694444444444,62.19618055555554,0)" xlink:href="#X"/><use transform="matrix(0.010850694444444444,0,0,0.010850694444444444,74.67447916666666,0)" xlink:href="#aa"/><use transform="matrix(0.010850694444444444,0,0,0.010850694444444444,86.4040798611111,0)" xlink:href="#ab"/></g><path d="M784 20c-382 0-662-292-662-764 0-473 280-766 662-766s660 293 660 766c0 472-278 764-660 764zm0-176c266 0 475-207 475-588 0-383-209-590-475-590-268 0-477 208-477 590 0 380 209 588 477 588" id="ac"/><path d="M158 418v-1536h174v179h20c37-59 106-193 324-193 279 0 474 222 474 576 0 356-194 580-473 580-213 0-288-135-325-197h-14v591H158zm492-555c209 0 317-186 317-421 0-232-105-413-317-413-206 0-314 166-314 413 0 249 111 421 314 421" id="ad"/><path d="M158 0v-1118h174v172h12c41-113 157-188 290-188 26 0 70 2 91 3v181c-11-2-60-10-108-10-161 0-279 109-279 260V0H158" id="ae"/><path d="M158 0v-1118h180V0H158zm91-1301c-68 0-125-53-125-119s57-119 125-119c69 0 126 53 126 119s-57 119-126 119" id="af"/><path d="M613 24c-304 0-509-231-509-576 0-350 205-580 509-580 305 0 511 230 511 580 0 345-206 576-511 576zm0-161c226 0 329-195 329-415 0-222-103-419-329-419-223 0-326 196-326 419 0 220 103 415 326 415" id="ag"/><path d="M338-670V0H158v-1118h173l1 207c72-158 192-221 342-221 226 0 378 139 378 422V0H872v-695c0-172-96-275-252-275-161 0-282 109-282 300" id="ah"/><g id="h"><use transform="matrix(0.010850694444444444,0,0,0.010850694444444444,0,0)" xlink:href="#ac"/><use transform="matrix(0.010850694444444444,0,0,0.010850694444444444,16.9921875,0)" xlink:href="#ad"/><use transform="matrix(0.010850694444444444,0,0,0.010850694444444444,30.598958333333332,0)" xlink:href="#ab"/><use transform="matrix(0.010850694444444444,0,0,0.010850694444444444,43.5546875,0)" xlink:href="#ae"/><use transform="matrix(0.010850694444444444,0,0,0.010850694444444444,51.920572916666664,0)" xlink:href="#X"/><use transform="matrix(0.010850694444444444,0,0,0.010850694444444444,64.39887152777777,0)" xlink:href="#Y"/><use transform="matrix(0.010850694444444444,0,0,0.010850694444444444,71.66883680555554,0)" xlink:href="#af"/><use transform="matrix(0.010850694444444444,0,0,0.010850694444444444,77.05078124999999,0)" xlink:href="#ag"/><use transform="matrix(0.010850694444444444,0,0,0.010850694444444444,90.37543402777776,0)" xlink:href="#ah"/><use transform="matrix(0.010850694444444444,0,0,0.010850694444444444,103.50477430555553,0)" xlink:href="#aa"/></g><path d="M128 0v-1490h300v802h17l366-430h347L740-633 1179 0H826L514-456l-86 97V0H128" id="ai"/><path d="M128 0v-1118h300V0H128zm150-1264c-91 0-165-68-165-154 0-85 74-154 165-154 90 0 165 69 165 154 0 86-75 154-165 154" id="aj"/><g id="i"><use transform="matrix(0.010091145833333334,0,0,0.010091145833333334,0,0)" xlink:href="#U"/><use transform="matrix(0.010091145833333334,0,0,0.010091145833333334,11.685546875,0)" xlink:href="#H"/><use transform="matrix(0.010091145833333334,0,0,0.010091145833333334,24.360026041666668,0)" xlink:href="#ai"/><use transform="matrix(0.010091145833333334,0,0,0.010091145833333334,36.34830729166667,0)" xlink:href="#aj"/></g><path d="M75-1237v-253h1217v253H837V0H531v-1237H75" id="ak"/><path d="M128 418v-1536h295v188h14c41-89 129-202 319-202 248 0 453 193 453 575 0 372-197 576-455 576-183 0-275-108-317-198h-9v597H128zm534-640c156 0 240-139 240-336 0-196-83-334-240-334-154 0-241 131-241 334 0 202 88 336 241 336" id="al"/><g id="j"><use transform="matrix(0.010091145833333334,0,0,0.010091145833333334,0,0)" xlink:href="#ak"/><use transform="matrix(0.010091145833333334,0,0,0.010091145833333334,12.180013020833334,0)" xlink:href="#J"/><use transform="matrix(0.010091145833333334,0,0,0.010091145833333334,24.4912109375,0)" xlink:href="#I"/><use transform="matrix(0.010091145833333334,0,0,0.010091145833333334,43.3515625,0)" xlink:href="#al"/><use transform="matrix(0.010091145833333334,0,0,0.010091145833333334,56.379231770833336,0)" xlink:href="#H"/></g><path d="M180 0v-1490h270l367 940c28 72 75 218 110 339 35-117 81-264 110-339l362-940h271V0h-187c2-448-5-837 7-1287-157 497-311 829-483 1287H842C666-458 514-784 354-1284c12 438 5 843 7 1284H180" id="am"/><path d="M613 24c-304 0-509-231-509-576 0-350 205-580 509-580 216 0 392 114 453 309l-173 49c-33-115-133-197-280-197-223 0-326 196-326 419 0 220 103 415 326 415 150 0 252-85 285-206l172 49C1010-95 832 24 613 24" id="an"/><g id="k"><use transform="matrix(0.010850694444444444,0,0,0.010850694444444444,0,0)" xlink:href="#am"/><use transform="matrix(0.010850694444444444,0,0,0.010850694444444444,20.07378472222222,0)" xlink:href="#ab"/><use transform="matrix(0.010850694444444444,0,0,0.010850694444444444,33.029513888888886,0)" xlink:href="#Y"/><use transform="matrix(0.010850694444444444,0,0,0.010850694444444444,40.299479166666664,0)" xlink:href="#ae"/><use transform="matrix(0.010850694444444444,0,0,0.010850694444444444,49.01258680555556,0)" xlink:href="#af"/><use transform="matrix(0.010850694444444444,0,0,0.010850694444444444,54.394531249999986,0)" xlink:href="#an"/><use transform="matrix(0.010850694444444444,0,0,0.010850694444444444,67.08984375,0)" xlink:href="#aa"/></g><path d="M180 0v-1490h908v168H370v486h669v168H370v500h727V0H180" id="ao"/><path d="M577 24c-279 0-473-224-473-580 0-354 195-576 474-576 218 0 287 134 324 193h14v-551h180V0H922v-173h-20C865-111 790 24 577 24zm27-161c203 0 314-172 314-421 0-247-108-413-314-413-212 0-317 181-317 413 0 235 108 421 317 421" id="ap"/><g id="l"><use transform="matrix(0.010850694444444444,0,0,0.010850694444444444,0,0)" xlink:href="#ao"/><use transform="matrix(0.010850694444444444,0,0,0.010850694444444444,13.35720486111111,0)" xlink:href="#ah"/><use transform="matrix(0.010850694444444444,0,0,0.010850694444444444,26.48654513888889,0)" xlink:href="#ap"/><use transform="matrix(0.010850694444444444,0,0,0.010850694444444444,40.093315972222214,0)" xlink:href="#ad"/><use transform="matrix(0.010850694444444444,0,0,0.010850694444444444,53.70008680555554,0)" xlink:href="#ag"/><use transform="matrix(0.010850694444444444,0,0,0.010850694444444444,67.02473958333331,0)" xlink:href="#af"/><use transform="matrix(0.010850694444444444,0,0,0.010850694444444444,72.40668402777776,0)" xlink:href="#ah"/><use transform="matrix(0.010850694444444444,0,0,0.010850694444444444,85.53602430555553,0)" xlink:href="#Y"/></g><path d="M657 26c-323 0-524-166-541-416h195c15 169 171 246 346 246 202 0 356-106 356-265 5-203-294-238-475-293-239-73-380-191-380-389 0-252 224-419 512-419 294 0 499 171 508 396H992c-17-145-151-228-328-228-193 0-321 102-321 242 0 156 175 211 284 241l149 41c160 44 422 134 422 412 0 244-197 432-541 432" id="aq"/><g id="m"><use transform="matrix(0.010850694444444444,0,0,0.010850694444444444,0,0)" xlink:href="#aq"/><use transform="matrix(0.010850694444444444,0,0,0.010850694444444444,14.2578125,0)" xlink:href="#an"/><use transform="matrix(0.010850694444444444,0,0,0.010850694444444444,26.953125,0)" xlink:href="#ae"/><use transform="matrix(0.010850694444444444,0,0,0.010850694444444444,35.319010416666664,0)" xlink:href="#X"/><use transform="matrix(0.010850694444444444,0,0,0.010850694444444444,47.79730902777778,0)" xlink:href="#ad"/><use transform="matrix(0.010850694444444444,0,0,0.010850694444444444,61.4040798611111,0)" xlink:href="#ab"/></g><path d="M611 442c-248 0-391-105-460-228l146-94c47 65 117 165 314 165 178 0 307-82 307-266v-224h-17C863-141 792-18 576-18c-268 0-472-195-472-546 0-346 197-568 476-568 216 0 288 133 326 193h17v-179h175V29c0 289-215 413-487 413zm-5-620c203 0 314-146 314-390 0-237-108-403-314-403-213 0-319 180-319 403 0 230 109 390 319 390" id="ar"/><g id="n"><use transform="matrix(0.010850694444444444,0,0,0.010850694444444444,0,0)" xlink:href="#ao"/><use transform="matrix(0.010850694444444444,0,0,0.010850694444444444,13.35720486111111,0)" xlink:href="#ah"/><use transform="matrix(0.010850694444444444,0,0,0.010850694444444444,26.48654513888889,0)" xlink:href="#ar"/><use transform="matrix(0.010850694444444444,0,0,0.010850694444444444,40.11501736111111,0)" xlink:href="#af"/><use transform="matrix(0.010850694444444444,0,0,0.010850694444444444,45.49696180555556,0)" xlink:href="#ah"/><use transform="matrix(0.010850694444444444,0,0,0.010850694444444444,58.62630208333333,0)" xlink:href="#ab"/></g><path d="M783 20c-382 0-661-292-661-764 0-473 279-766 661-766 302 0 548 182 601 489h-190c-42-204-217-313-411-313-268 0-476 208-476 590 0 381 209 588 476 588 195 0 369-110 411-313h190c-52 303-296 489-601 489" id="as"/><path d="M338-670V0H158v-1490h180v566c73-149 190-208 336-208 226 0 379 139 379 422V0H872v-695c0-172-96-275-252-275-161 0-282 109-282 300" id="at"/><g id="o"><use transform="matrix(0.010850694444444444,0,0,0.010850694444444444,0,0)" xlink:href="#as"/><use transform="matrix(0.010850694444444444,0,0,0.010850694444444444,16.23263888888889,0)" xlink:href="#X"/><use transform="matrix(0.010850694444444444,0,0,0.010850694444444444,28.7109375,0)" xlink:href="#an"/><use transform="matrix(0.010850694444444444,0,0,0.010850694444444444,41.40625,0)" xlink:href="#at"/><use transform="matrix(0.010850694444444444,0,0,0.010850694444444444,54.54644097222222,0)" xlink:href="#ab"/></g><path d="M180 0v-1490h190v1322h690V0H180" id="au"/><g id="p"><use transform="matrix(0.010850694444444444,0,0,0.010850694444444444,0,0)" xlink:href="#au"/><use transform="matrix(0.010850694444444444,0,0,0.010850694444444444,12.565104166666666,0)" xlink:href="#ag"/><use transform="matrix(0.010850694444444444,0,0,0.010850694444444444,25.889756944444443,0)" xlink:href="#ar"/><use transform="matrix(0.010850694444444444,0,0,0.010850694444444444,39.518229166666664,0)" xlink:href="#ar"/><use transform="matrix(0.010850694444444444,0,0,0.010850694444444444,53.146701388888886,0)" xlink:href="#af"/><use transform="matrix(0.010850694444444444,0,0,0.010850694444444444,58.52864583333333,0)" xlink:href="#ah"/><use transform="matrix(0.010850694444444444,0,0,0.010850694444444444,71.6579861111111,0)" xlink:href="#ar"/></g><path d="M789 20c-398 0-667-293-667-764 0-473 273-766 655-766 315 0 558 198 612 487h-196c-61-191-204-311-415-311-262 0-471 207-471 590 0 380 208 588 482 588 249 0 420-165 425-427H828v-166h572v163c0 370-256 606-611 606" id="av"/><path d="M537 14c-226 0-379-139-379-422v-710h180v695c0 172 97 275 253 275 160 0 281-109 281-300v-670h181V0H879v-209C806-46 684 14 537 14" id="aw"/><g id="q"><use transform="matrix(0.010850694444444444,0,0,0.010850694444444444,0,0)" xlink:href="#av"/><use transform="matrix(0.010850694444444444,0,0,0.010850694444444444,16.57986111111111,0)" xlink:href="#ag"/><use transform="matrix(0.010850694444444444,0,0,0.010850694444444444,29.90451388888889,0)" xlink:href="#ae"/><use transform="matrix(0.010850694444444444,0,0,0.010850694444444444,37.90147569444444,0)" xlink:href="#ag"/><use transform="matrix(0.010850694444444444,0,0,0.010850694444444444,51.22612847222222,0)" xlink:href="#aw"/><use transform="matrix(0.010850694444444444,0,0,0.010850694444444444,64.36631944444444,0)" xlink:href="#Y"/><use transform="matrix(0.010850694444444444,0,0,0.010850694444444444,71.63628472222221,0)" xlink:href="#af"/><use transform="matrix(0.010850694444444444,0,0,0.010850694444444444,77.01822916666666,0)" xlink:href="#ah"/><use transform="matrix(0.010850694444444444,0,0,0.010850694444444444,90.14756944444441,0)" xlink:href="#ab"/></g><path d="M98-1322v-168h1126v168H757V0H567v-1322H98" id="ax"/><g id="r"><use transform="matrix(0.010850694444444444,0,0,0.010850694444444444,0,0)" xlink:href="#ax"/><use transform="matrix(0.010850694444444444,0,0,0.010850694444444444,13.0859375,0)" xlink:href="#ae"/><use transform="matrix(0.010850694444444444,0,0,0.010850694444444444,21.451822916666664,0)" xlink:href="#X"/><use transform="matrix(0.010850694444444444,0,0,0.010850694444444444,33.93012152777777,0)" xlink:href="#an"/><use transform="matrix(0.010850694444444444,0,0,0.010850694444444444,46.62543402777778,0)" xlink:href="#af"/><use transform="matrix(0.010850694444444444,0,0,0.010850694444444444,52.00737847222221,0)" xlink:href="#ah"/><use transform="matrix(0.010850694444444444,0,0,0.010850694444444444,65.13671874999999,0)" xlink:href="#ar"/></g><path d="M750 21c-371 0-615-218-615-544v-967h305v942c0 174 123 299 310 299s309-125 309-299v-942h306v967c0 326-247 544-615 544" id="ay"/><g id="s"><use transform="matrix(0.010091145833333334,0,0,0.010091145833333334,0,0)" xlink:href="#ay"/><use transform="matrix(0.010091145833333334,0,0,0.010091145833333334,15.126627604166668,0)" xlink:href="#T"/></g><path d="M763 24c-353 0-583-224-583-531v-983h190v968c0 214 149 370 393 370 243 0 391-156 391-370v-968h190v983c0 307-230 531-581 531" id="az"/><g id="t"><use transform="matrix(0.010850694444444444,0,0,0.010850694444444444,0,0)" xlink:href="#az"/><use transform="matrix(0.010850694444444444,0,0,0.010850694444444444,16.536458333333332,0)" xlink:href="#aa"/><use transform="matrix(0.010850694444444444,0,0,0.010850694444444444,28.266059027777775,0)" xlink:href="#ab"/><use transform="matrix(0.010850694444444444,0,0,0.010850694444444444,41.22178819444444,0)" xlink:href="#ae"/></g><path d="M52 0l541-1490h220L1361 0h-200l-149-416H398L254 0H52zm404-582h497c-103-290-145-390-251-756-108 377-145 460-246 756" id="aA"/><g id="u"><use transform="matrix(0.010850694444444444,0,0,0.010850694444444444,0,0)" xlink:href="#aA"/><use transform="matrix(0.010850694444444444,0,0,0.010850694444444444,15.33203125,0)" xlink:href="#an"/><use transform="matrix(0.010850694444444444,0,0,0.010850694444444444,28.02734375,0)" xlink:href="#Y"/><use transform="matrix(0.010850694444444444,0,0,0.010850694444444444,35.29730902777778,0)" xlink:href="#af"/><use transform="matrix(0.010850694444444444,0,0,0.010850694444444444,40.67925347222222,0)" xlink:href="#ag"/><use transform="matrix(0.010850694444444444,0,0,0.010850694444444444,54.00390625,0)" xlink:href="#ah"/><use transform="matrix(0.010850694444444444,0,0,0.010850694444444444,67.13324652777777,0)" xlink:href="#aa"/></g><path d="M180 0v-1490h528c311 0 458 177 458 395 0 191-114 278-244 313v14c139 9 302 137 302 371 0 225-148 397-499 397H180zm190-168h350c232 0 321-102 321-231 0-149-120-277-311-277H370v508zm0-668h328c160 0 286-101 286-255 0-129-87-231-280-231H370v486" id="aB"/><g id="v"><use transform="matrix(0.010850694444444444,0,0,0.010850694444444444,0,0)" xlink:href="#ax"/><use transform="matrix(0.010850694444444444,0,0,0.010850694444444444,14.344618055555555,0)" xlink:href="#aq"/><use transform="matrix(0.010850694444444444,0,0,0.010850694444444444,28.60243055555556,0)" xlink:href="#W"/><use transform="matrix(0.010850694444444444,0,0,0.010850694444444444,44.63975694444444,0)" xlink:href="#aB"/></g><g id="w"><use transform="matrix(0.010850694444444444,0,0,0.010850694444444444,0,0)" xlink:href="#au"/><use transform="matrix(0.010850694444444444,0,0,0.010850694444444444,12.565104166666666,0)" xlink:href="#ag"/><use transform="matrix(0.010850694444444444,0,0,0.010850694444444444,25.889756944444443,0)" xlink:href="#ar"/><use transform="matrix(0.010850694444444444,0,0,0.010850694444444444,39.518229166666664,0)" xlink:href="#aa"/></g><g id="x"><use transform="matrix(0.010850694444444444,0,0,0.010850694444444444,0,0)" xlink:href="#aq"/><use transform="matrix(0.010850694444444444,0,0,0.010850694444444444,14.2578125,0)" xlink:href="#Y"/><use transform="matrix(0.010850694444444444,0,0,0.010850694444444444,21.31076388888889,0)" xlink:href="#ag"/><use transform="matrix(0.010850694444444444,0,0,0.010850694444444444,34.635416666666664,0)" xlink:href="#ae"/><use transform="matrix(0.010850694444444444,0,0,0.010850694444444444,43.00130208333333,0)" xlink:href="#X"/><use transform="matrix(0.010850694444444444,0,0,0.010850694444444444,55.47960069444444,0)" xlink:href="#ar"/><use transform="matrix(0.010850694444444444,0,0,0.010850694444444444,69.10807291666666,0)" xlink:href="#ab"/></g><g id="y"><use transform="matrix(0.010850694444444444,0,0,0.010850694444444444,0,0)" xlink:href="#ax"/><use transform="matrix(0.010850694444444444,0,0,0.010850694444444444,13.0859375,0)" xlink:href="#ae"/><use transform="matrix(0.010850694444444444,0,0,0.010850694444444444,21.451822916666664,0)" xlink:href="#X"/><use transform="matrix(0.010850694444444444,0,0,0.010850694444444444,33.93012152777777,0)" xlink:href="#an"/><use transform="matrix(0.010850694444444444,0,0,0.010850694444444444,46.62543402777778,0)" xlink:href="#ab"/><use transform="matrix(0.010850694444444444,0,0,0.010850694444444444,59.581163194444436,0)" xlink:href="#aa"/></g><path d="M180 0v-1490h510c348 0 508 209 508 474 0 266-160 477-507 477H370V0H180zm190-706h312c236 0 327-133 327-310 0-176-91-307-329-307H370v617" id="aC"/><path d="M692-1560L212 224H46l480-1784h166" id="aD"/><g id="z"><use transform="matrix(0.010850694444444444,0,0,0.010850694444444444,0,0)" xlink:href="#ac"/><use transform="matrix(0.010850694444444444,0,0,0.010850694444444444,16.33029513888889,0)" xlink:href="#ax"/><use transform="matrix(0.010850694444444444,0,0,0.010850694444444444,30.674913194444443,0)" xlink:href="#au"/><use transform="matrix(0.010850694444444444,0,0,0.010850694444444444,43.24001736111111,0)" xlink:href="#aC"/><use transform="matrix(0.010850694444444444,0,0,0.010850694444444444,57.43272569444444,0)" xlink:href="#aD"/><use transform="matrix(0.010850694444444444,0,0,0.010850694444444444,65.44053819444444,0)" xlink:href="#au"/><use transform="matrix(0.010850694444444444,0,0,0.010850694444444444,78.00564236111111,0)" xlink:href="#ag"/><use transform="matrix(0.010850694444444444,0,0,0.010850694444444444,91.33029513888889,0)" xlink:href="#ar"/><use transform="matrix(0.010850694444444444,0,0,0.010850694444444444,104.95876736111111,0)" xlink:href="#aa"/></g><g id="A"><use transform="matrix(0.010850694444444444,0,0,0.010850694444444444,0,0)" xlink:href="#ac"/><use transform="matrix(0.010850694444444444,0,0,0.010850694444444444,16.33029513888889,0)" xlink:href="#ax"/><use transform="matrix(0.010850694444444444,0,0,0.010850694444444444,30.674913194444443,0)" xlink:href="#au"/><use transform="matrix(0.010850694444444444,0,0,0.010850694444444444,43.24001736111111,0)" xlink:href="#aC"/><use transform="matrix(0.010850694444444444,0,0,0.010850694444444444,57.43272569444444,0)" xlink:href="#aD"/><use transform="matrix(0.010850694444444444,0,0,0.010850694444444444,65.44053819444444,0)" xlink:href="#ax"/><use transform="matrix(0.010850694444444444,0,0,0.010850694444444444,78.52647569444444,0)" xlink:href="#ae"/><use transform="matrix(0.010850694444444444,0,0,0.010850694444444444,86.89236111111111,0)" xlink:href="#X"/><use transform="matrix(0.010850694444444444,0,0,0.010850694444444444,99.37065972222221,0)" xlink:href="#an"/><use transform="matrix(0.010850694444444444,0,0,0.010850694444444444,112.06597222222224,0)" xlink:href="#ab"/><use transform="matrix(0.010850694444444444,0,0,0.010850694444444444,125.0217013888889,0)" xlink:href="#aa"/></g><g id="B"><use transform="matrix(0.010850694444444444,0,0,0.010850694444444444,0,0)" xlink:href="#W"/><use transform="matrix(0.010850694444444444,0,0,0.010850694444444444,16.03732638888889,0)" xlink:href="#X"/><use transform="matrix(0.010850694444444444,0,0,0.010850694444444444,28.515625,0)" xlink:href="#Y"/><use transform="matrix(0.010850694444444444,0,0,0.010850694444444444,35.89409722222222,0)" xlink:href="#X"/></g><g id="C"><use transform="matrix(0.010850694444444444,0,0,0.010850694444444444,0,0)" xlink:href="#aq"/><use transform="matrix(0.010850694444444444,0,0,0.010850694444444444,14.2578125,0)" xlink:href="#ag"/><use transform="matrix(0.010850694444444444,0,0,0.010850694444444444,27.58246527777778,0)" xlink:href="#aw"/><use transform="matrix(0.010850694444444444,0,0,0.010850694444444444,40.72265625,0)" xlink:href="#ae"/><use transform="matrix(0.010850694444444444,0,0,0.010850694444444444,48.71961805555556,0)" xlink:href="#an"/><use transform="matrix(0.010850694444444444,0,0,0.010850694444444444,61.41493055555555,0)" xlink:href="#ab"/><use transform="matrix(0.010850694444444444,0,0,0.010850694444444444,74.37065972222221,0)" xlink:href="#aa"/></g><g id="D"><use transform="matrix(0.010850694444444444,0,0,0.010850694444444444,0,0)" xlink:href="#W"/><use transform="matrix(0.010850694444444444,0,0,0.010850694444444444,16.03732638888889,0)" xlink:href="#X"/><use transform="matrix(0.010850694444444444,0,0,0.010850694444444444,28.515625,0)" xlink:href="#aa"/><use transform="matrix(0.010850694444444444,0,0,0.010850694444444444,40.24522569444444,0)" xlink:href="#at"/><use transform="matrix(0.010850694444444444,0,0,0.010850694444444444,53.385416666666664,0)" xlink:href="#Z"/><use transform="matrix(0.010850694444444444,0,0,0.010850694444444444,66.9921875,0)" xlink:href="#ag"/><use transform="matrix(0.010850694444444444,0,0,0.010850694444444444,80.53385416666666,0)" xlink:href="#X"/><use transform="matrix(0.010850694444444444,0,0,0.010850694444444444,93.01215277777777,0)" xlink:href="#ae"/><use transform="matrix(0.010850694444444444,0,0,0.010850694444444444,101.00911458333333,0)" xlink:href="#ap"/><use transform="matrix(0.010850694444444444,0,0,0.010850694444444444,114.61588541666666,0)" xlink:href="#aa"/></g><path d="M784 20c-382 0-662-292-662-764 0-473 280-766 662-766s660 293 660 766c0 282-99 499-260 629l192 255h-198L1049-33C969 2 880 20 784 20zm-62-486h198l156 205c112-98 183-261 183-483 0-383-209-590-475-590-268 0-477 208-477 590 0 380 209 588 477 588 54 0 106-9 154-25" id="aE"/><g id="E"><use transform="matrix(0.010850694444444444,0,0,0.010850694444444444,0,0)" xlink:href="#aE"/><use transform="matrix(0.010850694444444444,0,0,0.010850694444444444,16.9921875,0)" xlink:href="#aw"/><use transform="matrix(0.010850694444444444,0,0,0.010850694444444444,30.13237847222222,0)" xlink:href="#ab"/><use transform="matrix(0.010850694444444444,0,0,0.010850694444444444,43.088107638888886,0)" xlink:href="#ae"/><use transform="matrix(0.010850694444444444,0,0,0.010850694444444444,51.80121527777778,0)" xlink:href="#af"/><use transform="matrix(0.010850694444444444,0,0,0.010850694444444444,57.18315972222221,0)" xlink:href="#ab"/><use transform="matrix(0.010850694444444444,0,0,0.010850694444444444,70.13888888888889,0)" xlink:href="#aa"/></g></defs></g></svg>